<svg width="1191" height="343" viewBox="0 0 1191 343" fill="none" xmlns="http://www.w3.org/2000/svg">
<g clip-path="url(#clip0_62_243)">
<path d="M389.315 76.3802C406.984 117.572 407.565 164.096 390.932 205.717C374.298 247.338 341.812 280.647 300.62 298.315C259.428 315.984 212.904 316.565 171.283 299.932C129.662 283.298 96.3535 250.812 78.6848 209.62L234 143L389.315 76.3802Z" fill="#0E0E2C"/>
<path d="M164.887 235.122H122.431L122.699 203.783H164.887C175.422 203.783 184.306 201.417 191.538 196.685C198.77 191.863 204.217 184.854 207.878 175.658C211.628 166.461 213.503 155.345 213.503 142.31V132.801C213.503 122.801 212.431 114.006 210.288 106.417C208.235 98.8274 205.154 92.4435 201.047 87.2649C196.94 82.0864 191.895 78.2024 185.913 75.6131C179.931 72.9346 173.056 71.5953 165.288 71.5953H121.628V40.1221H165.288C178.324 40.1221 190.244 42.3542 201.047 46.8185C211.94 51.1935 221.36 57.4881 229.306 65.7024C237.253 73.9167 243.369 83.7381 247.654 95.1667C252.029 106.506 254.217 119.14 254.217 133.069V142.31C254.217 156.149 252.029 168.783 247.654 180.211C243.369 191.64 237.253 201.461 229.306 209.676C221.449 217.801 212.029 224.095 201.047 228.56C190.154 232.935 178.101 235.122 164.887 235.122ZM145.199 40.1221V235.122H105.02V40.1221H145.199Z" fill="#6AC8F7"/>
<path d="M285.588 73.4703L232.553 235.122H189.829L262.285 40.1221H289.472L285.588 73.4703ZM329.651 235.122L276.481 73.4703L272.195 40.1221H299.651L372.508 235.122H329.651ZM327.24 162.533V194.006H224.249V162.533H327.24Z" fill="#6AF79A"/>
<path d="M473.188 208H454.188L454.312 198.188H473.188C479.688 198.188 485.104 196.833 489.438 194.125C493.771 191.375 497.021 187.542 499.188 182.625C501.396 177.667 502.5 171.875 502.5 165.25V159.688C502.5 154.479 501.875 149.854 500.625 145.812C499.375 141.729 497.542 138.292 495.125 135.5C492.708 132.667 489.75 130.521 486.25 129.062C482.792 127.604 478.812 126.875 474.312 126.875H453.812V117H474.312C480.271 117 485.708 118 490.625 120C495.542 121.958 499.771 124.812 503.312 128.562C506.896 132.271 509.646 136.771 511.562 142.062C513.479 147.312 514.438 153.229 514.438 159.812V165.25C514.438 171.833 513.479 177.771 511.562 183.062C509.646 188.312 506.875 192.792 503.25 196.5C499.667 200.208 495.333 203.062 490.25 205.062C485.208 207.021 479.521 208 473.188 208ZM460.625 117V208H448.562V117H460.625ZM543.375 140.375V208H531.75V140.375H543.375ZM530.875 122.438C530.875 120.562 531.438 118.979 532.562 117.688C533.729 116.396 535.438 115.75 537.688 115.75C539.896 115.75 541.583 116.396 542.75 117.688C543.958 118.979 544.562 120.562 544.562 122.438C544.562 124.229 543.958 125.771 542.75 127.062C541.583 128.312 539.896 128.938 537.688 128.938C535.438 128.938 533.729 128.312 532.562 127.062C531.438 125.771 530.875 124.229 530.875 122.438ZM605.75 140.375H616.25V206.562C616.25 212.521 615.042 217.604 612.625 221.812C610.208 226.021 606.833 229.208 602.5 231.375C598.208 233.583 593.25 234.688 587.625 234.688C585.292 234.688 582.542 234.312 579.375 233.562C576.25 232.854 573.167 231.625 570.125 229.875C567.125 228.167 564.604 225.854 562.562 222.938L568.625 216.062C571.458 219.479 574.417 221.854 577.5 223.188C580.625 224.521 583.708 225.188 586.75 225.188C590.417 225.188 593.583 224.5 596.25 223.125C598.917 221.75 600.979 219.708 602.438 217C603.938 214.333 604.688 211.042 604.688 207.125V155.25L605.75 140.375ZM559.188 174.938V173.625C559.188 168.458 559.792 163.771 561 159.562C562.25 155.312 564.021 151.667 566.312 148.625C568.646 145.583 571.458 143.25 574.75 141.625C578.042 139.958 581.75 139.125 585.875 139.125C590.125 139.125 593.833 139.875 597 141.375C600.208 142.833 602.917 144.979 605.125 147.812C607.375 150.604 609.146 153.979 610.438 157.938C611.729 161.896 612.625 166.375 613.125 171.375V177.125C612.667 182.083 611.771 186.542 610.438 190.5C609.146 194.458 607.375 197.833 605.125 200.625C602.917 203.417 600.208 205.562 597 207.062C593.792 208.521 590.042 209.25 585.75 209.25C581.708 209.25 578.042 208.396 574.75 206.688C571.5 204.979 568.708 202.583 566.375 199.5C564.042 196.417 562.25 192.792 561 188.625C559.792 184.417 559.188 179.854 559.188 174.938ZM570.75 173.625V174.938C570.75 178.312 571.083 181.479 571.75 184.438C572.458 187.396 573.521 190 574.938 192.25C576.396 194.5 578.25 196.271 580.5 197.562C582.75 198.812 585.438 199.438 588.562 199.438C592.396 199.438 595.562 198.625 598.062 197C600.562 195.375 602.542 193.229 604 190.562C605.5 187.896 606.667 185 607.5 181.875V166.812C607.042 164.521 606.333 162.312 605.375 160.188C604.458 158.021 603.25 156.104 601.75 154.438C600.292 152.729 598.479 151.375 596.312 150.375C594.146 149.375 591.604 148.875 588.688 148.875C585.521 148.875 582.792 149.542 580.5 150.875C578.25 152.167 576.396 153.958 574.938 156.25C573.521 158.5 572.458 161.125 571.75 164.125C571.083 167.083 570.75 170.25 570.75 173.625ZM646.375 140.375V208H634.75V140.375H646.375ZM633.875 122.438C633.875 120.562 634.438 118.979 635.562 117.688C636.729 116.396 638.438 115.75 640.688 115.75C642.896 115.75 644.583 116.396 645.75 117.688C646.958 118.979 647.562 120.562 647.562 122.438C647.562 124.229 646.958 125.771 645.75 127.062C644.583 128.312 642.896 128.938 640.688 128.938C638.438 128.938 636.729 128.312 635.562 127.062C634.438 125.771 633.875 124.229 633.875 122.438ZM693.25 140.375V149.25H656.688V140.375H693.25ZM669.062 123.938H680.625V191.25C680.625 193.542 680.979 195.271 681.688 196.438C682.396 197.604 683.312 198.375 684.438 198.75C685.562 199.125 686.771 199.312 688.062 199.312C689.021 199.312 690.021 199.229 691.062 199.062C692.146 198.854 692.958 198.688 693.5 198.562L693.562 208C692.646 208.292 691.438 208.562 689.938 208.812C688.479 209.104 686.708 209.25 684.625 209.25C681.792 209.25 679.188 208.688 676.812 207.562C674.438 206.438 672.542 204.562 671.125 201.938C669.75 199.271 669.062 195.688 669.062 191.188V123.938ZM746.688 196.438V161.625C746.688 158.958 746.146 156.646 745.062 154.688C744.021 152.688 742.438 151.146 740.312 150.062C738.188 148.979 735.562 148.438 732.438 148.438C729.521 148.438 726.958 148.938 724.75 149.938C722.583 150.938 720.875 152.25 719.625 153.875C718.417 155.5 717.812 157.25 717.812 159.125H706.25C706.25 156.708 706.875 154.312 708.125 151.938C709.375 149.562 711.167 147.417 713.5 145.5C715.875 143.542 718.708 142 722 140.875C725.333 139.708 729.042 139.125 733.125 139.125C738.042 139.125 742.375 139.958 746.125 141.625C749.917 143.292 752.875 145.812 755 149.188C757.167 152.521 758.25 156.708 758.25 161.75V193.25C758.25 195.5 758.438 197.896 758.812 200.438C759.229 202.979 759.833 205.167 760.625 207V208H748.562C747.979 206.667 747.521 204.896 747.188 202.688C746.854 200.438 746.688 198.354 746.688 196.438ZM748.688 167L748.812 175.125H737.125C733.833 175.125 730.896 175.396 728.312 175.938C725.729 176.438 723.562 177.208 721.812 178.25C720.062 179.292 718.729 180.604 717.812 182.188C716.896 183.729 716.438 185.542 716.438 187.625C716.438 189.75 716.917 191.688 717.875 193.438C718.833 195.188 720.271 196.583 722.188 197.625C724.146 198.625 726.542 199.125 729.375 199.125C732.917 199.125 736.042 198.375 738.75 196.875C741.458 195.375 743.604 193.542 745.188 191.375C746.812 189.208 747.688 187.104 747.812 185.062L752.75 190.625C752.458 192.375 751.667 194.312 750.375 196.438C749.083 198.562 747.354 200.604 745.188 202.562C743.062 204.479 740.521 206.083 737.562 207.375C734.646 208.625 731.354 209.25 727.688 209.25C723.104 209.25 719.083 208.354 715.625 206.562C712.208 204.771 709.542 202.375 707.625 199.375C705.75 196.333 704.812 192.938 704.812 189.188C704.812 185.562 705.521 182.375 706.938 179.625C708.354 176.833 710.396 174.521 713.062 172.688C715.729 170.812 718.938 169.396 722.688 168.438C726.438 167.479 730.625 167 735.25 167H748.688ZM789 112V208H777.375V112H789ZM874.75 125.062L844.625 208H832.312L867 117H874.938L874.75 125.062ZM900 208L869.812 125.062L869.625 117H877.562L912.375 208H900ZM898.438 174.312V184.188H847.312V174.312H898.438ZM962.188 190.062C962.188 188.396 961.812 186.854 961.062 185.438C960.354 183.979 958.875 182.667 956.625 181.5C954.417 180.292 951.083 179.25 946.625 178.375C942.875 177.583 939.479 176.646 936.438 175.562C933.438 174.479 930.875 173.167 928.75 171.625C926.667 170.083 925.062 168.271 923.938 166.188C922.812 164.104 922.25 161.667 922.25 158.875C922.25 156.208 922.833 153.688 924 151.312C925.208 148.938 926.896 146.833 929.062 145C931.271 143.167 933.917 141.729 937 140.688C940.083 139.646 943.521 139.125 947.312 139.125C952.729 139.125 957.354 140.083 961.188 142C965.021 143.917 967.958 146.479 970 149.688C972.042 152.854 973.062 156.375 973.062 160.25H961.5C961.5 158.375 960.938 156.562 959.812 154.812C958.729 153.021 957.125 151.542 955 150.375C952.917 149.208 950.354 148.625 947.312 148.625C944.104 148.625 941.5 149.125 939.5 150.125C937.542 151.083 936.104 152.312 935.188 153.812C934.312 155.312 933.875 156.896 933.875 158.562C933.875 159.812 934.083 160.938 934.5 161.938C934.958 162.896 935.75 163.792 936.875 164.625C938 165.417 939.583 166.167 941.625 166.875C943.667 167.583 946.271 168.292 949.438 169C954.979 170.25 959.542 171.75 963.125 173.5C966.708 175.25 969.375 177.396 971.125 179.938C972.875 182.479 973.75 185.562 973.75 189.188C973.75 192.146 973.125 194.854 971.875 197.312C970.667 199.771 968.896 201.896 966.562 203.688C964.271 205.438 961.521 206.812 958.312 207.812C955.146 208.771 951.583 209.25 947.625 209.25C941.667 209.25 936.625 208.188 932.5 206.062C928.375 203.938 925.25 201.188 923.125 197.812C921 194.438 919.938 190.875 919.938 187.125H931.562C931.729 190.292 932.646 192.812 934.312 194.688C935.979 196.521 938.021 197.833 940.438 198.625C942.854 199.375 945.25 199.75 947.625 199.75C950.792 199.75 953.438 199.333 955.562 198.5C957.729 197.667 959.375 196.521 960.5 195.062C961.625 193.604 962.188 191.938 962.188 190.062ZM1028.31 190.062C1028.31 188.396 1027.94 186.854 1027.19 185.438C1026.48 183.979 1025 182.667 1022.75 181.5C1020.54 180.292 1017.21 179.25 1012.75 178.375C1009 177.583 1005.6 176.646 1002.56 175.562C999.562 174.479 997 173.167 994.875 171.625C992.792 170.083 991.188 168.271 990.062 166.188C988.938 164.104 988.375 161.667 988.375 158.875C988.375 156.208 988.958 153.688 990.125 151.312C991.333 148.938 993.021 146.833 995.188 145C997.396 143.167 1000.04 141.729 1003.12 140.688C1006.21 139.646 1009.65 139.125 1013.44 139.125C1018.85 139.125 1023.48 140.083 1027.31 142C1031.15 143.917 1034.08 146.479 1036.12 149.688C1038.17 152.854 1039.19 156.375 1039.19 160.25H1027.62C1027.62 158.375 1027.06 156.562 1025.94 154.812C1024.85 153.021 1023.25 151.542 1021.12 150.375C1019.04 149.208 1016.48 148.625 1013.44 148.625C1010.23 148.625 1007.62 149.125 1005.62 150.125C1003.67 151.083 1002.23 152.312 1001.31 153.812C1000.44 155.312 1000 156.896 1000 158.562C1000 159.812 1000.21 160.938 1000.62 161.938C1001.08 162.896 1001.88 163.792 1003 164.625C1004.12 165.417 1005.71 166.167 1007.75 166.875C1009.79 167.583 1012.4 168.292 1015.56 169C1021.1 170.25 1025.67 171.75 1029.25 173.5C1032.83 175.25 1035.5 177.396 1037.25 179.938C1039 182.479 1039.88 185.562 1039.88 189.188C1039.88 192.146 1039.25 194.854 1038 197.312C1036.79 199.771 1035.02 201.896 1032.69 203.688C1030.4 205.438 1027.65 206.812 1024.44 207.812C1021.27 208.771 1017.71 209.25 1013.75 209.25C1007.79 209.25 1002.75 208.188 998.625 206.062C994.5 203.938 991.375 201.188 989.25 197.812C987.125 194.438 986.062 190.875 986.062 187.125H997.688C997.854 190.292 998.771 192.812 1000.44 194.688C1002.1 196.521 1004.15 197.833 1006.56 198.625C1008.98 199.375 1011.38 199.75 1013.75 199.75C1016.92 199.75 1019.56 199.333 1021.69 198.5C1023.85 197.667 1025.5 196.521 1026.62 195.062C1027.75 193.604 1028.31 191.938 1028.31 190.062ZM1083.12 209.25C1078.42 209.25 1074.15 208.458 1070.31 206.875C1066.52 205.25 1063.25 202.979 1060.5 200.062C1057.79 197.146 1055.71 193.688 1054.25 189.688C1052.79 185.688 1052.06 181.312 1052.06 176.562V173.938C1052.06 168.438 1052.88 163.542 1054.5 159.25C1056.12 154.917 1058.33 151.25 1061.12 148.25C1063.92 145.25 1067.08 142.979 1070.62 141.438C1074.17 139.896 1077.83 139.125 1081.62 139.125C1086.46 139.125 1090.62 139.958 1094.12 141.625C1097.67 143.292 1100.56 145.625 1102.81 148.625C1105.06 151.583 1106.73 155.083 1107.81 159.125C1108.9 163.125 1109.44 167.5 1109.44 172.25V177.438H1058.94V168H1097.88V167.125C1097.71 164.125 1097.08 161.208 1096 158.375C1094.96 155.542 1093.29 153.208 1091 151.375C1088.71 149.542 1085.58 148.625 1081.62 148.625C1079 148.625 1076.58 149.188 1074.38 150.312C1072.17 151.396 1070.27 153.021 1068.69 155.188C1067.1 157.354 1065.88 160 1065 163.125C1064.12 166.25 1063.69 169.854 1063.69 173.938V176.562C1063.69 179.771 1064.12 182.792 1065 185.625C1065.92 188.417 1067.23 190.875 1068.94 193C1070.69 195.125 1072.79 196.792 1075.25 198C1077.75 199.208 1080.58 199.812 1083.75 199.812C1087.83 199.812 1091.29 198.979 1094.12 197.312C1096.96 195.646 1099.44 193.417 1101.56 190.625L1108.56 196.188C1107.1 198.396 1105.25 200.5 1103 202.5C1100.75 204.5 1097.98 206.125 1094.69 207.375C1091.44 208.625 1087.58 209.25 1083.12 209.25ZM1151.25 140.375V149.25H1114.69V140.375H1151.25ZM1127.06 123.938H1138.62V191.25C1138.62 193.542 1138.98 195.271 1139.69 196.438C1140.4 197.604 1141.31 198.375 1142.44 198.75C1143.56 199.125 1144.77 199.312 1146.06 199.312C1147.02 199.312 1148.02 199.229 1149.06 199.062C1150.15 198.854 1150.96 198.688 1151.5 198.562L1151.56 208C1150.65 208.292 1149.44 208.562 1147.94 208.812C1146.48 209.104 1144.71 209.25 1142.62 209.25C1139.79 209.25 1137.19 208.688 1134.81 207.562C1132.44 206.438 1130.54 204.562 1129.12 201.938C1127.75 199.271 1127.06 195.688 1127.06 191.188V123.938Z" fill="#0E0E2C"/>
</g>
<defs>
<clipPath id="clip0_62_243">
<rect width="1191" height="343" fill="white"/>
</clipPath>
</defs>
</svg>
