<svg width="1178" height="368" viewBox="0 0 1178 368" fill="none" xmlns="http://www.w3.org/2000/svg">
<g clip-path="url(#clip0_62_255)">
<rect width="1178" height="368" fill="#0E0E2C"/>
<path d="M358.315 87.3802C375.984 128.572 376.565 175.096 359.932 216.717C343.298 258.338 310.812 291.647 269.62 309.315C228.428 326.984 181.904 327.565 140.283 310.932C98.662 294.298 65.3535 261.812 47.6848 220.62L203 154L358.315 87.3802Z" fill="#FAFCFE"/>
<path d="M133.887 246.122H91.4312L91.699 214.783H133.887C144.422 214.783 153.306 212.417 160.538 207.685C167.77 202.863 173.217 195.854 176.878 186.658C180.628 177.461 182.503 166.345 182.503 153.31V143.801C182.503 133.801 181.431 125.006 179.288 117.417C177.235 109.827 174.154 103.444 170.047 98.2649C165.94 93.0864 160.895 89.2024 154.913 86.6131C148.931 83.9346 142.056 82.5953 134.288 82.5953H90.6276V51.1221H134.288C147.324 51.1221 159.244 53.3542 170.047 57.8185C180.94 62.1935 190.36 68.4881 198.306 76.7024C206.253 84.9167 212.369 94.7381 216.654 106.167C221.029 117.506 223.217 130.14 223.217 144.069V153.31C223.217 167.149 221.029 179.783 216.654 191.211C212.369 202.64 206.253 212.461 198.306 220.676C190.449 228.801 181.029 235.095 170.047 239.56C159.154 243.935 147.101 246.122 133.887 246.122ZM114.199 51.1221V246.122H74.0205V51.1221H114.199Z" fill="#6AC8F7"/>
<path d="M254.588 84.4703L201.553 246.122H158.829L231.285 51.1221H258.472L254.588 84.4703ZM298.651 246.122L245.481 84.4703L241.195 51.1221H268.651L341.508 246.122H298.651ZM296.24 173.533V205.006H193.249V173.533H296.24Z" fill="#6AF79A"/>
<path d="M446.188 215H427.188L427.312 205.188H446.188C452.688 205.188 458.104 203.833 462.438 201.125C466.771 198.375 470.021 194.542 472.188 189.625C474.396 184.667 475.5 178.875 475.5 172.25V166.688C475.5 161.479 474.875 156.854 473.625 152.812C472.375 148.729 470.542 145.292 468.125 142.5C465.708 139.667 462.75 137.521 459.25 136.062C455.792 134.604 451.812 133.875 447.312 133.875H426.812V124H447.312C453.271 124 458.708 125 463.625 127C468.542 128.958 472.771 131.812 476.312 135.562C479.896 139.271 482.646 143.771 484.562 149.062C486.479 154.312 487.438 160.229 487.438 166.812V172.25C487.438 178.833 486.479 184.771 484.562 190.062C482.646 195.312 479.875 199.792 476.25 203.5C472.667 207.208 468.333 210.062 463.25 212.062C458.208 214.021 452.521 215 446.188 215ZM433.625 124V215H421.562V124H433.625ZM516.375 147.375V215H504.75V147.375H516.375ZM503.875 129.438C503.875 127.562 504.438 125.979 505.562 124.688C506.729 123.396 508.438 122.75 510.688 122.75C512.896 122.75 514.583 123.396 515.75 124.688C516.958 125.979 517.562 127.562 517.562 129.438C517.562 131.229 516.958 132.771 515.75 134.062C514.583 135.312 512.896 135.938 510.688 135.938C508.438 135.938 506.729 135.312 505.562 134.062C504.438 132.771 503.875 131.229 503.875 129.438ZM578.75 147.375H589.25V213.562C589.25 219.521 588.042 224.604 585.625 228.812C583.208 233.021 579.833 236.208 575.5 238.375C571.208 240.583 566.25 241.688 560.625 241.688C558.292 241.688 555.542 241.312 552.375 240.562C549.25 239.854 546.167 238.625 543.125 236.875C540.125 235.167 537.604 232.854 535.562 229.938L541.625 223.062C544.458 226.479 547.417 228.854 550.5 230.188C553.625 231.521 556.708 232.188 559.75 232.188C563.417 232.188 566.583 231.5 569.25 230.125C571.917 228.75 573.979 226.708 575.438 224C576.938 221.333 577.688 218.042 577.688 214.125V162.25L578.75 147.375ZM532.188 181.938V180.625C532.188 175.458 532.792 170.771 534 166.562C535.25 162.312 537.021 158.667 539.312 155.625C541.646 152.583 544.458 150.25 547.75 148.625C551.042 146.958 554.75 146.125 558.875 146.125C563.125 146.125 566.833 146.875 570 148.375C573.208 149.833 575.917 151.979 578.125 154.812C580.375 157.604 582.146 160.979 583.438 164.938C584.729 168.896 585.625 173.375 586.125 178.375V184.125C585.667 189.083 584.771 193.542 583.438 197.5C582.146 201.458 580.375 204.833 578.125 207.625C575.917 210.417 573.208 212.562 570 214.062C566.792 215.521 563.042 216.25 558.75 216.25C554.708 216.25 551.042 215.396 547.75 213.688C544.5 211.979 541.708 209.583 539.375 206.5C537.042 203.417 535.25 199.792 534 195.625C532.792 191.417 532.188 186.854 532.188 181.938ZM543.75 180.625V181.938C543.75 185.312 544.083 188.479 544.75 191.438C545.458 194.396 546.521 197 547.938 199.25C549.396 201.5 551.25 203.271 553.5 204.562C555.75 205.812 558.438 206.438 561.562 206.438C565.396 206.438 568.562 205.625 571.062 204C573.562 202.375 575.542 200.229 577 197.562C578.5 194.896 579.667 192 580.5 188.875V173.812C580.042 171.521 579.333 169.312 578.375 167.188C577.458 165.021 576.25 163.104 574.75 161.438C573.292 159.729 571.479 158.375 569.312 157.375C567.146 156.375 564.604 155.875 561.688 155.875C558.521 155.875 555.792 156.542 553.5 157.875C551.25 159.167 549.396 160.958 547.938 163.25C546.521 165.5 545.458 168.125 544.75 171.125C544.083 174.083 543.75 177.25 543.75 180.625ZM619.375 147.375V215H607.75V147.375H619.375ZM606.875 129.438C606.875 127.562 607.438 125.979 608.562 124.688C609.729 123.396 611.438 122.75 613.688 122.75C615.896 122.75 617.583 123.396 618.75 124.688C619.958 125.979 620.562 127.562 620.562 129.438C620.562 131.229 619.958 132.771 618.75 134.062C617.583 135.312 615.896 135.938 613.688 135.938C611.438 135.938 609.729 135.312 608.562 134.062C607.438 132.771 606.875 131.229 606.875 129.438ZM666.25 147.375V156.25H629.688V147.375H666.25ZM642.062 130.938H653.625V198.25C653.625 200.542 653.979 202.271 654.688 203.438C655.396 204.604 656.312 205.375 657.438 205.75C658.562 206.125 659.771 206.312 661.062 206.312C662.021 206.312 663.021 206.229 664.062 206.062C665.146 205.854 665.958 205.688 666.5 205.562L666.562 215C665.646 215.292 664.438 215.562 662.938 215.812C661.479 216.104 659.708 216.25 657.625 216.25C654.792 216.25 652.188 215.688 649.812 214.562C647.438 213.438 645.542 211.562 644.125 208.938C642.75 206.271 642.062 202.688 642.062 198.188V130.938ZM719.688 203.438V168.625C719.688 165.958 719.146 163.646 718.062 161.688C717.021 159.688 715.438 158.146 713.312 157.062C711.188 155.979 708.562 155.438 705.438 155.438C702.521 155.438 699.958 155.938 697.75 156.938C695.583 157.938 693.875 159.25 692.625 160.875C691.417 162.5 690.812 164.25 690.812 166.125H679.25C679.25 163.708 679.875 161.312 681.125 158.938C682.375 156.562 684.167 154.417 686.5 152.5C688.875 150.542 691.708 149 695 147.875C698.333 146.708 702.042 146.125 706.125 146.125C711.042 146.125 715.375 146.958 719.125 148.625C722.917 150.292 725.875 152.812 728 156.188C730.167 159.521 731.25 163.708 731.25 168.75V200.25C731.25 202.5 731.438 204.896 731.812 207.438C732.229 209.979 732.833 212.167 733.625 214V215H721.562C720.979 213.667 720.521 211.896 720.188 209.688C719.854 207.438 719.688 205.354 719.688 203.438ZM721.688 174L721.812 182.125H710.125C706.833 182.125 703.896 182.396 701.312 182.938C698.729 183.438 696.562 184.208 694.812 185.25C693.062 186.292 691.729 187.604 690.812 189.188C689.896 190.729 689.438 192.542 689.438 194.625C689.438 196.75 689.917 198.688 690.875 200.438C691.833 202.188 693.271 203.583 695.188 204.625C697.146 205.625 699.542 206.125 702.375 206.125C705.917 206.125 709.042 205.375 711.75 203.875C714.458 202.375 716.604 200.542 718.188 198.375C719.812 196.208 720.688 194.104 720.812 192.062L725.75 197.625C725.458 199.375 724.667 201.312 723.375 203.438C722.083 205.562 720.354 207.604 718.188 209.562C716.062 211.479 713.521 213.083 710.562 214.375C707.646 215.625 704.354 216.25 700.688 216.25C696.104 216.25 692.083 215.354 688.625 213.562C685.208 211.771 682.542 209.375 680.625 206.375C678.75 203.333 677.812 199.938 677.812 196.188C677.812 192.562 678.521 189.375 679.938 186.625C681.354 183.833 683.396 181.521 686.062 179.688C688.729 177.812 691.938 176.396 695.688 175.438C699.438 174.479 703.625 174 708.25 174H721.688ZM762 119V215H750.375V119H762ZM847.75 132.062L817.625 215H805.312L840 124H847.938L847.75 132.062ZM873 215L842.812 132.062L842.625 124H850.562L885.375 215H873ZM871.438 181.312V191.188H820.312V181.312H871.438ZM935.188 197.062C935.188 195.396 934.812 193.854 934.062 192.438C933.354 190.979 931.875 189.667 929.625 188.5C927.417 187.292 924.083 186.25 919.625 185.375C915.875 184.583 912.479 183.646 909.438 182.562C906.438 181.479 903.875 180.167 901.75 178.625C899.667 177.083 898.062 175.271 896.938 173.188C895.812 171.104 895.25 168.667 895.25 165.875C895.25 163.208 895.833 160.688 897 158.312C898.208 155.938 899.896 153.833 902.062 152C904.271 150.167 906.917 148.729 910 147.688C913.083 146.646 916.521 146.125 920.312 146.125C925.729 146.125 930.354 147.083 934.188 149C938.021 150.917 940.958 153.479 943 156.688C945.042 159.854 946.062 163.375 946.062 167.25H934.5C934.5 165.375 933.938 163.562 932.812 161.812C931.729 160.021 930.125 158.542 928 157.375C925.917 156.208 923.354 155.625 920.312 155.625C917.104 155.625 914.5 156.125 912.5 157.125C910.542 158.083 909.104 159.312 908.188 160.812C907.312 162.312 906.875 163.896 906.875 165.562C906.875 166.812 907.083 167.938 907.5 168.938C907.958 169.896 908.75 170.792 909.875 171.625C911 172.417 912.583 173.167 914.625 173.875C916.667 174.583 919.271 175.292 922.438 176C927.979 177.25 932.542 178.75 936.125 180.5C939.708 182.25 942.375 184.396 944.125 186.938C945.875 189.479 946.75 192.562 946.75 196.188C946.75 199.146 946.125 201.854 944.875 204.312C943.667 206.771 941.896 208.896 939.562 210.688C937.271 212.438 934.521 213.812 931.312 214.812C928.146 215.771 924.583 216.25 920.625 216.25C914.667 216.25 909.625 215.188 905.5 213.062C901.375 210.938 898.25 208.188 896.125 204.812C894 201.438 892.938 197.875 892.938 194.125H904.562C904.729 197.292 905.646 199.812 907.312 201.688C908.979 203.521 911.021 204.833 913.438 205.625C915.854 206.375 918.25 206.75 920.625 206.75C923.792 206.75 926.438 206.333 928.562 205.5C930.729 204.667 932.375 203.521 933.5 202.062C934.625 200.604 935.188 198.938 935.188 197.062ZM1001.31 197.062C1001.31 195.396 1000.94 193.854 1000.19 192.438C999.479 190.979 998 189.667 995.75 188.5C993.542 187.292 990.208 186.25 985.75 185.375C982 184.583 978.604 183.646 975.562 182.562C972.562 181.479 970 180.167 967.875 178.625C965.792 177.083 964.188 175.271 963.062 173.188C961.938 171.104 961.375 168.667 961.375 165.875C961.375 163.208 961.958 160.688 963.125 158.312C964.333 155.938 966.021 153.833 968.188 152C970.396 150.167 973.042 148.729 976.125 147.688C979.208 146.646 982.646 146.125 986.438 146.125C991.854 146.125 996.479 147.083 1000.31 149C1004.15 150.917 1007.08 153.479 1009.12 156.688C1011.17 159.854 1012.19 163.375 1012.19 167.25H1000.62C1000.62 165.375 1000.06 163.562 998.938 161.812C997.854 160.021 996.25 158.542 994.125 157.375C992.042 156.208 989.479 155.625 986.438 155.625C983.229 155.625 980.625 156.125 978.625 157.125C976.667 158.083 975.229 159.312 974.312 160.812C973.438 162.312 973 163.896 973 165.562C973 166.812 973.208 167.938 973.625 168.938C974.083 169.896 974.875 170.792 976 171.625C977.125 172.417 978.708 173.167 980.75 173.875C982.792 174.583 985.396 175.292 988.562 176C994.104 177.25 998.667 178.75 1002.25 180.5C1005.83 182.25 1008.5 184.396 1010.25 186.938C1012 189.479 1012.88 192.562 1012.88 196.188C1012.88 199.146 1012.25 201.854 1011 204.312C1009.79 206.771 1008.02 208.896 1005.69 210.688C1003.4 212.438 1000.65 213.812 997.438 214.812C994.271 215.771 990.708 216.25 986.75 216.25C980.792 216.25 975.75 215.188 971.625 213.062C967.5 210.938 964.375 208.188 962.25 204.812C960.125 201.438 959.062 197.875 959.062 194.125H970.688C970.854 197.292 971.771 199.812 973.438 201.688C975.104 203.521 977.146 204.833 979.562 205.625C981.979 206.375 984.375 206.75 986.75 206.75C989.917 206.75 992.562 206.333 994.688 205.5C996.854 204.667 998.5 203.521 999.625 202.062C1000.75 200.604 1001.31 198.938 1001.31 197.062ZM1056.12 216.25C1051.42 216.25 1047.15 215.458 1043.31 213.875C1039.52 212.25 1036.25 209.979 1033.5 207.062C1030.79 204.146 1028.71 200.688 1027.25 196.688C1025.79 192.688 1025.06 188.312 1025.06 183.562V180.938C1025.06 175.438 1025.88 170.542 1027.5 166.25C1029.12 161.917 1031.33 158.25 1034.12 155.25C1036.92 152.25 1040.08 149.979 1043.62 148.438C1047.17 146.896 1050.83 146.125 1054.62 146.125C1059.46 146.125 1063.62 146.958 1067.12 148.625C1070.67 150.292 1073.56 152.625 1075.81 155.625C1078.06 158.583 1079.73 162.083 1080.81 166.125C1081.9 170.125 1082.44 174.5 1082.44 179.25V184.438H1031.94V175H1070.88V174.125C1070.71 171.125 1070.08 168.208 1069 165.375C1067.96 162.542 1066.29 160.208 1064 158.375C1061.71 156.542 1058.58 155.625 1054.62 155.625C1052 155.625 1049.58 156.188 1047.38 157.312C1045.17 158.396 1043.27 160.021 1041.69 162.188C1040.1 164.354 1038.88 167 1038 170.125C1037.12 173.25 1036.69 176.854 1036.69 180.938V183.562C1036.69 186.771 1037.12 189.792 1038 192.625C1038.92 195.417 1040.23 197.875 1041.94 200C1043.69 202.125 1045.79 203.792 1048.25 205C1050.75 206.208 1053.58 206.812 1056.75 206.812C1060.83 206.812 1064.29 205.979 1067.12 204.312C1069.96 202.646 1072.44 200.417 1074.56 197.625L1081.56 203.188C1080.1 205.396 1078.25 207.5 1076 209.5C1073.75 211.5 1070.98 213.125 1067.69 214.375C1064.44 215.625 1060.58 216.25 1056.12 216.25ZM1124.25 147.375V156.25H1087.69V147.375H1124.25ZM1100.06 130.938H1111.62V198.25C1111.62 200.542 1111.98 202.271 1112.69 203.438C1113.4 204.604 1114.31 205.375 1115.44 205.75C1116.56 206.125 1117.77 206.312 1119.06 206.312C1120.02 206.312 1121.02 206.229 1122.06 206.062C1123.15 205.854 1123.96 205.688 1124.5 205.562L1124.56 215C1123.65 215.292 1122.44 215.562 1120.94 215.812C1119.48 216.104 1117.71 216.25 1115.62 216.25C1112.79 216.25 1110.19 215.688 1107.81 214.562C1105.44 213.438 1103.54 211.562 1102.12 208.938C1100.75 206.271 1100.06 202.688 1100.06 198.188V130.938Z" fill="#FAFCFE"/>
</g>
<defs>
<clipPath id="clip0_62_255">
<rect width="1178" height="368" fill="white"/>
</clipPath>
</defs>
</svg>
