<svg width="359" height="356" viewBox="0 0 359 356" fill="none" xmlns="http://www.w3.org/2000/svg">
<g clip-path="url(#clip0_62_244)">
<path d="M330.315 80.3802C347.984 121.572 348.565 168.096 331.932 209.717C315.298 251.338 282.812 284.647 241.62 302.315C200.428 319.984 153.904 320.565 112.283 303.932C70.662 287.298 37.3535 254.812 19.6848 213.62L175 147L330.315 80.3802Z" fill="#0E0E2C"/>
<path d="M105.887 239.122H63.4312L63.699 207.783H105.887C116.422 207.783 125.306 205.417 132.538 200.685C139.77 195.863 145.217 188.854 148.878 179.658C152.628 170.461 154.503 159.345 154.503 146.31V136.801C154.503 126.801 153.431 118.006 151.288 110.417C149.235 102.827 146.154 96.4435 142.047 91.2649C137.94 86.0864 132.895 82.2024 126.913 79.6131C120.931 76.9346 114.056 75.5953 106.288 75.5953H62.6276V44.1221H106.288C119.324 44.1221 131.244 46.3542 142.047 50.8185C152.94 55.1935 162.36 61.4881 170.306 69.7024C178.253 77.9167 184.369 87.7381 188.654 99.1667C193.029 110.506 195.217 123.14 195.217 137.069V146.31C195.217 160.149 193.029 172.783 188.654 184.211C184.369 195.64 178.253 205.461 170.306 213.676C162.449 221.801 153.029 228.095 142.047 232.56C131.154 236.935 119.101 239.122 105.887 239.122ZM86.199 44.1221V239.122H46.0205V44.1221H86.199Z" fill="#6AC8F7"/>
<path d="M226.696 77.3482L173.661 239H130.937L203.393 44H230.58L226.696 77.3482ZM270.759 239L217.589 77.3482L213.304 44H240.759L313.616 239H270.759ZM268.348 166.411V197.884H165.357V166.411H268.348Z" fill="#6AF79A"/>
</g>
<defs>
<clipPath id="clip0_62_244">
<rect width="359" height="356" fill="white"/>
</clipPath>
</defs>
</svg>
