<svg width="407" height="354" viewBox="0 0 407 354" fill="none" xmlns="http://www.w3.org/2000/svg">
<g clip-path="url(#clip0_62_250)">
<path d="M347.315 83.3802C364.984 124.572 365.565 171.096 348.932 212.717C332.298 254.338 299.812 287.647 258.62 305.315C217.428 322.984 170.904 323.565 129.283 306.932C87.662 290.298 54.3535 257.812 36.6848 216.62L192 150L347.315 83.3802Z" fill="#FAFCFE"/>
<path d="M122.887 242.122H80.4312L80.699 210.783H122.887C133.422 210.783 142.306 208.417 149.538 203.685C156.77 198.863 162.217 191.854 165.878 182.658C169.628 173.461 171.503 162.345 171.503 149.31V139.801C171.503 129.801 170.431 121.006 168.288 113.417C166.235 105.827 163.154 99.4435 159.047 94.2649C154.94 89.0864 149.895 85.2024 143.913 82.6131C137.931 79.9346 131.056 78.5953 123.288 78.5953H79.6276V47.1221H123.288C136.324 47.1221 148.244 49.3542 159.047 53.8185C169.94 58.1935 179.36 64.4881 187.306 72.7024C195.253 80.9167 201.369 90.7381 205.654 102.167C210.029 113.506 212.217 126.14 212.217 140.069V149.31C212.217 163.149 210.029 175.783 205.654 187.211C201.369 198.64 195.253 208.461 187.306 216.676C179.449 224.801 170.029 231.095 159.047 235.56C148.154 239.935 136.101 242.122 122.887 242.122ZM103.199 47.1221V242.122H63.0205V47.1221H103.199Z" fill="#6AC8F7"/>
<path d="M243.588 80.4703L190.553 242.122H147.829L220.285 47.1221H247.472L243.588 80.4703ZM287.651 242.122L234.481 80.4703L230.195 47.1221H257.651L330.508 242.122H287.651ZM285.24 169.533V201.006H182.249V169.533H285.24Z" fill="#6AF79A"/>
</g>
<defs>
<clipPath id="clip0_62_250">
<rect width="407" height="354" fill="white"/>
</clipPath>
</defs>
</svg>
