<svg width="607" height="607" viewBox="0 0 607 607" fill="none" xmlns="http://www.w3.org/2000/svg">
<g clip-path="url(#clip0_150_253)">
<path d="M384 202C384 180.783 375.571 160.434 360.569 145.431C345.566 130.429 325.217 122 304 122C282.783 122 262.434 130.429 247.431 145.431C232.429 160.434 224 180.783 224 202C224 223.217 232.429 243.566 247.431 258.569C262.434 273.571 282.783 282 304 282C325.217 282 345.566 273.571 360.569 258.569C375.571 243.566 384 223.217 384 202ZM176 202C176 168.052 189.486 135.495 213.49 111.49C237.495 87.4857 270.052 74 304 74C337.948 74 370.505 87.4857 394.51 111.49C418.514 135.495 432 168.052 432 202C432 235.948 418.514 268.505 394.51 292.51C370.505 316.514 337.948 330 304 330C270.052 330 237.495 316.514 213.49 292.51C189.486 268.505 176 235.948 176 202ZM129.3 538H478.7C469.8 474.7 415.4 426 349.7 426H258.3C192.6 426 138.2 474.7 129.3 538ZM80 556.3C80 457.8 159.8 378 258.3 378H349.7C448.2 378 528 457.8 528 556.3C528 572.7 514.7 586 498.3 586H109.7C93.3 586 80 572.7 80 556.3Z" fill="black"/>
</g>
<defs>
<clipPath id="clip0_150_253">
<rect width="448" height="512" fill="white" transform="translate(80 74)"/>
</clipPath>
</defs>
</svg>
