<svg width="185" height="343" viewBox="0 0 185 343" fill="none" xmlns="http://www.w3.org/2000/svg">
<path id="main-icon" d="M11.4161 109.653L83.1111 14.6769H83.1689L85.4194 11.6956C87.8256 8.50801 90.4669 7.5 92.5225 7.5C94.5781 7.5 97.2194 8.50801 99.6256 11.6956L173.595 109.685C177.299 114.592 178.655 122.508 176.414 129.633C174.14 136.861 169.623 139.541 166.463 139.541H18.5245C15.4087 139.541 10.8419 136.845 8.57355 129.633C6.34499 122.548 7.72071 114.614 11.4056 109.667C11.4091 109.663 11.4126 109.658 11.4161 109.653ZM85.4194 331.304L11.4503 233.315C7.74616 228.408 6.39021 220.492 8.63133 213.367C10.9047 206.139 15.4217 203.459 18.5822 203.459H166.463C169.579 203.459 174.145 206.155 176.414 213.367C178.642 220.453 177.266 228.387 173.581 233.334C173.578 233.338 173.574 233.343 173.571 233.347L99.6256 331.304C97.2194 334.492 94.5781 335.5 92.5225 335.5C90.4669 335.5 87.8256 334.492 85.4194 331.304Z" stroke="#ECF1F4" stroke-width="15"/>
</svg>
