<svg width="552" height="552" viewBox="0 0 557 557" fill="none" xmlns="http://www.w3.org/2000/svg">
<g id="Audiobook-bro 1">
<g id="freepik--background-simple--inject-39">
<path id="Vector" d="M526.621 225.786C513.539 198.904 499.109 172.699 483.387 147.271C459.536 108.626 428.333 72.41 387.483 49.5396C292.715 -3.46452 183.554 17.2336 111.589 78.3476C39.6249 139.462 98.3885 217.798 85.1987 276.573C72.0089 335.347 30.078 333.086 19.2276 418.318C8.37724 503.55 130.784 554.304 225.54 532.403C320.297 510.502 321.5 471.322 401.875 468.994C482.251 466.666 530.264 442.514 546.974 352.626C552.867 321.044 553.491 286.71 540.613 256.543C536.291 246.317 531.59 236.034 526.621 225.786Z" fill="#F76A81"/>
<path id="Vector_2" opacity="0.7" d="M526.621 225.786C513.539 198.904 499.109 172.699 483.387 147.271C459.536 108.626 428.333 72.41 387.483 49.5396C292.715 -3.46452 183.554 17.2336 111.589 78.3476C39.6249 139.462 98.3885 217.798 85.1987 276.573C72.0089 335.347 30.078 333.086 19.2276 418.318C8.37724 503.55 130.784 554.304 225.54 532.403C320.297 510.502 321.5 471.322 401.875 468.994C482.251 466.666 530.264 442.514 546.974 352.626C552.867 321.044 553.491 286.71 540.613 256.543C536.291 246.317 531.59 236.034 526.621 225.786Z" fill="#FAFCFE"/>
</g>
<g id="freepik--Plant--inject-39">
<path id="Vector_3" d="M492.566 300.045C492.574 300.019 492.573 299.992 492.563 299.968C492.553 299.943 492.534 299.923 492.511 299.911C492.49 299.894 492.465 299.884 492.438 299.884C492.412 299.884 492.386 299.894 492.366 299.911C489.256 307.403 486.797 315.147 485.013 323.06C483.21 330.949 481.857 338.935 480.958 346.978L480.379 353.027C480.29 354.04 480.179 355.043 480.112 356.057L479.945 359.087C479.855 361.114 479.733 363.131 479.677 365.158L479.733 371.229L479.8 374.271C479.8 375.284 479.911 376.298 479.978 377.301C480.134 379.328 480.257 381.344 480.446 383.361C480.836 387.382 481.437 391.393 482.061 395.381C482.064 395.405 482.076 395.428 482.094 395.445C482.113 395.461 482.137 395.47 482.161 395.47C482.176 395.472 482.19 395.47 482.203 395.466C482.217 395.461 482.229 395.454 482.24 395.445C482.25 395.435 482.259 395.424 482.264 395.411C482.27 395.398 482.273 395.384 482.273 395.37C482.273 393.342 482.173 391.326 482.128 389.321C482.083 387.315 481.894 385.299 481.928 383.283C481.961 381.266 481.928 379.261 481.861 377.245L481.805 374.237L481.861 371.229V365.203L482.028 359.187V356.179C482.028 355.177 482.15 354.174 482.206 353.171L482.574 347.156C483.259 339.144 484.397 331.177 485.982 323.294C487.502 315.369 489.704 307.59 492.566 300.045Z" fill="#4A4A68"/>
<path id="Vector_4" d="M493.435 331.537C493.442 331.511 493.44 331.482 493.427 331.458C493.415 331.433 493.394 331.414 493.368 331.404C493.355 331.399 493.341 331.396 493.327 331.397C493.313 331.397 493.299 331.401 493.286 331.407C493.274 331.414 493.263 331.423 493.254 331.433C493.245 331.444 493.238 331.457 493.234 331.471C491.521 336.481 490.089 341.584 488.946 346.755C487.812 351.943 486.968 357.191 486.417 362.473C485.882 367.742 485.303 373.023 485.225 378.314C485.088 383.616 485.274 388.921 485.782 394.2C485.786 394.225 485.798 394.248 485.816 394.266C485.834 394.284 485.857 394.296 485.882 394.3C485.896 394.302 485.91 394.3 485.924 394.296C485.937 394.292 485.95 394.285 485.96 394.275C485.971 394.266 485.979 394.254 485.985 394.241C485.991 394.228 485.994 394.214 485.993 394.2C486.606 388.931 486.985 383.662 487.341 378.403C487.698 373.145 487.765 367.876 488.11 362.618C488.846 352.106 490.63 341.695 493.435 331.537Z" fill="#4A4A68"/>
<path id="Vector_5" d="M510.891 342.611C510.882 342.601 510.871 342.593 510.858 342.588C510.846 342.582 510.833 342.58 510.819 342.58C510.806 342.58 510.792 342.582 510.78 342.588C510.767 342.593 510.756 342.601 510.747 342.611C506.382 345.403 502.449 348.818 499.072 352.748C497.376 354.734 495.848 356.858 494.504 359.098L493.569 360.869L492.833 362.707C492.586 363.314 492.373 363.936 492.199 364.568C492.009 365.191 491.797 365.826 491.63 366.45C490.29 371.484 489.48 376.644 489.213 381.846C488.954 387.022 489.148 392.21 489.792 397.353C489.797 397.378 489.808 397.401 489.826 397.419C489.844 397.437 489.868 397.449 489.893 397.453C489.92 397.453 489.947 397.443 489.968 397.424C489.988 397.406 490.001 397.38 490.004 397.353L491.33 382.002C491.697 376.923 492.348 371.869 493.279 366.862C493.413 366.25 493.591 365.637 493.747 365.035C493.895 364.42 494.077 363.814 494.293 363.22L494.917 361.448L495.73 359.822C496.936 357.589 498.334 355.464 499.907 353.472C503.019 349.397 506.712 345.801 510.869 342.8C510.885 342.79 510.898 342.777 510.907 342.762C510.917 342.746 510.923 342.729 510.926 342.711C510.928 342.692 510.926 342.674 510.92 342.657C510.914 342.639 510.904 342.624 510.891 342.611Z" fill="#4A4A68"/>
<path id="Vector_6" d="M502.414 362.329C500.148 363.987 498.326 366.18 497.111 368.712C495.834 371.193 494.837 373.808 494.137 376.51C493.925 377.178 493.769 377.847 493.613 378.537L493.134 380.576C492.88 381.946 492.709 383.33 492.622 384.72C492.622 386.112 492.566 387.505 492.622 388.886C492.731 390.276 492.913 391.66 493.168 393.03C493.173 393.052 493.184 393.072 493.2 393.087C493.216 393.103 493.235 393.114 493.257 393.12C493.271 393.123 493.285 393.123 493.3 393.12C493.314 393.117 493.327 393.111 493.339 393.103C493.35 393.094 493.36 393.084 493.367 393.071C493.374 393.059 493.378 393.045 493.379 393.03C493.705 391.687 493.951 390.326 494.115 388.953C494.337 387.605 494.549 386.257 494.705 384.92C494.861 383.584 495.084 382.247 495.184 380.899C495.284 379.551 495.474 378.203 495.763 376.889C496.219 374.234 496.966 371.637 497.991 369.146C498.923 366.595 500.451 364.304 502.447 362.462C502.46 362.442 502.467 362.419 502.467 362.395C502.467 362.372 502.46 362.348 502.447 362.329C502.436 362.327 502.425 362.327 502.414 362.329Z" fill="#4A4A68"/>
<path id="Vector_7" d="M477.962 377.702C477.382 370.895 476.269 364.144 475.199 357.405C474.13 350.665 472.971 343.936 471.723 337.219C470.476 330.502 469.117 323.851 467.668 317.167C467.674 317.15 467.675 317.132 467.673 317.115C467.67 317.098 467.663 317.081 467.653 317.067C467.642 317.053 467.629 317.041 467.613 317.033C467.598 317.025 467.58 317.021 467.563 317.021C467.545 317.021 467.528 317.025 467.512 317.033C467.496 317.041 467.483 317.053 467.472 317.067C467.462 317.081 467.455 317.098 467.452 317.115C467.45 317.132 467.451 317.15 467.457 317.167C468.626 323.851 469.685 330.624 470.676 337.364C471.668 344.103 472.659 350.91 473.517 357.594C474.375 364.278 474.999 371.14 475.845 377.88L478.341 398.166C478.341 398.192 478.351 398.218 478.37 398.237C478.389 398.256 478.414 398.266 478.441 398.266C478.469 398.266 478.495 398.256 478.516 398.238C478.536 398.219 478.549 398.193 478.552 398.166C478.63 396.45 478.63 394.746 478.675 393.03C478.719 391.315 478.608 389.61 478.574 387.906C478.508 384.519 478.218 381.122 477.962 377.702Z" fill="#4A4A68"/>
<path id="Vector_8" d="M473.873 377.646C473.506 374.939 473.016 372.254 472.503 369.581L471.545 365.604C471.233 364.278 470.932 362.952 470.542 361.638C469.183 356.354 467.444 351.176 465.34 346.142L464.538 344.226L463.636 342.388C463.056 341.151 462.355 339.982 461.697 338.79C460.359 336.401 458.702 334.205 456.773 332.262C456.764 332.252 456.753 332.244 456.74 332.239C456.728 332.233 456.715 332.231 456.701 332.231C456.687 332.231 456.674 332.233 456.662 332.239C456.649 332.244 456.638 332.252 456.629 332.262C456.619 332.271 456.611 332.282 456.606 332.295C456.6 332.307 456.598 332.321 456.598 332.334C456.598 332.348 456.6 332.361 456.606 332.373C456.611 332.386 456.619 332.397 456.629 332.406C458.407 334.425 459.906 336.673 461.085 339.09C461.675 340.294 462.299 341.486 462.811 342.744L463.602 344.594L464.315 346.487C466.222 351.555 467.753 356.757 468.894 362.05C469.506 364.668 469.919 367.341 470.431 369.982L471.066 373.981C471.3 375.307 471.59 376.621 471.768 377.958C472.202 380.62 472.681 383.283 473.149 385.945C473.617 388.608 474.052 391.293 474.62 393.955C474.622 393.98 474.634 394.002 474.653 394.019C474.671 394.035 474.695 394.044 474.72 394.044C474.748 394.044 474.774 394.034 474.795 394.015C474.816 393.997 474.829 393.971 474.831 393.944C474.831 391.211 474.768 388.489 474.642 385.778C474.475 383.027 474.163 380.32 473.873 377.646Z" fill="#4A4A68"/>
<path id="Vector_9" d="M468.236 377.958C466.978 374.382 465.507 370.884 463.925 367.453C462.316 364.026 460.501 360.7 458.489 357.494C458.469 357.476 458.443 357.467 458.417 357.467C458.39 357.467 458.364 357.476 458.344 357.494C458.327 357.514 458.317 357.54 458.317 357.566C458.317 357.593 458.327 357.618 458.344 357.638C460.092 360.967 461.64 364.397 462.978 367.91C464.36 371.385 465.607 374.928 466.655 378.515C467.702 382.102 468.482 385.767 469.44 389.376C470.398 392.986 471.222 396.584 472.336 400.227C472.343 400.248 472.356 400.267 472.374 400.281C472.392 400.295 472.414 400.303 472.436 400.305C472.45 400.306 472.465 400.305 472.478 400.301C472.492 400.296 472.504 400.289 472.514 400.28C472.525 400.27 472.533 400.259 472.539 400.246C472.545 400.233 472.548 400.219 472.548 400.204C472.591 396.398 472.237 392.597 471.489 388.864C470.701 385.147 469.613 381.5 468.236 377.958Z" fill="#4A4A68"/>
<path id="Vector_10" d="M468.003 389.9C467.306 387.671 466.297 385.552 465.006 383.606C463.794 381.614 462.326 379.79 460.639 378.181C459.772 377.405 458.84 376.704 457.854 376.086C456.884 375.457 455.825 374.976 454.713 374.66C454.688 374.658 454.664 374.663 454.643 374.676C454.622 374.689 454.606 374.708 454.597 374.731C454.588 374.754 454.587 374.779 454.594 374.802C454.6 374.826 454.615 374.846 454.635 374.861C456.646 375.824 458.428 377.206 459.859 378.916C461.31 380.584 462.531 382.439 463.491 384.43C464.527 386.391 465.062 388.552 465.964 390.568C466.365 391.604 466.755 392.64 467.212 393.676C467.6 394.752 468.058 395.801 468.582 396.818C468.593 396.835 468.608 396.848 468.625 396.858C468.643 396.868 468.662 396.873 468.682 396.874C468.71 396.874 468.737 396.864 468.757 396.845C468.778 396.826 468.791 396.801 468.794 396.773C468.827 395.609 468.782 394.444 468.66 393.287C468.515 392.128 468.27 391.014 468.003 389.9Z" fill="#4A4A68"/>
<path id="Vector_11" d="M468.426 326.914C465.022 325.966 461.942 324.105 459.519 321.533C457.096 318.961 455.423 315.775 454.679 312.321C452.106 300.29 460.405 305.448 452.963 286.543C445.522 267.638 447.237 263.361 449.811 257.913C452.384 252.466 453.821 254.192 456.116 261.355C458.411 268.518 466.71 279.681 469.852 300.579C472.993 321.478 468.426 326.914 468.426 326.914Z" fill="#F76A81"/>
<path id="Vector_12" d="M490.472 306.595C490.472 306.595 483.03 304.011 482.741 289.985C482.451 275.96 488.177 278.845 489.035 261.356C489.893 243.866 491.04 231.578 494.193 231.278C497.345 230.977 505.645 239.866 508.508 259.339C511.371 278.812 504.787 291.645 499.061 297.416C493.335 303.186 490.472 306.595 490.472 306.595Z" fill="#F76A81"/>
<path id="Vector_13" d="M464.415 343.814C464.415 343.814 462.7 333.509 459.258 328.641C455.815 323.773 448.385 319.473 443.517 310.026C438.649 300.579 433.201 296.001 433.491 309.458C433.78 322.915 439.796 329.777 447.238 334.367C454.679 338.957 464.415 343.814 464.415 343.814Z" fill="#F76A81"/>
<path id="Vector_14" d="M461.263 361.56C461.263 361.56 454.389 348.392 444.375 338.656C434.36 328.92 426.339 324.051 429.202 328.92C432.065 333.788 435.496 333.509 440.342 342.098C445.188 350.687 443.773 356.981 450.646 361.849C457.52 366.718 461.263 361.56 461.263 361.56Z" fill="#F76A81"/>
<path id="Vector_15" d="M460.405 378.459C460.115 377.601 459.837 371.296 450.101 366.15C440.364 361.003 431.162 362.997 432.343 365.57C433.524 368.144 439.506 372.444 445.522 375.017C451.538 377.59 460.405 378.459 460.405 378.459Z" fill="#F76A81"/>
<path id="Vector_16" d="M489.893 344.382C489.893 344.382 485.604 338.946 487.932 327.516C490.26 316.086 495.374 318.927 501.1 312.911C506.825 306.896 505.678 306.038 511.404 299.744C517.13 293.45 522.288 290.008 524.571 292.581C526.855 295.154 523.457 303.175 519.993 307.754C516.528 312.332 511.081 314.627 508.541 320.353C506.001 326.079 507.115 335.247 500.52 339.536C493.925 343.825 489.893 344.382 489.893 344.382Z" fill="#F76A81"/>
<path id="Vector_17" d="M504.219 347.568C504.219 347.568 514.523 335.826 521.965 327.237C529.406 318.649 532.269 312.065 532.559 317.791C532.849 323.517 535.132 328.095 529.128 335.537C523.123 342.978 504.219 347.568 504.219 347.568Z" fill="#F76A81"/>
<path id="Vector_18" d="M498.771 366.428C498.771 366.428 498.481 361.85 514.802 351.255C531.122 340.661 537.995 338.656 536.279 342.956C534.564 347.256 527.367 351.545 519.67 359.276C511.972 367.007 498.771 366.428 498.771 366.428Z" fill="#F76A81"/>
<path id="Vector_19" d="M469.105 325.7C469.105 325.7 465.273 305.158 461.307 290.554C457.342 275.949 454.724 267.082 454.724 267.082" stroke="#4A4A68" stroke-linecap="round" stroke-linejoin="round"/>
<path id="Vector_20" d="M489.815 306.807C489.815 306.807 496.766 284.527 499.061 271.081C501.356 257.635 498.771 247.609 497.624 241.593" stroke="#4A4A68" stroke-linecap="round" stroke-linejoin="round"/>
<path id="Vector_21" d="M463.513 343.379C460.428 338.081 456.899 333.053 452.963 328.352C446.658 320.91 441.823 316.9 438.927 309.737" stroke="#4A4A68" stroke-linecap="round" stroke-linejoin="round"/>
<path id="Vector_22" d="M489.893 344.382C489.893 344.382 492.187 330.635 497.624 323.483C503.06 316.331 513.944 305.158 518.244 297.995" stroke="#4A4A68" stroke-linecap="round" stroke-linejoin="round"/>
<path id="Vector_23" d="M459.737 378.147C459.737 378.147 450.1 371.875 443.227 368.433" stroke="#4A4A68" stroke-linecap="round" stroke-linejoin="round"/>
<path id="Vector_24" d="M514.902 435.852C514.256 418.485 494.95 406.888 494.95 406.888H465.362C465.362 406.888 446.057 418.474 445.411 435.852C444.764 453.231 467.29 516.896 467.29 516.896H493.023C493.023 516.896 515.548 453.231 514.902 435.852Z" fill="#4A4A68" stroke="#4A4A68" stroke-linecap="round" stroke-linejoin="round"/>
<path id="Vector_25" d="M498.76 389.811H461.007L465.362 406.9H494.404L498.76 389.811Z" fill="#4A4A68" stroke="#4A4A68" stroke-linecap="round" stroke-linejoin="round"/>
</g>
<g id="freepik--Icons--inject-39">
<path id="Vector_26" d="M459.694 216.279C472.567 213.21 480.514 200.286 477.445 187.413C474.376 174.54 461.452 166.593 448.579 169.662C435.706 172.731 427.758 185.655 430.828 198.528C433.897 211.401 446.82 219.349 459.694 216.279Z" stroke="#4A4A68" stroke-linecap="round" stroke-linejoin="round"/>
<path id="Vector_27" d="M471.824 192.989L444.542 177.237V208.741L471.824 192.989Z" stroke="#4A4A68" stroke-linecap="round" stroke-linejoin="round"/>
<path id="Vector_28" d="M105.456 406.137C108.879 397.872 104.955 388.397 96.69 384.974C88.4253 381.551 78.9503 385.475 75.5269 393.74C72.1035 402.005 76.0283 411.48 84.293 414.903C92.5577 418.326 102.033 414.402 105.456 406.137Z" stroke="#4A4A68" stroke-linecap="round" stroke-linejoin="round"/>
<path id="Vector_29" d="M102.455 399.937L84.0067 389.287V410.587L102.455 399.937Z" stroke="#4A4A68" stroke-linecap="round" stroke-linejoin="round"/>
<path id="Vector_30" d="M106.019 202.113H92.3395V246.918H106.019V202.113Z" stroke="#4A4A68" stroke-linecap="round" stroke-linejoin="round"/>
<path id="Vector_31" d="M129.948 202.113H116.268V246.918H129.948V202.113Z" stroke="#4A4A68" stroke-linecap="round" stroke-linejoin="round"/>
<path id="Vector_32" d="M204.709 46.8882H173.505V78.0914H204.709V46.8882Z" stroke="#4A4A68" stroke-linecap="round" stroke-linejoin="round"/>
<path id="Vector_33" d="M383.896 194.115H364.958V213.053H383.896V194.115Z" stroke="#4A4A68" stroke-linecap="round" stroke-linejoin="round"/>
<path id="Vector_34" d="M73.5017 274.389H54.5637V293.327H73.5017V274.389Z" stroke="#4A4A68" stroke-linecap="round" stroke-linejoin="round"/>
</g>
<g id="freepik--speech-bubble--inject-39">
<path id="Vector_35" d="M399.982 135.63C420.955 135.63 437.958 118.627 437.958 97.6533C437.958 76.6796 420.955 59.677 399.982 59.677C379.008 59.677 362.005 76.6796 362.005 97.6533C362.005 118.627 379.008 135.63 399.982 135.63Z" fill="#FAFCFE" stroke="#4A4A68" stroke-linecap="round" stroke-linejoin="round"/>
<path id="Vector_36" d="M380.977 90.5348V105.251L399.67 115.667V80.1189L380.977 90.5348Z" fill="#4A4A68"/>
<path id="Vector_37" d="M379.863 90.791H370.516V104.872H379.863V90.791Z" fill="#4A4A68"/>
<path id="Vector_38" d="M414.798 110.776C418.467 106.86 420.497 101.687 420.47 96.3211C420.443 90.9548 418.361 85.8026 414.653 81.9236" stroke="#4A4A68" stroke-width="2" stroke-linecap="round" stroke-linejoin="round"/>
<path id="Vector_39" d="M410.498 107.78C412.048 106.274 413.273 104.468 414.099 102.471C414.925 100.475 415.333 98.3304 415.298 96.1702C415.264 94.0099 414.787 91.8796 413.899 89.9103C413.01 87.9411 411.727 86.1746 410.13 84.7197" stroke="#4A4A68" stroke-width="2" stroke-linecap="round" stroke-linejoin="round"/>
<path id="Vector_40" d="M406.187 103.803C407.24 102.833 408.074 101.649 408.632 100.331C409.19 99.0123 409.458 97.5896 409.42 96.1585C409.382 94.7273 409.038 93.3209 408.411 92.0338C407.784 90.7467 406.889 89.6088 405.786 88.6967" stroke="#4A4A68" stroke-width="2" stroke-linecap="round" stroke-linejoin="round"/>
<path id="Vector_41" d="M364.144 111.166L346.822 117.159" stroke="#4A4A68" stroke-linecap="round" stroke-linejoin="round"/>
</g>
<g id="freepik--Character--inject-39">
<path id="Vector_42" d="M303.008 511.749V452.017H121.292V446.714H388.652C398.001 446.717 406.967 450.433 413.576 457.045C420.186 463.657 423.899 472.623 423.899 481.972C423.896 491.319 420.182 500.283 413.572 506.892C406.963 513.502 398 517.216 388.652 517.219H121.292V511.772L303.008 511.749Z" fill="#F76A81" stroke="#4A4A68" stroke-miterlimit="10"/>
<path id="Vector_43" d="M383.84 481.95C383.834 472.603 380.117 463.64 373.505 457.033C366.894 450.426 357.929 446.714 348.582 446.714H358.608C367.849 446.878 376.656 450.665 383.133 457.258C389.61 463.851 393.239 472.724 393.239 481.967C393.239 491.209 389.61 500.082 383.133 506.675C376.656 513.268 367.849 517.055 358.608 517.219H348.582C353.213 517.219 357.799 516.307 362.077 514.534C366.355 512.762 370.243 510.163 373.517 506.888C376.791 503.613 379.388 499.725 381.159 495.446C382.93 491.167 383.841 486.581 383.84 481.95Z" fill="#FAFCFE" stroke="#4A4A68" stroke-linecap="round" stroke-linejoin="round"/>
<path id="Vector_44" d="M128.611 510.791C140.063 475.99 128.611 452.195 128.611 452.195H301.215C309.106 452.195 316.674 455.33 322.254 460.91C327.835 466.49 330.969 474.058 330.969 481.95C330.969 489.841 327.835 497.41 322.254 502.99C316.674 508.57 309.106 511.705 301.215 511.705H128.299C128.4 511.404 128.511 511.103 128.611 510.791Z" fill="#FAFCFE" stroke="#4A4A68" stroke-linecap="round" stroke-linejoin="round"/>
<path id="Vector_45" d="M328.675 470.498H276.027" stroke="#4A4A68" stroke-linecap="round" stroke-linejoin="round"/>
<path id="Vector_46" d="M330.969 481.95H308.99" stroke="#4A4A68" stroke-linecap="round" stroke-linejoin="round"/>
<path id="Vector_47" d="M326.848 495.685H254.059" stroke="#4A4A68" stroke-linecap="round" stroke-linejoin="round"/>
<path id="Vector_48" d="M298.92 466.844H258.637" stroke="#4A4A68" stroke-linecap="round" stroke-linejoin="round"/>
<path id="Vector_49" d="M304.868 481.95H295.255" stroke="#4A4A68" stroke-linecap="round" stroke-linejoin="round"/>
<path id="Vector_50" d="M246.729 495.685H239.41" stroke="#4A4A68" stroke-linecap="round" stroke-linejoin="round"/>
<path id="Vector_51" d="M132.276 464.549H147.85" stroke="#4A4A68" stroke-linecap="round" stroke-linejoin="round"/>
<path id="Vector_52" d="M155.626 474.62H137.768" stroke="#4A4A68" stroke-linecap="round" stroke-linejoin="round"/>
<path id="Vector_53" d="M169.361 491.107H176.224" stroke="#4A4A68" stroke-linecap="round" stroke-linejoin="round"/>
<path id="Vector_54" d="M135.485 491.107H162.499" stroke="#4A4A68" stroke-linecap="round" stroke-linejoin="round"/>
<path id="Vector_55" d="M235.177 372.076V312.366H416.926V307.052H149.566C140.219 307.055 131.255 310.769 124.646 317.379C118.036 323.988 114.322 332.952 114.319 342.299C114.319 351.647 118.032 360.612 124.642 367.222C131.252 373.832 140.218 377.546 149.566 377.546H416.926V372.076H235.177Z" fill="#ECF1F4" stroke="#4A4A68" stroke-linecap="round" stroke-linejoin="round"/>
<path id="Vector_56" d="M143.706 342.299C143.709 332.952 147.423 323.988 154.033 317.379C160.642 310.769 169.606 307.055 178.953 307.052H168.927C164.298 307.052 159.715 307.963 155.439 309.735C151.162 311.506 147.277 314.102 144.004 317.375C140.731 320.648 138.134 324.534 136.363 328.81C134.592 333.087 133.68 337.67 133.68 342.299C133.68 346.927 134.592 351.511 136.363 355.787C138.134 360.064 140.731 363.949 144.004 367.222C147.277 370.495 151.162 373.091 155.439 374.863C159.715 376.634 164.298 377.546 168.927 377.546H178.953C169.605 377.546 160.64 373.832 154.03 367.222C147.42 360.612 143.706 351.647 143.706 342.299Z" fill="#FAFCFE" stroke="#4A4A68" stroke-linecap="round" stroke-linejoin="round"/>
<path id="Vector_57" d="M187.297 342.299C187.3 332.95 191.016 323.984 197.628 317.375C204.24 310.765 213.206 307.052 222.555 307.052H212.529C207.9 307.052 203.317 307.963 199.041 309.735C194.764 311.506 190.879 314.102 187.606 317.375C184.333 320.648 181.736 324.534 179.965 328.81C178.194 333.087 177.282 337.67 177.282 342.299C177.282 346.927 178.194 351.511 179.965 355.787C181.736 360.064 184.333 363.949 187.606 367.222C190.879 370.495 194.764 373.091 199.041 374.863C203.317 376.634 207.9 377.546 212.529 377.546H222.555C217.925 377.547 213.341 376.637 209.063 374.866C204.785 373.095 200.899 370.499 197.624 367.226C194.35 363.953 191.753 360.067 189.981 355.79C188.209 351.513 187.297 346.928 187.297 342.299Z" fill="#FAFCFE" stroke="#4A4A68" stroke-linecap="round" stroke-linejoin="round"/>
<path id="Vector_58" d="M409.607 371.14C398.155 336.35 409.607 312.544 409.607 312.544H237.015C233.103 312.536 229.227 313.301 225.611 314.793C221.994 316.285 218.708 318.475 215.939 321.239C213.17 324.003 210.973 327.285 209.474 330.899C207.976 334.513 207.204 338.387 207.204 342.299C207.201 346.213 207.97 350.089 209.468 353.705C210.965 357.321 213.162 360.607 215.931 363.373C218.7 366.139 221.988 368.331 225.606 369.825C229.224 371.318 233.101 372.083 237.015 372.076H409.952C409.818 371.753 409.707 371.463 409.607 371.14Z" fill="#FAFCFE" stroke="#4A4A68" stroke-linecap="round" stroke-linejoin="round"/>
<path id="Vector_59" d="M209.543 330.858H262.191" stroke="#4A4A68" stroke-linecap="round" stroke-linejoin="round"/>
<path id="Vector_60" d="M207.249 342.299H229.228" stroke="#4A4A68" stroke-linecap="round" stroke-linejoin="round"/>
<path id="Vector_61" d="M211.37 356.034H284.159" stroke="#4A4A68" stroke-linecap="round" stroke-linejoin="round"/>
<path id="Vector_62" d="M239.298 327.193H279.581" stroke="#4A4A68" stroke-linecap="round" stroke-linejoin="round"/>
<path id="Vector_63" d="M233.35 342.299H242.963" stroke="#4A4A68" stroke-linecap="round" stroke-linejoin="round"/>
<path id="Vector_64" d="M291.489 356.034H298.808" stroke="#4A4A68" stroke-linecap="round" stroke-linejoin="round"/>
<path id="Vector_65" d="M405.942 324.909H390.379" stroke="#4A4A68" stroke-linecap="round" stroke-linejoin="round"/>
<path id="Vector_66" d="M382.592 334.98H400.45" stroke="#4A4A68" stroke-linecap="round" stroke-linejoin="round"/>
<path id="Vector_67" d="M368.857 351.456H361.994" stroke="#4A4A68" stroke-linecap="round" stroke-linejoin="round"/>
<path id="Vector_68" d="M402.733 351.456H375.73" stroke="#4A4A68" stroke-linecap="round" stroke-linejoin="round"/>
<path id="Vector_69" d="M249.202 442.191V382.458H430.951V377.145H163.591C154.242 377.145 145.276 380.858 138.664 387.468C132.052 394.077 128.336 403.043 128.333 412.392C128.333 417.021 129.245 421.606 131.017 425.883C132.789 430.16 135.386 434.046 138.66 437.319C141.935 440.592 145.822 443.188 150.099 444.959C154.377 446.729 158.961 447.64 163.591 447.639H430.951V442.191H249.202Z" fill="#4A4A68" stroke="#4A4A68" stroke-miterlimit="10"/>
<path id="Vector_70" d="M157.72 412.392C157.723 403.043 161.439 394.077 168.051 387.468C174.663 380.858 183.629 377.145 192.978 377.145H182.952C173.604 377.145 164.639 380.858 158.029 387.468C151.419 394.078 147.705 403.044 147.705 412.392C147.705 421.74 151.419 430.705 158.029 437.315C164.639 443.925 173.604 447.639 182.952 447.639H192.978C188.349 447.64 183.764 446.729 179.486 444.959C175.209 443.188 171.322 440.592 168.048 437.319C164.774 434.046 162.176 430.16 160.404 425.883C158.632 421.606 157.72 417.021 157.72 412.392Z" fill="#FAFCFE" stroke="#4A4A68" stroke-linecap="round" stroke-linejoin="round"/>
<path id="Vector_71" d="M201.322 412.392C201.325 403.044 205.04 394.081 211.649 387.472C218.258 380.862 227.222 377.148 236.569 377.145H226.543C217.195 377.145 208.23 380.858 201.62 387.468C195.01 394.078 191.296 403.044 191.296 412.392C191.296 421.74 195.01 430.705 201.62 437.315C208.23 443.925 217.195 447.639 226.543 447.639H236.569C231.94 447.639 227.357 446.727 223.081 444.956C218.804 443.184 214.919 440.588 211.646 437.315C208.373 434.042 205.776 430.156 204.005 425.88C202.234 421.604 201.322 417.02 201.322 412.392Z" fill="#FAFCFE" stroke="#4A4A68" stroke-linecap="round" stroke-linejoin="round"/>
<path id="Vector_72" d="M423.621 441.233C412.18 406.443 423.621 382.637 423.621 382.637H251.029C243.137 382.637 235.569 385.772 229.989 391.352C224.409 396.932 221.274 404.5 221.274 412.392C221.274 420.283 224.409 427.851 229.989 433.432C235.569 439.012 243.137 442.147 251.029 442.147H423.944C423.833 441.846 423.721 441.556 423.621 441.233Z" fill="#FAFCFE" stroke="#4A4A68" stroke-linecap="round" stroke-linejoin="round"/>
<path id="Vector_73" d="M223.558 400.951H276.205" stroke="#4A4A68" stroke-linecap="round" stroke-linejoin="round"/>
<path id="Vector_74" d="M221.274 412.392H243.242" stroke="#4A4A68" stroke-linecap="round" stroke-linejoin="round"/>
<path id="Vector_75" d="M225.396 426.127H298.184" stroke="#4A4A68" stroke-linecap="round" stroke-linejoin="round"/>
<path id="Vector_76" d="M253.312 397.286H293.606" stroke="#4A4A68" stroke-linecap="round" stroke-linejoin="round"/>
<path id="Vector_77" d="M247.364 412.392H256.978" stroke="#4A4A68" stroke-linecap="round" stroke-linejoin="round"/>
<path id="Vector_78" d="M305.503 426.127H312.834" stroke="#4A4A68" stroke-linecap="round" stroke-linejoin="round"/>
<path id="Vector_79" d="M419.956 395.002H404.393" stroke="#4A4A68" stroke-linecap="round" stroke-linejoin="round"/>
<path id="Vector_80" d="M396.606 405.073H414.464" stroke="#4A4A68" stroke-linecap="round" stroke-linejoin="round"/>
<path id="Vector_81" d="M382.871 421.549H376.009" stroke="#4A4A68" stroke-linecap="round" stroke-linejoin="round"/>
<path id="Vector_82" d="M416.759 421.549H389.744" stroke="#4A4A68" stroke-linecap="round" stroke-linejoin="round"/>
<path id="Vector_83" d="M247.475 252.689L246.673 253.535C243.832 256.521 234.341 266.469 233.517 267.293C232.692 268.118 229.295 270.869 229.295 270.869C229.295 270.869 219.558 278.01 220.528 279.959C221.497 281.909 246.15 299.432 263.974 303.008C281.798 306.584 323.706 305.236 331.827 301.058C339.948 296.881 350.008 283.234 354.219 275.436C358.43 267.638 349.027 261.478 343.19 259.206C337.353 256.933 322.737 249.469 320.465 247.52L247.475 252.689Z" fill="#4A4A68" stroke="#4A4A68" stroke-miterlimit="10"/>
<path id="Vector_84" d="M271.493 140.364C271.493 140.364 235.177 142.414 230.208 153.543C225.24 164.671 236.892 212.106 237.817 222.945C238.741 233.784 239.577 253.691 252.455 259.25C265.333 264.809 293.751 267.449 305.749 262.759C317.746 258.069 323.573 253.101 323.573 249.001C323.573 244.902 318.303 232.893 318.303 219.714C318.303 206.536 333.821 179.61 333.521 162.9C333.22 146.19 325.322 143.283 317.713 141.233C310.104 139.183 271.493 140.364 271.493 140.364Z" fill="#F76A81" stroke="#4A4A68" stroke-miterlimit="10"/>
<path id="Vector_85" d="M273.977 231.3C282.009 238.262 292.793 246.729 300.479 249.335" stroke="#4A4A68" stroke-linecap="round" stroke-linejoin="round"/>
<path id="Vector_86" d="M263.004 221.229C263.004 221.229 266.825 225.006 272.295 229.829" stroke="#4A4A68" stroke-linecap="round" stroke-linejoin="round"/>
<path id="Vector_87" d="M298.552 253.546C300.428 254.156 302.35 254.611 304.3 254.905" stroke="#4A4A68" stroke-linecap="round" stroke-linejoin="round"/>
<path id="Vector_88" d="M276.172 239.087C281.527 244.622 287.896 249.077 294.932 252.21" stroke="#4A4A68" stroke-linecap="round" stroke-linejoin="round"/>
<path id="Vector_89" d="M288.381 293.595C288.381 293.595 275.994 289.005 274.423 288.727C266.948 287.412 251.764 283.647 238.396 271.816C222.165 257.535 191.608 237.082 180.613 235.132C169.618 233.183 160.483 243.253 163.413 256.242C166.343 269.232 180.613 285.128 194.894 293.572C209.176 302.017 279.302 307.531 288.392 308.177C297.483 308.823 325.399 313.691 330.591 310.405C335.782 307.119 337.731 297.093 333.844 293.851C329.956 290.609 304.3 295.143 298.775 294.497C293.249 293.851 288.381 293.595 288.381 293.595Z" fill="#4A4A68" stroke="#4A4A68" stroke-miterlimit="10"/>
<path id="Vector_90" d="M298.764 294.564C295.099 294.129 291.734 293.851 289.852 293.706L287.044 308.099L288.359 308.199C297.449 308.845 325.366 313.713 330.557 310.427C335.749 307.141 337.698 297.115 333.81 293.873C329.922 290.631 304.289 295.21 298.764 294.564Z" fill="#FAFCFE" stroke="#4A4A68" stroke-miterlimit="10"/>
<path id="Vector_91" d="M241.961 292.982C241.961 292.982 282.856 277.085 304.289 267.995C325.723 258.905 348.114 245.269 364.991 245.269C381.868 245.269 373.112 266.692 368.244 275.782C363.376 284.872 342.622 290.063 327.026 293.316C311.43 296.569 270.858 301.749 248.132 305.648C225.407 309.547 210.479 306.617 201.712 305.648C192.945 304.679 187.108 304.345 185.481 298.507C183.855 292.67 191.976 286.822 200.097 285.518C208.218 284.215 218.6 290.709 223.792 292.013C228.983 293.316 241.961 292.982 241.961 292.982Z" fill="#FAFCFE" stroke="#4A4A68" stroke-miterlimit="10"/>
<path id="Vector_92" d="M364.991 245.225C348.114 245.225 325.711 258.86 304.289 267.95C283.591 276.729 244.735 291.857 242.106 292.882C241.856 295.217 242.09 297.578 242.793 299.819C243.497 302.06 244.654 304.131 246.194 305.904L248.11 305.604C270.836 301.705 311.419 296.513 327.004 293.272C342.588 290.03 363.353 284.828 368.222 275.737C373.09 266.647 381.868 245.225 364.991 245.225Z" fill="#4A4A68" stroke="#4A4A68" stroke-miterlimit="10"/>
<path id="Vector_93" d="M236.246 292.982C232.091 292.926 226.699 292.715 223.78 291.979C218.589 290.676 208.184 284.181 200.086 285.485C191.987 286.788 183.855 292.626 185.47 298.474C187.085 304.323 192.934 304.634 201.701 305.615C209.276 306.45 221.474 308.745 239.321 306.84C237.876 305.273 236.782 303.416 236.112 301.393C235.04 298.682 235.088 295.657 236.246 292.982Z" stroke="#4A4A68" stroke-linecap="round" stroke-linejoin="round"/>
<g id="Vector_94">
<path d="M238.106 147.438C238.106 147.438 228.448 146.847 224.928 162.666C221.407 178.485 224.638 222.989 227.858 233.528C231.077 244.066 233.717 251.976 238.407 258.704C243.097 265.433 259.194 281.263 259.194 281.263C259.194 281.263 263.572 288.727 264.686 290.175C265.8 291.623 267.561 294.965 269.944 297.037C271.193 298.149 272.527 299.162 273.933 300.067C273.933 300.067 278.389 302.774 279.681 301.816C280.973 300.858 278.567 299.432 278.567 299.432L273.465 290.52L275.225 290.364L281.909 298.017C281.909 298.017 283.981 300.245 284.616 299.766C284.952 299.316 285.184 298.796 285.296 298.246C285.408 297.695 285.396 297.126 285.262 296.58C284.939 295.945 278.578 286.688 278.578 286.688C278.578 286.688 282.254 290.03 284.003 291.79C285.752 293.55 287.512 294.82 287.991 294.508C288.352 294.157 288.568 293.682 288.597 293.179C288.626 292.676 288.466 292.181 288.147 291.79C287.356 290.52 277.308 277.442 277.308 277.442C277.308 277.442 283.524 276.005 284.638 275.526C285.752 275.047 288.147 273.142 287.98 272.184C287.813 271.226 286.387 271.705 285.273 272.34C283.489 273.012 281.608 273.388 279.703 273.454C278.589 273.454 273.019 273.454 270.446 274.256C269.011 274.777 267.512 275.099 265.99 275.214C265.344 275.214 252.109 246.829 251.953 246.027C251.797 245.225 245.548 212.028 243.966 206.09C242.384 200.152 239.02 179.788 239.02 179.788" fill="#F76A81"/>
<path d="M238.106 147.438C238.106 147.438 228.448 146.847 224.928 162.666C221.407 178.485 224.638 222.989 227.858 233.528C231.077 244.066 233.717 251.976 238.407 258.704C243.097 265.433 259.194 281.263 259.194 281.263C259.194 281.263 263.572 288.727 264.686 290.175C265.8 291.623 267.561 294.965 269.944 297.037C271.193 298.149 272.527 299.162 273.933 300.067C273.933 300.067 278.389 302.774 279.681 301.816C280.973 300.858 278.567 299.432 278.567 299.432L273.465 290.52L275.225 290.364L281.909 298.017C281.909 298.017 283.981 300.245 284.616 299.766C284.952 299.316 285.184 298.796 285.296 298.246C285.408 297.695 285.396 297.126 285.262 296.58C284.939 295.945 278.578 286.688 278.578 286.688C278.578 286.688 282.254 290.03 284.003 291.79C285.752 293.55 287.512 294.82 287.991 294.508C288.352 294.157 288.568 293.682 288.597 293.179C288.626 292.676 288.466 292.181 288.147 291.79C287.356 290.52 277.308 277.442 277.308 277.442C277.308 277.442 283.524 276.005 284.638 275.526C285.752 275.047 288.147 273.142 287.98 272.184C287.813 271.226 286.387 271.705 285.273 272.34C283.489 273.012 281.608 273.388 279.703 273.454C278.589 273.454 273.019 273.454 270.446 274.256C269.011 274.777 267.512 275.099 265.99 275.214C265.344 275.214 252.109 246.829 251.953 246.027C251.797 245.225 245.548 212.028 243.966 206.09C242.384 200.152 239.02 179.788 239.02 179.788" stroke="#4A4A68" stroke-miterlimit="10"/>
</g>
<path id="Vector_95" d="M284.616 299.733C284.952 299.282 285.184 298.763 285.296 298.212C285.408 297.661 285.396 297.093 285.262 296.547C284.939 295.912 278.578 286.655 278.578 286.655C278.578 286.655 282.254 289.997 284.003 291.757C285.752 293.517 287.512 294.787 287.991 294.475C288.352 294.123 288.569 293.649 288.597 293.146C288.626 292.643 288.466 292.147 288.147 291.757C287.356 290.487 277.308 277.408 277.308 277.408C277.308 277.408 283.524 275.971 284.638 275.492C285.752 275.013 288.147 273.108 287.98 272.15C287.813 271.192 286.387 271.671 285.273 272.306C283.49 272.978 281.608 273.354 279.703 273.42C278.589 273.42 273.019 273.42 270.446 274.222C269.011 274.744 267.512 275.066 265.99 275.18C265.567 275.18 259.807 263.138 255.797 254.516C250.525 256.292 245.524 258.789 240.936 261.935C247.23 269.488 259.217 281.263 259.217 281.263C259.217 281.263 263.595 288.727 264.709 290.175C265.823 291.623 267.583 294.965 269.967 297.037C271.216 298.149 272.549 299.162 273.955 300.067C273.955 300.067 278.411 302.774 279.703 301.816C280.995 300.858 278.589 299.432 278.589 299.432L273.487 290.52L275.247 290.364L281.931 298.017C281.931 298.017 283.981 300.212 284.616 299.733Z" fill="#FAFCFE" stroke="#4A4A68" stroke-miterlimit="10"/>
<path id="Vector_96" d="M275.303 300.513C275.303 300.513 270.245 295.021 268.708 291.289" stroke="#4A4A68" stroke-linecap="round" stroke-linejoin="round"/>
<path id="Vector_97" d="M266.224 109.083C272.856 109.083 278.233 103.247 278.233 96.0491C278.233 88.8507 272.856 83.0153 266.224 83.0153C259.591 83.0153 254.215 88.8507 254.215 96.0491C254.215 103.247 259.591 109.083 266.224 109.083Z" fill="#FAFCFE" stroke="#4A4A68" stroke-miterlimit="10"/>
<path id="Vector_98" d="M278.812 58.7078C278.812 58.7078 265.344 62.228 265.054 66.9068C264.765 71.5856 265.633 77.4453 265.633 80.6759C265.633 83.9065 248.066 119.321 249.235 122.25C250.405 125.18 258.604 132.21 273.832 134.85C289.061 137.49 299.599 140.119 314.538 135.139C329.477 130.16 340.595 123.13 341.185 116.391C341.775 109.651 328.597 82.1352 323.361 74.8162C318.125 67.4973 317.791 65.4475 309.893 61.6376C301.994 57.8277 290.231 53.7282 278.812 58.7078Z" fill="#4A4A68" stroke="#4A4A68" stroke-miterlimit="10"/>
<path id="Vector_99" d="M269.154 123.42V140.698C269.154 140.698 263.873 148.318 267.104 156.807C270.334 165.295 279.692 166.766 284.928 160.026C290.164 153.286 293.127 140.698 293.127 140.698L293.417 118.418L269.154 123.42Z" fill="#FAFCFE" stroke="#4A4A68" stroke-miterlimit="10"/>
<path id="Vector_100" d="M287.791 120.412L269.454 132.443L269.154 123.42L287.791 120.412Z" fill="#4A4A68" stroke="#4A4A68" stroke-miterlimit="10"/>
<path id="Vector_101" d="M268.563 74.5266C268.563 74.5266 257.145 101.463 258.314 105.273C259.484 109.083 261.534 123.721 265.633 125.18C269.733 126.64 291.991 121.961 294.597 119.911C297.204 117.861 303.676 106.142 304.267 103.201C304.857 100.26 298.14 72.1761 296.97 71.296C295.8 70.4159 272.663 71.296 268.563 74.5266Z" fill="#FAFCFE" stroke="#4A4A68" stroke-miterlimit="10"/>
<path id="Vector_102" d="M275.592 95.3138C275.592 95.3138 269.443 101.998 268.273 103.223C267.104 104.449 267.973 107.612 270.323 107.612C271.695 107.616 273.065 107.52 274.423 107.323" stroke="#4A4A68" stroke-linecap="round" stroke-linejoin="round"/>
<path id="Vector_103" d="M264.753 106.732C264.753 106.732 267.104 111.422 270.903 112.592C274.701 113.762 279.692 112.002 279.692 112.002" stroke="#4A4A68" stroke-linecap="round" stroke-linejoin="round"/>
<path id="Vector_104" d="M284.672 97.3636C284.672 97.3636 285.786 101.753 291.701 100.583" stroke="#4A4A68" stroke-linecap="round" stroke-linejoin="round"/>
<path id="Vector_105" d="M267.36 89.7438C267.568 90.4408 267.934 91.0802 268.43 91.612C268.926 92.1439 269.538 92.5537 270.219 92.8094C270.9 93.0651 271.631 93.1597 272.354 93.0859C273.078 93.0122 273.774 92.7719 274.389 92.384" stroke="#4A4A68" stroke-linecap="round" stroke-linejoin="round"/>
<path id="Vector_106" d="M288.771 90.6239C288.771 90.6239 294.341 91.504 295.801 98.5333" stroke="#4A4A68" stroke-linecap="round" stroke-linejoin="round"/>
<path id="Vector_107" d="M277.932 86.2348C276.698 84.9841 275.109 84.144 273.381 83.8291C271.652 83.5141 269.869 83.7395 268.273 84.4746" stroke="#4A4A68" stroke-linecap="round" stroke-linejoin="round"/>
<path id="Vector_108" d="M314.538 100.873C314.538 100.873 316.877 75.1059 309.848 61.6376C312.087 62.2807 314.162 63.3986 315.931 64.9153C317.699 66.432 319.12 68.3119 320.097 70.4271C320.097 70.4271 323.316 91.504 318.348 104.961L314.538 100.873Z" fill="#FAFCFE" stroke="#4A4A68" stroke-miterlimit="10"/>
<path id="Vector_109" d="M311.018 124.3C317.65 124.3 323.027 118.465 323.027 111.266C323.027 104.068 317.65 98.2325 311.018 98.2325C304.385 98.2325 299.009 104.068 299.009 111.266C299.009 118.465 304.385 124.3 311.018 124.3Z" fill="#FAFCFE" stroke="#4A4A68" stroke-miterlimit="10"/>
<path id="Vector_110" d="M314.538 121.047C319.066 121.047 322.737 117.062 322.737 112.146C322.737 107.231 319.066 103.246 314.538 103.246C310.01 103.246 306.339 107.231 306.339 112.146C306.339 117.062 310.01 121.047 314.538 121.047Z" fill="#FAFCFE" stroke="#4A4A68" stroke-miterlimit="10"/>
<g id="Vector_111">
<path d="M319.517 141.868C322.979 142.291 326.258 143.658 328.994 145.819C331.731 147.981 333.821 150.853 335.036 154.122C338.545 163.502 337.375 174.92 331.515 193.112C325.656 211.304 315.117 226.532 311.608 227.646C308.099 228.76 296.669 190.171 296.38 189.291C296.09 188.411 285.24 140.676 285.841 137.167C286.443 133.658 302.239 130.717 302.239 130.717L308.389 122.228C308.389 122.228 309.848 120.769 309.269 123.699C308.565 126.239 307.582 128.693 306.339 131.018C306.339 131.018 312.778 122.852 313.658 121.938C314.421 121.335 315.333 120.95 316.298 120.824C316.301 121.21 316.389 121.59 316.554 121.938C316.844 122.663 315.864 123.999 315.864 123.999C315.864 123.999 319.206 120.067 319.941 120.501C320.676 120.936 320.955 122.239 320.955 123.398C320.955 124.556 315.797 132.967 314.538 135.206C313.279 137.445 294.174 144.82 294.174 144.82L313.658 184.111L314.828 171.511" fill="#F76A81"/>
<path d="M319.517 141.868C322.979 142.291 326.258 143.658 328.994 145.819C331.731 147.981 333.821 150.853 335.036 154.122C338.545 163.502 337.375 174.92 331.515 193.112C325.656 211.304 315.117 226.532 311.608 227.646C308.099 228.76 296.669 190.171 296.38 189.291C296.09 188.411 285.24 140.676 285.841 137.167C286.443 133.658 302.239 130.717 302.239 130.717L308.389 122.228C308.389 122.228 309.848 120.769 309.269 123.699C308.565 126.239 307.582 128.693 306.339 131.018C306.339 131.018 312.778 122.852 313.658 121.938C314.421 121.335 315.333 120.95 316.298 120.824C316.301 121.21 316.389 121.59 316.554 121.938C316.844 122.663 315.864 123.999 315.864 123.999C315.864 123.999 319.206 120.067 319.941 120.501C320.676 120.936 320.955 122.239 320.955 123.398C320.955 124.556 315.797 132.967 314.538 135.206C313.279 137.445 294.174 144.82 294.174 144.82L313.658 184.111L314.828 171.511" stroke="#4A4A68" stroke-miterlimit="10"/>
</g>
<path id="Vector_112" d="M310.115 176.892L294.174 144.753C294.174 144.753 313.279 137.378 314.538 135.139C315.797 132.9 320.955 124.489 320.955 123.331C320.955 122.172 320.665 120.869 319.941 120.435C319.217 120 315.864 123.932 315.864 123.932C315.864 123.932 316.844 122.596 316.554 121.872C316.389 121.523 316.302 121.143 316.298 120.758C315.333 120.883 314.421 121.268 313.658 121.872C312.778 122.785 306.339 130.951 306.339 130.951C307.583 128.627 308.565 126.172 309.269 123.632C309.848 120.702 308.389 122.161 308.389 122.161L302.239 130.65C302.239 130.65 286.421 133.58 285.841 137.1C285.373 139.874 292.013 170.13 294.987 183.242L310.115 176.892Z" fill="#FAFCFE" stroke="#4A4A68" stroke-miterlimit="10"/>
<path id="Vector_113" d="M315.864 123.932C315.864 123.932 310.193 133.725 309.848 134.237" stroke="#4A4A68" stroke-linecap="round" stroke-linejoin="round"/>
<path id="Vector_114" d="M320.676 122.729L313.112 134.237" stroke="#4A4A68" stroke-linecap="round" stroke-linejoin="round"/>
<path id="Vector_115" d="M306.339 131.04L304.523 132.521" stroke="#4A4A68" stroke-linecap="round" stroke-linejoin="round"/>
<path id="Vector_116" d="M330.68 338.723H323.283" stroke="#4A4A68" stroke-width="4" stroke-linecap="round" stroke-linejoin="round"/>
<path id="Vector_117" d="M308.389 127.386V388.507C308.389 392.218 309.863 395.777 312.487 398.401C315.111 401.025 318.67 402.499 322.381 402.499C324.223 402.507 326.048 402.15 327.752 401.45C329.456 400.75 331.005 399.721 332.31 398.421C333.615 397.121 334.651 395.576 335.358 393.875C336.064 392.174 336.428 390.35 336.428 388.507V341.185C336.43 340.862 336.367 340.542 336.245 340.243C336.122 339.945 335.942 339.673 335.714 339.445C335.486 339.216 335.216 339.034 334.918 338.91C334.62 338.787 334.3 338.723 333.977 338.723H330.736" stroke="#4A4A68" stroke-linecap="round" stroke-linejoin="round"/>
</g>
<g id="freepik--Floor--inject-39">
<path id="Vector_118" d="M49.9741 517.197H530.587" stroke="#4A4A68" stroke-linecap="round" stroke-linejoin="round"/>
<path id="Vector_119" d="M13.5463 517.197H42.2318" stroke="#4A4A68" stroke-linecap="round" stroke-linejoin="round"/>
</g>
</g>
</svg>
