<svg width="500" height="500" viewBox="0 0 557 500" fill="none" xmlns="http://www.w3.org/2000/svg">
<g id="Video tutorial-amico 1">
<g id="freepik--Floor--inject-94">
<path id="freepik--floor--inject-94" d="M279.213 489.54C427.062 489.54 546.918 433.862 546.918 365.18C546.918 296.498 427.062 240.82 279.213 240.82C131.363 240.82 11.5076 296.498 11.5076 365.18C11.5076 433.862 131.363 489.54 279.213 489.54Z" fill="#F5F5F5"/>
</g>
<g id="freepik--Clouds--inject-94">
<g id="freepik--clouds--inject-94">
<path id="Vector" d="M98.4664 56.58L88.2399 61.88C88.2399 61.47 88.329 61.06 88.329 60.66V58C88.329 53.26 84.6194 51.35 80.0632 53.71C78.0945 54.8058 76.4114 56.2689 75.1281 58C74.3818 52.05 69.1794 49.84 62.8741 53.11C56.0453 56.65 50.5087 65.26 50.5087 72.34V76.34C50.4581 77.9285 50.8165 79.5061 51.5559 80.95L43.0561 85.35C41.7238 86.1332 40.6153 87.1865 39.8199 88.425C39.0246 89.6636 38.5648 91.0526 38.4775 92.48C38.4775 95.11 40.5273 96.17 43.0561 94.86L98.4664 66.09C99.7929 65.3108 100.898 64.2638 101.693 63.0326C102.488 61.8015 102.951 60.4205 103.045 59C103.045 56.33 100.995 55.27 98.4664 56.58Z" fill="#EBEBEB"/>
<path id="Vector_2" d="M147.661 76.46L139.941 80.46C139.985 80.1583 140.007 79.8543 140.008 79.55V77.55C140.008 73.98 137.211 72.55 133.769 74.32C132.287 75.1388 131.019 76.2335 130.048 77.53C129.491 73.04 125.592 71.36 120.802 73.83C115.644 76.5 111.467 83 111.467 88.34V91.34C111.429 92.5391 111.7 93.7299 112.258 94.82L105.83 98.13C104.824 98.7204 103.988 99.5151 103.388 100.45C102.788 101.384 102.441 102.433 102.377 103.51C102.377 105.51 103.925 106.3 105.83 105.31L147.65 83.64C148.656 83.0495 149.494 82.255 150.096 81.3205C150.698 80.386 151.046 79.3377 151.114 78.26C151.125 76.28 149.566 75.47 147.661 76.46Z" fill="#EBEBEB"/>
</g>
</g>
<g id="freepik--Shadows--inject-94">
<path id="freepik--Shadow--inject-94" d="M442.904 355.18C475.1 355.18 501.2 341.65 501.2 324.96C501.2 308.27 475.1 294.74 442.904 294.74C410.708 294.74 384.609 308.27 384.609 324.96C384.609 341.65 410.708 355.18 442.904 355.18Z" fill="#6AC8F7"/>
<path id="freepik--shadow--inject-94" d="M402.432 460.19C400.145 460.178 397.87 459.885 395.67 459.32C388.986 457.65 386.97 454.53 386.402 452.21C385.5 448.45 388.017 444.56 390.858 442.37C391.894 441.59 393.086 440.77 394.311 439.92C397.52 437.7 401.508 434.92 402.432 432.81L406.888 422.43L403.491 420.67L404.226 419.14L400.683 419.82L399.09 417.91C395.57 419.43 386.914 423.2 375.307 428.41C372.633 429.61 370.383 430.65 368.411 431.56C361.894 434.56 358.296 436.24 352.815 437.41C350.803 437.856 348.738 438.088 346.666 438.1C342.399 438.1 339.057 437.01 337.007 434.95C336.098 433.984 335.435 432.852 335.064 431.633C334.692 430.414 334.622 429.136 334.857 427.89C336.071 418.11 357.315 409.58 368.344 408.69C371.965 408.39 375.385 408.25 379.083 408.25C380.877 408.25 382.492 408.25 383.94 408.32C385.054 408.32 386.168 408.32 387.115 408.32C388.062 408.32 388.975 408.32 389.777 408.23C393.955 407.89 406.944 405.73 407.078 405.71L408.493 405.48L409.362 406.48L412.603 405.92C416.892 403.19 449.711 382.31 457.453 377.53C462.288 374.53 470.943 369.83 473.572 369.83H474.987L475.856 371.01L476.525 372.13L475.633 373.45C475.444 373.73 469.919 381.45 463.246 386.2C460.483 388.2 452.507 394.25 444.575 400.35L504.642 390L502.013 394C501.289 395.13 497.39 398.32 477.171 403.69C464.995 406.91 442.759 411.54 426.016 414.89L423.32 417C423.131 419.68 422.529 427.83 422.128 432.1C422.116 433.83 422.41 435.552 422.997 437.2C424.022 440.79 425.281 445.27 421.994 449.85C419.187 453.72 412.949 460.19 402.432 460.19ZM406.666 444.68C405.215 444.648 403.772 444.876 402.422 445.352C401.071 445.828 399.84 446.541 398.801 447.45C398.495 447.715 398.263 448.039 398.122 448.399C397.98 448.758 397.934 449.142 397.988 449.52C398.242 449.977 398.612 450.375 399.069 450.681C399.526 450.986 400.056 451.192 400.617 451.28C401.48 451.494 402.372 451.599 403.268 451.59C404.72 451.621 406.164 451.392 407.517 450.917C408.869 450.441 410.102 449.728 411.144 448.82C411.451 448.557 411.684 448.232 411.824 447.872C411.963 447.512 412.005 447.127 411.946 446.75C411.694 446.292 411.324 445.894 410.867 445.59C410.41 445.286 409.878 445.084 409.317 445C408.454 444.781 407.562 444.674 406.666 444.68ZM375.942 416.08C371.541 416.139 367.177 416.814 363.008 418.08C351.489 421.48 347.869 425.71 346.744 427.93C346.599 428.21 346.287 428.93 346.554 429.28C346.802 429.505 347.103 429.676 347.435 429.782C347.766 429.887 348.12 429.924 348.47 429.89C348.846 429.889 349.221 429.845 349.584 429.76C351.731 429.234 353.754 428.363 355.555 427.19C357.889 425.834 360.306 424.599 362.796 423.49C368.803 420.837 375.017 418.581 381.389 416.74L381.59 416.67C379.745 416.248 377.845 416.05 375.942 416.08Z" fill="#6AC8F7"/>
<path id="freepik--shadow--inject-94_2" d="M196.899 455.26C191.14 457.9 205.7 467.1 212.896 463.55L339.993 396.77L355.132 382.43C355.281 382.284 355.373 382.098 355.394 381.901C355.415 381.704 355.363 381.506 355.247 381.337C355.131 381.169 354.957 381.039 354.751 380.967C354.546 380.895 354.319 380.886 354.107 380.94L324.898 388.94L196.899 455.26Z" fill="#6AC8F7"/>
<path id="freepik--shadow--inject-94_3" d="M88.5519 434.39L39.8255 409.13C37.0739 407.71 37.0739 405.4 39.8255 403.98L312.488 262.83C314.03 262.13 315.734 261.765 317.462 261.765C319.19 261.765 320.894 262.13 322.436 262.83L371.174 288.09C373.914 289.51 373.914 291.82 371.174 293.24L98.4999 434.39C96.9579 435.09 95.254 435.455 93.5259 435.455C91.7978 435.455 90.0939 435.09 88.5519 434.39Z" fill="#6AC8F7"/>
</g>
<g id="freepik--Table--inject-94">
<g id="freepik--table--inject-94">
<g id="freepik--table--inject-94_2">
<path id="Vector_3" d="M402.21 299.18C402.234 298.932 402.331 298.695 402.492 298.493C402.652 298.291 402.87 298.131 403.123 298.03C403.805 297.719 404.559 297.557 405.323 297.557C406.088 297.557 406.842 297.719 407.523 298.03C407.775 298.133 407.992 298.293 408.152 298.495C408.313 298.697 408.411 298.933 408.437 299.18L402.756 325.33C402.732 325.5 402.661 325.663 402.548 325.801C402.435 325.939 402.284 326.049 402.109 326.12C401.629 326.342 401.096 326.458 400.555 326.458C400.015 326.458 399.482 326.342 399.001 326.12C398.827 326.049 398.676 325.939 398.563 325.801C398.45 325.663 398.378 325.5 398.355 325.33L402.21 299.18Z" fill="#4A4A68"/>
<path id="Vector_4" d="M482.83 299.18C482.806 298.934 482.71 298.698 482.551 298.496C482.393 298.294 482.177 298.133 481.927 298.03C481.238 297.712 480.474 297.547 479.699 297.547C478.925 297.547 478.161 297.712 477.471 298.03C477.221 298.133 477.006 298.294 476.848 298.496C476.689 298.698 476.593 298.934 476.569 299.18L482.239 325.33C482.261 325.499 482.331 325.661 482.442 325.799C482.554 325.937 482.702 326.048 482.874 326.12C483.357 326.342 483.892 326.458 484.434 326.458C484.976 326.458 485.511 326.342 485.994 326.12C486.166 326.048 486.314 325.937 486.425 325.799C486.537 325.661 486.606 325.499 486.629 325.33L482.83 299.18Z" fill="#4A4A68"/>
<path id="Vector_5" d="M446.012 303.05C445.987 302.804 445.89 302.568 445.729 302.368C445.568 302.167 445.351 302.009 445.099 301.91C444.417 301.599 443.663 301.437 442.899 301.437C442.134 301.437 441.38 301.599 440.698 301.91C440.448 302.011 440.231 302.17 440.071 302.37C439.911 302.57 439.812 302.805 439.785 303.05L440.698 340.35C440.722 340.52 440.793 340.683 440.906 340.821C441.019 340.959 441.17 341.069 441.345 341.14C441.827 341.357 442.359 341.47 442.899 341.47C443.438 341.47 443.97 341.357 444.453 341.14C444.627 341.069 444.778 340.959 444.891 340.821C445.004 340.683 445.076 340.52 445.099 340.35L446.012 303.05Z" fill="#4A4A68"/>
<path id="Vector_6" d="M498.693 279.25H498.638C498.638 271.85 493.246 264.45 482.351 258.81C460.561 247.52 425.236 247.52 403.457 258.81C392.562 264.45 387.16 271.81 387.16 279.25V283.25C387.282 290.55 392.73 297.83 403.502 303.4C425.281 314.69 460.606 314.69 482.395 303.4C493.146 297.83 498.604 290.55 498.738 283.25L498.693 279.25Z" fill="#6AC8F7"/>
<path id="Vector_7" d="M403.446 258.81C381.668 270.1 381.668 288.41 403.446 299.7C425.225 310.99 460.55 310.99 482.34 299.7C504.13 288.41 504.13 270.1 482.34 258.81C460.55 247.52 425.236 247.52 403.446 258.81Z" fill="#6AC8F7"/>
<path id="Vector_8" opacity="0.45" d="M403.446 258.81C381.668 270.1 381.668 288.41 403.446 299.7C425.225 310.99 460.55 310.99 482.34 299.7C504.13 288.41 504.13 270.1 482.34 258.81C460.55 247.52 425.236 247.52 403.446 258.81Z" fill="white"/>
</g>
<g id="freepik--Pot--inject-94">
<g id="Group" opacity="0.05">
<path id="Vector_9" d="M455.125 274.42C462.076 278.02 462.076 283.86 455.125 287.42C448.173 290.98 436.9 291.02 429.959 287.42C423.019 283.82 423.008 277.98 429.959 274.42C436.911 270.86 448.173 270.81 455.125 274.42Z" fill="black"/>
</g>
<path id="Vector_10" d="M431.474 281.74C425.414 276.2 421.861 262.36 427.765 257.96H457.843C463.747 262.36 460.193 276.19 454.144 281.74L453.988 281.89L453.777 282.07C453.599 282.22 453.42 282.37 453.231 282.51L453.086 282.61L452.629 282.92C452.378 283.086 452.113 283.237 451.838 283.37C446.87 285.95 438.793 285.95 433.814 283.37C433.547 283.24 433.29 283.08 433.023 282.92L432.6 282.63L432.421 282.5C432.234 282.373 432.059 282.233 431.898 282.08L431.653 281.87C431.587 281.834 431.527 281.791 431.474 281.74Z" fill="#EBEBEB"/>
<path id="Vector_11" d="M455.192 256.19C462.043 259.74 462.043 265.5 455.192 269.05C448.34 272.6 437.234 272.6 430.372 269.05C423.509 265.5 423.521 259.74 430.372 256.19C437.223 252.64 448.34 252.64 455.192 256.19Z" fill="#FAFAFA"/>
<path id="Vector_12" d="M450.334 258.71C454.501 260.87 454.501 264.37 450.334 266.53C447.995 267.593 445.409 268.147 442.787 268.147C440.165 268.147 437.579 267.593 435.24 266.53C431.062 264.37 431.062 260.87 435.24 258.71C437.579 257.647 440.165 257.093 442.787 257.093C445.409 257.093 447.995 257.647 450.334 258.71Z" fill="#EBEBEB"/>
<path id="Vector_13" d="M435.24 262.42C437.579 261.357 440.165 260.803 442.787 260.803C445.409 260.803 447.995 261.357 450.334 262.42C451.344 262.91 452.202 263.618 452.83 264.48C452.194 265.321 451.337 266.008 450.334 266.48C447.995 267.543 445.409 268.097 442.787 268.097C440.165 268.097 437.579 267.543 435.24 266.48C434.237 266.005 433.376 265.319 432.733 264.48C433.369 263.62 434.229 262.913 435.24 262.42Z" fill="#6AC8F7"/>
<path id="Vector_14" d="M449.41 264.48C451.545 262.533 453.385 260.34 454.88 257.96C457.397 253.96 457.865 248.59 456.562 247.96C455.258 247.33 449.945 252.65 449.945 252.65C450.437 250.398 450.628 248.102 450.513 245.81C450.29 242.25 449.321 239.01 448.185 238.36C447.048 237.71 444.497 242.2 443.405 245.46C442.314 248.72 441.656 251.4 441.656 251.4C441.224 248.858 440.573 246.351 439.707 243.9C438.381 240.51 437.178 239.75 436.254 240.08C435.329 240.41 434.705 242 434.427 246.5C434.329 248.656 434.408 250.815 434.661 252.96C434.661 252.96 432.789 251.11 430.706 249.32C428.422 247.32 427.453 247.08 426.796 247.45C426.138 247.82 425.96 250.89 429.503 256.63C431.26 259.553 433.515 262.212 436.187 264.51C436.187 264.51 441.055 267.31 449.41 264.48Z" fill="#6AC8F7"/>
<path id="Vector_15" opacity="0.3" d="M449.41 264.48C451.545 262.533 453.385 260.34 454.88 257.96C457.397 253.96 457.865 248.59 456.562 247.96C455.258 247.33 449.945 252.65 449.945 252.65C450.437 250.398 450.628 248.102 450.513 245.81C450.29 242.25 449.321 239.01 448.185 238.36C447.048 237.71 444.497 242.2 443.405 245.46C442.314 248.72 441.656 251.4 441.656 251.4C441.224 248.858 440.573 246.351 439.707 243.9C438.381 240.51 437.178 239.75 436.254 240.08C435.329 240.41 434.705 242 434.427 246.5C434.329 248.656 434.408 250.815 434.661 252.96C434.661 252.96 432.789 251.11 430.706 249.32C428.422 247.32 427.453 247.08 426.796 247.45C426.138 247.82 425.96 250.89 429.503 256.63C431.26 259.553 433.515 262.212 436.187 264.51C436.187 264.51 441.055 267.31 449.41 264.48Z" fill="black"/>
</g>
</g>
</g>
<g id="freepik--Device--inject-94">
<g id="freepik--device--inject-94">
<path id="Vector_16" d="M252.934 395.14L294.82 373.39C299.142 371.16 301.304 368.22 301.304 365.29C301.304 362.36 301.304 360.06 301.304 360.06L257.858 338.06C256.642 337.349 255.631 336.391 254.905 335.263C254.179 334.135 253.76 332.87 253.68 331.57V285.21L180.513 323.21V369.58C180.589 370.878 181.006 372.142 181.73 373.268C182.454 374.394 183.465 375.351 184.679 376.06L221.686 395.14C230.297 399.61 244.3 399.61 252.934 395.14Z" fill="#6AC8F7"/>
<g id="Group_2" opacity="0.6">
<path id="Vector_17" d="M252.934 395.14L294.82 373.39C299.142 371.16 301.304 368.22 301.304 365.29C301.304 362.36 301.304 360.06 301.304 360.06L257.858 338.06C256.642 337.349 255.631 336.391 254.905 335.263C254.179 334.135 253.76 332.87 253.68 331.57V285.21L180.513 323.21V369.58C180.589 370.878 181.006 372.142 181.73 373.268C182.454 374.394 183.465 375.351 184.679 376.06L221.686 395.14C230.297 399.61 244.3 399.61 252.934 395.14Z" fill="black"/>
</g>
<path id="Vector_18" opacity="0.3" d="M198.08 377.74V383L184.712 376.06C183.501 375.348 182.493 374.391 181.77 373.265C181.046 372.14 180.627 370.877 180.546 369.58V323.17L194.449 316C194.727 319.17 195.05 322.46 195.34 325.66L185.559 330.74V366.96C185.63 368.26 186.045 369.525 186.77 370.652C187.494 371.779 188.507 372.735 189.725 373.44L198.08 377.74Z" fill="black"/>
<path id="Vector_19" d="M185.559 366.92C185.635 368.218 186.053 369.482 186.777 370.608C187.501 371.734 188.511 372.691 189.725 373.4L221.686 389.91C230.319 394.38 244.322 394.39 252.967 389.91L294.876 368.17C303.509 363.7 303.509 356.44 294.876 351.96L262.904 335.45C261.69 334.738 260.68 333.78 259.956 332.652C259.233 331.524 258.815 330.26 258.738 328.96V292.73L185.57 330.73L185.559 366.92Z" fill="#6AC8F7"/>
<path id="Vector_20" opacity="0.3" d="M185.559 366.92C185.635 368.218 186.053 369.482 186.777 370.608C187.501 371.734 188.511 372.691 189.725 373.4L221.686 389.91C230.319 394.38 244.322 394.39 252.967 389.91L294.876 368.17C303.509 363.7 303.509 356.44 294.876 351.96L262.904 335.45C261.69 334.738 260.68 333.78 259.956 332.652C259.233 331.524 258.815 330.26 258.738 328.96V292.73L185.57 330.73L185.559 366.92Z" fill="black"/>
<path id="Vector_21" opacity="0.5" d="M271.393 339.85L262.904 335.45C261.69 334.738 260.68 333.78 259.956 332.652C259.233 331.524 258.815 330.26 258.738 328.96V292.73L185.57 330.73V366.96C185.647 368.258 186.064 369.522 186.788 370.648C187.512 371.774 188.522 372.731 189.736 373.44L198.091 377.77L271.393 339.85Z" fill="black"/>
<path id="Vector_22" d="M301.315 360.06V365.29C301.315 368.23 299.087 371.15 294.831 373.4L252.934 395.13C248.343 397.334 243.213 398.479 238.006 398.46V393.25C243.213 393.269 248.343 392.124 252.934 389.92L294.831 368.17C299.142 365.94 301.315 363 301.315 360.06Z" fill="#6AC8F7"/>
<path id="Vector_23" opacity="0.5" d="M301.315 360.06V365.29C301.315 368.23 299.087 371.15 294.831 373.4L252.934 395.13C248.343 397.334 243.213 398.479 238.006 398.46V393.25C243.213 393.269 248.343 392.124 252.934 389.92L294.831 368.17C299.142 365.94 301.315 363 301.315 360.06Z" fill="black"/>
<path id="Vector_24" d="M68.0654 412C69.6452 412.689 71.3841 413.032 73.1401 413.003C74.896 412.973 76.6193 412.571 78.1693 411.83L361.125 265.17C362.64 264.282 363.901 263.085 364.805 261.678C365.708 260.271 366.23 258.692 366.328 257.07V25.72C366.268 24.1441 365.793 22.6034 364.943 21.2235C364.093 19.8436 362.892 18.6636 361.437 17.78C359.859 17.093 358.122 16.7503 356.368 16.7799C354.614 16.8094 352.893 17.2103 351.344 17.95L68.3996 164.61C66.8813 165.496 65.6176 166.692 64.7116 168.099C63.8057 169.507 63.2829 171.087 63.186 172.71V404C63.2344 405.585 63.7021 407.137 64.5505 408.528C65.3989 409.919 66.6037 411.109 68.0654 412Z" fill="#6AC8F7"/>
<path id="Vector_25" d="M78.1693 411.78L361.125 265.12C362.643 264.231 363.906 263.034 364.812 261.624C365.718 260.215 366.241 258.635 366.339 257.01V25.71C366.339 22.71 363.999 21.52 361.125 23.01L78.1693 169.67C76.651 170.556 75.3874 171.752 74.4814 173.159C73.5754 174.567 73.0527 176.147 72.9558 177.77V409.07C72.9558 412.06 75.2952 413.27 78.1693 411.78Z" fill="#6AC8F7"/>
<path id="Vector_26" opacity="0.5" d="M78.1693 411.78L361.125 265.12C362.643 264.231 363.906 263.034 364.812 261.624C365.718 260.215 366.241 258.635 366.339 257.01V25.71C366.339 22.71 363.999 21.52 361.125 23.01L78.1693 169.67C76.651 170.556 75.3874 171.752 74.4814 173.159C73.5754 174.567 73.0527 176.147 72.9558 177.77V409.07C72.9558 412.06 75.2952 413.27 78.1693 411.78Z" fill="black"/>
<path id="Vector_27" d="M77.4007 417.12C75.9212 417.692 74.3219 417.972 72.7112 417.941C71.1006 417.91 69.5162 417.569 68.0654 416.94C66.6106 416.056 65.4092 414.876 64.5593 413.497C63.7094 412.117 63.235 410.576 63.1749 409V390.28L72.9558 395.36V414.07C72.9558 416.79 74.8831 418 77.4007 417.12Z" fill="#6AC8F7"/>
<path id="Vector_28" opacity="0.5" d="M77.4007 417.12C75.9212 417.692 74.3219 417.972 72.7112 417.941C71.1006 417.91 69.5162 417.569 68.0654 416.94C66.6106 416.056 65.4092 414.876 64.5593 413.497C63.7094 412.117 63.235 410.576 63.1749 409V390.28L72.9558 395.36V414.07C72.9558 416.79 74.8831 418 77.4007 417.12Z" fill="black"/>
<path id="Vector_29" d="M72.9558 395.36V414.06C72.9558 417.06 75.2952 418.26 78.1693 416.76L361.125 270.11C362.643 269.221 363.906 268.024 364.812 266.615C365.718 265.205 366.241 263.625 366.339 262V243.26L72.9558 395.36Z" fill="#6AC8F7"/>
<path id="Vector_30" opacity="0.3" d="M72.9558 395.32V414.06C72.9558 417.06 75.2952 418.26 78.1693 416.76L361.125 270.11C362.643 269.221 363.906 268.024 364.812 266.615C365.718 265.205 366.241 263.625 366.339 262V243.26L72.9558 395.32Z" fill="black"/>
<path id="Vector_31" d="M82.7368 371.88V180.69C82.7968 179.715 83.1114 178.766 83.6552 177.92C84.1989 177.074 84.9567 176.355 85.8672 175.82L353.45 37.14C355.177 36.25 356.58 36.97 356.58 38.76V230C356.52 230.974 356.206 231.921 355.662 232.766C355.118 233.61 354.36 234.327 353.45 234.86L85.8672 373.51C84.1405 374.4 82.7368 373.67 82.7368 371.88Z" fill="#6AC8F7"/>
<path id="Vector_32" d="M82.7368 371.88V180.69C82.7968 179.715 83.1114 178.766 83.6552 177.92C84.1989 177.074 84.9567 176.355 85.8672 175.82L353.45 37.14C355.177 36.25 356.58 36.97 356.58 38.76V230C356.52 230.974 356.206 231.921 355.662 232.766C355.118 233.61 354.36 234.327 353.45 234.86L85.8672 373.51C84.1405 374.4 82.7368 373.67 82.7368 371.88Z" fill="#263238"/>
<path id="Vector_33" opacity="0.7" d="M74.4932 173.14C73.5669 174.547 73.039 176.137 72.9558 177.77V395.36L63.1749 390.28V172.71C63.2422 171.079 63.7671 169.49 64.7011 168.09L74.4932 173.14Z" fill="black"/>
<path id="Vector_34" opacity="0.3" d="M366.317 24.94C365.949 22.53 363.777 21.66 361.148 23.01L78.1917 169.67C76.6508 170.527 75.3811 171.726 74.5043 173.15L64.7234 168.08C65.6065 166.66 66.8749 165.463 68.4107 164.6L351.378 18C352.928 17.2587 354.651 16.8569 356.407 16.8273C358.163 16.7978 359.902 17.1414 361.482 17.83C362.805 18.6383 363.92 19.6907 364.754 20.9167C365.587 22.1428 366.12 23.5144 366.317 24.94Z" fill="black"/>
</g>
</g>
<g id="freepik--Window--inject-94">
<g id="freepik--window--inject-94">
<path id="Vector_35" d="M109.617 390.08C108.997 390.408 108.298 390.597 107.579 390.63C106.554 390.75 105.512 390.586 104.593 390.16C103.865 389.714 103.264 389.118 102.842 388.423C102.42 387.727 102.188 386.952 102.165 386.16V207.56L107.055 210.09V388.73C107.055 389.79 107.646 390.4 108.492 390.4C108.889 390.371 109.274 390.262 109.617 390.08Z" fill="#F0F0F0"/>
<path id="Vector_36" d="M378.571 248C378.517 248.803 378.254 249.582 377.803 250.277C377.352 250.972 376.726 251.562 375.975 252L109.618 390.08C108.192 390.82 107.033 390.22 107.033 388.73V195L114.174 191.3C115.6 190.56 117.928 179.3 119.365 178.51L181.303 146.41C182.741 145.67 186.116 154.02 187.542 153.27L378.571 54.27V248Z" fill="#FAFAFA"/>
<path id="Vector_37" d="M377.367 56.1V248C377.318 248.618 377.113 249.219 376.767 249.756C376.422 250.293 375.945 250.752 375.373 251.1L109.016 389.15C108.851 389.244 108.664 389.302 108.47 389.32C108.225 389.32 108.225 388.76 108.225 388.73V195.61L114.775 192.21C115.811 191.67 116.458 189.86 117.917 185.21C118.438 183.217 119.153 181.27 120.056 179.39L181.437 147.58C182.165 148.464 182.817 149.397 183.387 150.37C185.058 153.01 185.993 154.37 187.352 154.37C187.632 154.37 187.905 154.301 188.143 154.17L377.367 56.1ZM378.571 54.24L187.542 153.24C187.485 153.271 187.419 153.289 187.352 153.29C185.904 153.29 182.896 146.29 181.493 146.29C181.431 146.275 181.366 146.275 181.303 146.29L119.365 178.39C117.928 179.14 115.6 190.39 114.174 191.18L107.033 195V388.73C107.033 389.79 107.612 390.4 108.47 390.4C108.867 390.384 109.251 390.274 109.584 390.08L375.975 252C376.726 251.562 377.352 250.972 377.803 250.277C378.254 249.582 378.517 248.803 378.571 248V54.24Z" fill="#6AC8F7"/>
<path id="Vector_38" d="M104.593 202.15C103.863 201.705 103.26 201.11 102.836 200.414C102.412 199.719 102.178 198.943 102.154 198.15V180C102.205 179.2 102.463 178.422 102.908 177.728C103.353 177.034 103.972 176.442 104.716 176L371.073 38C371.823 37.5736 372.688 37.3397 373.575 37.3236C374.462 37.3074 375.337 37.5098 376.105 37.9086C376.874 38.3075 377.505 38.8876 377.932 39.5859C378.359 40.2843 378.564 41.0742 378.526 41.87V60C378.474 60.8029 378.211 61.5834 377.76 62.2784C377.31 62.9733 376.683 63.5631 375.93 64L109.617 202.07C108.846 202.436 107.989 202.634 107.116 202.647C106.243 202.661 105.379 202.491 104.593 202.15Z" fill="#6AC8F7"/>
<path id="Vector_39" opacity="0.4" d="M378.537 41.41C378.359 40.2 377.267 39.76 375.975 40.41L109.618 178.49C108.857 178.933 108.227 179.533 107.779 180.24L102.911 177.71C103.348 177.016 103.967 176.429 104.716 176L371.073 38C371.791 37.5894 372.616 37.356 373.466 37.3234C374.316 37.2907 375.16 37.46 375.914 37.814C376.668 38.168 377.304 38.6944 377.759 39.3398C378.214 39.9852 378.47 40.7269 378.504 41.49L378.537 41.41Z" fill="white"/>
<path id="Vector_40" opacity="0.1" d="M107.779 180.24C107.316 180.933 107.059 181.722 107.033 182.53V210.14L102.143 207.61V180C102.137 179.907 102.137 179.813 102.143 179.72C102.163 179.525 102.196 179.331 102.243 179.14C102.382 178.635 102.6 178.151 102.889 177.7L107.779 180.24Z" fill="black"/>
<path id="Vector_41" d="M378.559 41.78V54.24L187.531 153.24C186.105 153.99 184.946 153.38 184.946 151.9V147.18C184.946 145.7 183.832 145.09 182.339 145.84L119.354 178.48C118.604 178.919 117.978 179.509 117.527 180.203C117.077 180.898 116.813 181.678 116.758 182.48V187.19C116.702 187.992 116.438 188.771 115.987 189.465C115.537 190.16 114.912 190.75 114.163 191.19L107.033 195V182.53C107.088 181.729 107.351 180.95 107.799 180.256C108.248 179.562 108.87 178.971 109.618 178.53L375.975 40.53C377.401 39.69 378.559 40.3 378.559 41.78Z" fill="#6AC8F7"/>
<path id="Vector_42" d="M366.395 49.59C368.199 48.66 369.659 49.42 369.659 51.29C369.597 52.3073 369.269 53.2973 368.702 54.1798C368.135 55.0624 367.345 55.8127 366.395 56.37C364.59 57.3 363.119 56.54 363.119 54.67C363.183 53.652 363.513 52.6617 364.082 51.7793C364.651 50.8968 365.443 50.1468 366.395 49.59Z" fill="white"/>
<path id="Vector_43" d="M354.631 55.68C356.435 54.75 357.895 55.5 357.895 57.37C357.835 58.3877 357.508 59.3782 356.941 60.261C356.374 61.1438 355.582 61.8938 354.631 62.45C352.826 63.39 351.367 62.63 351.367 60.76C351.428 59.7427 351.756 58.7527 352.323 57.8702C352.89 56.9876 353.681 56.2373 354.631 55.68Z" fill="white"/>
<path id="Vector_44" d="M342.867 61.77C344.672 60.83 346.131 61.59 346.131 63.46C346.069 64.4773 345.742 65.4673 345.175 66.3498C344.608 67.2324 343.817 67.9827 342.867 68.54C341.062 69.47 339.603 68.72 339.603 66.85C339.663 65.8323 339.99 64.8418 340.557 63.959C341.124 63.0762 341.916 62.3262 342.867 61.77Z" fill="white"/>
<path id="Vector_45" d="M378.571 54.24V69.39L107.033 210.14V195L112.369 192.23C113.795 191.49 114.274 190.36 114.954 188.23L116.769 182.59C117.338 180.59 117.883 179.3 119.365 178.59L181.303 146.49C182.741 145.75 183.866 145.67 184.957 147.29L187.185 150.91C187.999 152.17 188.411 152.91 189.837 152.17L378.571 54.24Z" fill="#E6E6E6"/>
<path id="Vector_46" d="M107.033 194.98V210.14L102.142 207.61V192.47L107.033 194.98Z" fill="#6AC8F7"/>
<path id="Vector_47" d="M118.942 196.08L114.864 198.19L116.413 195.51C116.475 195.409 116.508 195.295 116.508 195.18C116.508 195.065 116.475 194.951 116.413 194.85C116.29 194.72 116.09 194.85 115.945 195.05L113.717 198.86C113.717 198.86 113.717 198.95 113.661 199C113.656 199.063 113.656 199.127 113.661 199.19C113.654 199.246 113.654 199.304 113.661 199.36C113.677 199.388 113.696 199.415 113.717 199.44L115.945 200.96C115.977 200.983 116.016 200.995 116.056 200.995C116.097 200.995 116.136 200.983 116.168 200.96C116.282 200.894 116.368 200.795 116.413 200.68C116.535 200.43 116.513 200.15 116.413 200.06L114.864 198.98L118.942 196.87C119.045 196.796 119.128 196.702 119.184 196.594C119.24 196.486 119.268 196.369 119.265 196.25C119.265 196.11 119.12 196 118.942 196.08Z" fill="#4A4A68"/>
<path id="Vector_48" d="M122.339 194.31L126.417 192.2L124.857 191.13C124.791 191.036 124.756 190.927 124.756 190.815C124.756 190.704 124.791 190.594 124.857 190.5C124.968 190.25 125.18 190.13 125.314 190.22L127.542 191.75C127.572 191.77 127.595 191.798 127.609 191.83C127.62 191.886 127.62 191.944 127.609 192C127.619 192.066 127.619 192.134 127.609 192.2L127.542 192.35L125.314 196.17C125.271 196.262 125.197 196.339 125.102 196.39C125.069 196.418 125.025 196.434 124.98 196.434C124.934 196.434 124.89 196.418 124.857 196.39C124.794 196.291 124.76 196.179 124.76 196.065C124.76 195.951 124.794 195.839 124.857 195.74L126.417 193.06L122.339 195.17C122.161 195.26 122.016 195.17 122.016 194.89C122.021 194.778 122.053 194.669 122.109 194.569C122.164 194.469 122.243 194.381 122.339 194.31Z" fill="#4A4A68"/>
<path id="Vector_49" d="M135.707 183.78C135.707 183.56 135.474 183.58 135.362 183.78L134.805 185.01C133.847 184.92 132.7 185.75 131.92 187.23C130.906 189.15 130.906 191.42 131.92 192.29C132.164 192.495 132.48 192.617 132.813 192.635C133.147 192.653 133.477 192.567 133.747 192.39C134.562 191.897 135.201 191.202 135.585 190.39C135.646 190.292 135.679 190.182 135.679 190.07C135.679 189.958 135.646 189.848 135.585 189.75C135.451 189.64 135.251 189.75 135.117 189.99C134.36 191.42 133.134 192.06 132.388 191.41C131.641 190.76 131.63 189.06 132.388 187.63C132.922 186.63 133.691 186.01 134.36 185.97L133.947 186.9C133.836 187.14 133.947 187.36 134.103 187.26L135.763 186.26C135.831 186.214 135.885 186.153 135.918 186.083C135.952 186.013 135.963 185.936 135.953 185.86L135.707 183.78Z" fill="#4A4A68"/>
<path id="Vector_50" d="M179.51 153.31L181.003 150.49C181.087 150.356 181.131 150.204 181.131 150.05C181.131 149.896 181.087 149.744 181.003 149.61C180.824 149.46 180.535 149.61 180.368 149.94L178.875 152.76L177.393 151.48C177.215 151.33 176.937 151.48 176.758 151.81C176.669 151.943 176.622 152.095 176.622 152.25C176.622 152.405 176.669 152.557 176.758 152.69L178.24 154L176.758 156.82C176.669 156.953 176.622 157.105 176.622 157.26C176.622 157.415 176.669 157.567 176.758 157.7C176.801 157.734 176.857 157.753 176.914 157.753C176.972 157.753 177.027 157.734 177.07 157.7C177.216 157.616 177.329 157.494 177.393 157.35L178.875 154.53L180.368 155.81C180.411 155.844 180.466 155.863 180.524 155.863C180.581 155.863 180.637 155.844 180.68 155.81C180.825 155.726 180.938 155.604 181.003 155.46C181.087 155.326 181.131 155.174 181.131 155.02C181.131 154.866 181.087 154.714 181.003 154.58L179.51 153.31Z" fill="#4A4A68"/>
<path id="Vector_51" d="M141.121 187.25V182.53C141.175 181.727 141.438 180.948 141.889 180.253C142.34 179.558 142.966 178.968 143.717 178.53L361.359 65.74C362.796 64.99 363.955 65.6 363.955 67.08V71.8C363.901 72.6025 363.638 73.3824 363.187 74.0771C362.736 74.7718 362.11 75.3619 361.359 75.8L143.706 188.59C142.28 189.34 141.121 188.73 141.121 187.25Z" fill="#FAFAFA"/>
<path id="Vector_52" d="M357.828 76.2C357.75 76.2114 357.671 76.2114 357.594 76.2C357.448 76.1395 357.33 76.036 357.259 75.9068C357.188 75.7776 357.169 75.6305 357.204 75.49L357.46 73.58L356.458 72.93C356.37 72.8685 356.301 72.7892 356.254 72.6989C356.208 72.6085 356.186 72.5095 356.19 72.41C356.186 72.2548 356.222 72.1007 356.295 71.9601C356.369 71.8195 356.478 71.6962 356.614 71.6L358.14 70.54C358.17 70.5077 358.193 70.4703 358.207 70.43L358.886 68.43C358.928 68.2654 359.023 68.1156 359.16 67.9999C359.297 67.8841 359.469 67.8076 359.655 67.78C359.78 67.7672 359.907 67.7916 360.015 67.8493C360.124 67.9071 360.209 67.9951 360.256 68.1L360.824 69.19L362.117 68.75C362.232 68.704 362.36 68.6927 362.483 68.718C362.605 68.7432 362.715 68.8036 362.796 68.89C362.902 69.0283 362.959 69.1922 362.959 69.36C362.959 69.5278 362.902 69.6917 362.796 69.83L361.682 71.69C361.677 71.7265 361.677 71.7635 361.682 71.8L361.95 73.48C361.97 73.6337 361.951 73.7895 361.893 73.9353C361.835 74.0811 361.74 74.2128 361.615 74.32C361.542 74.397 361.449 74.4565 361.344 74.4932C361.239 74.5299 361.126 74.5425 361.014 74.53L359.822 74.36L358.474 75.9C358.402 75.994 358.306 76.0706 358.193 76.123C358.08 76.1753 357.955 76.2018 357.828 76.2ZM357.093 72.3L358.095 72.95C358.199 73.026 358.278 73.1252 358.325 73.2377C358.372 73.3501 358.385 73.4716 358.363 73.59L358.184 74.87L359.087 73.87C359.164 73.7715 359.268 73.6923 359.389 73.6398C359.51 73.5873 359.643 73.5633 359.777 73.57L361.025 73.71C361.033 73.667 361.033 73.623 361.025 73.58L360.758 71.9C360.737 71.6926 360.783 71.4843 360.891 71.3L361.86 69.67L360.936 70C360.789 70.0543 360.625 70.0554 360.478 70.0032C360.33 69.951 360.211 69.8495 360.145 69.72L359.699 68.86L359.087 70.65C359.023 70.8514 358.891 71.0298 358.708 71.16L357.182 72.16C357.138 72.1982 357.107 72.2467 357.093 72.3Z" fill="#6AC8F7"/>
<path id="Vector_53" d="M367.018 65.16C366.819 65.1652 366.623 65.11 366.462 65.0032C366.301 64.8965 366.185 64.7443 366.133 64.5713C366.08 64.3982 366.094 64.2143 366.171 64.049C366.249 63.8837 366.387 63.7467 366.562 63.66L373.869 59.87C373.972 59.8095 374.087 59.7685 374.208 59.7494C374.329 59.7303 374.453 59.7336 374.573 59.759C374.692 59.7844 374.805 59.8315 374.903 59.8972C375.002 59.963 375.084 60.0461 375.146 60.1415C375.207 60.2369 375.246 60.3426 375.261 60.452C375.275 60.5615 375.264 60.6724 375.229 60.778C375.195 60.8837 375.136 60.9818 375.057 61.0664C374.978 61.151 374.881 61.2203 374.772 61.27L367.464 65.05C367.33 65.1246 367.176 65.1628 367.018 65.16Z" fill="#4A4A68"/>
<path id="Vector_54" d="M367.018 69C366.861 69.0013 366.705 68.9649 366.568 68.8946C366.431 68.8243 366.317 68.7227 366.239 68.6C366.12 68.4138 366.087 68.1933 366.148 67.9858C366.208 67.7783 366.357 67.6003 366.562 67.49L373.869 63.71C373.972 63.656 374.085 63.6207 374.203 63.606C374.32 63.5914 374.44 63.5977 374.555 63.6246C374.67 63.6516 374.777 63.6986 374.872 63.763C374.967 63.8274 375.046 63.908 375.106 64C375.165 64.0917 375.204 64.1931 375.219 64.2983C375.235 64.4036 375.227 64.5104 375.195 64.6128C375.164 64.7152 375.111 64.811 375.038 64.8946C374.965 64.9783 374.875 65.0481 374.772 65.1L367.464 68.89C367.33 68.9646 367.176 69.0028 367.018 69Z" fill="#4A4A68"/>
<path id="Vector_55" d="M367.018 72.74C366.82 72.7405 366.627 72.6823 366.469 72.5742C366.311 72.4661 366.197 72.3143 366.145 72.1423C366.093 71.9702 366.105 71.7876 366.181 71.6227C366.256 71.4577 366.39 71.3197 366.562 71.23L373.869 67.44C374.078 67.3345 374.325 67.3067 374.556 67.3629C374.787 67.419 374.985 67.5544 375.106 67.74C375.165 67.8317 375.204 67.9331 375.219 68.0383C375.235 68.1436 375.227 68.2505 375.195 68.3528C375.164 68.4552 375.111 68.551 375.038 68.6346C374.965 68.7183 374.875 68.7881 374.772 68.84L367.464 72.63C367.328 72.6999 367.175 72.7378 367.018 72.74Z" fill="#4A4A68"/>
<g id="freepik--Search--inject-94">
<path id="Vector_56" d="M115.043 214.38C114.843 214.385 114.647 214.33 114.486 214.223C114.326 214.116 114.21 213.964 114.157 213.791C114.104 213.618 114.118 213.434 114.196 213.269C114.274 213.104 114.411 212.967 114.586 212.88L121.894 209.09C122.099 208.997 122.337 208.977 122.558 209.036C122.779 209.095 122.967 209.228 123.082 209.407C123.197 209.586 123.232 209.798 123.179 210C123.126 210.201 122.989 210.376 122.796 210.49L115.488 214.27C115.354 214.343 115.2 214.381 115.043 214.38Z" fill="#4A4A68"/>
<path id="Vector_57" d="M115.043 218.17C114.885 218.171 114.73 218.135 114.593 218.065C114.456 217.994 114.342 217.893 114.263 217.77C114.203 217.678 114.163 217.576 114.147 217.471C114.131 217.365 114.138 217.258 114.168 217.155C114.198 217.052 114.25 216.955 114.322 216.87C114.394 216.785 114.483 216.714 114.586 216.66L121.894 212.88C121.995 212.826 122.108 212.791 122.224 212.777C122.341 212.762 122.46 212.768 122.574 212.795C122.688 212.822 122.795 212.869 122.888 212.934C122.982 212.998 123.06 213.078 123.119 213.17C123.179 213.262 123.219 213.364 123.235 213.469C123.251 213.575 123.244 213.682 123.214 213.785C123.184 213.888 123.132 213.985 123.06 214.07C122.988 214.155 122.899 214.226 122.796 214.28L115.488 218.06C115.354 218.133 115.2 218.171 115.043 218.17Z" fill="#4A4A68"/>
<path id="Vector_58" d="M115.043 222C114.844 222.001 114.651 221.942 114.493 221.834C114.335 221.726 114.221 221.574 114.169 221.402C114.117 221.23 114.13 221.048 114.205 220.883C114.28 220.718 114.414 220.58 114.586 220.49L121.894 216.71C121.995 216.655 122.107 216.619 122.224 216.603C122.341 216.588 122.461 216.594 122.575 216.621C122.689 216.648 122.797 216.696 122.89 216.761C122.984 216.826 123.061 216.907 123.119 217C123.179 217.091 123.218 217.192 123.234 217.297C123.251 217.402 123.243 217.508 123.213 217.611C123.183 217.713 123.131 217.809 123.059 217.893C122.988 217.977 122.898 218.047 122.796 218.1L115.488 221.89C115.352 221.959 115.199 221.997 115.043 222Z" fill="#4A4A68"/>
<path id="Vector_59" d="M179.855 181V186.81C179.855 188 180.791 188.48 181.938 187.89L268.752 142.83V132.69L181.95 177.75C181.34 178.105 180.832 178.585 180.468 179.15C180.104 179.714 179.894 180.348 179.855 181Z" fill="#E6E6E6"/>
<path id="Vector_60" d="M279.692 127C280.806 126.4 281.775 126.89 281.775 128.08V133.89C281.735 134.539 281.525 135.17 281.163 135.733C280.801 136.295 280.297 136.774 279.692 137.13L268.752 142.8V132.69L279.692 127Z" fill="#6AC8F7"/>
<path id="Vector_61" d="M278.879 135L277.664 134.65C277.788 134.188 277.852 133.715 277.854 133.24C277.91 132.797 277.837 132.348 277.642 131.938C277.447 131.527 277.136 131.17 276.74 130.9C276.464 130.768 276.154 130.706 275.842 130.72C275.53 130.734 275.228 130.824 274.969 130.98C274.192 131.515 273.566 132.206 273.142 132.999C272.719 133.791 272.508 134.661 272.529 135.54C272.472 135.983 272.545 136.432 272.741 136.842C272.936 137.253 273.247 137.61 273.643 137.88C273.877 137.999 274.142 138.061 274.412 138.06C274.766 138.057 275.112 137.967 275.414 137.8C276.345 137.228 277.039 136.394 277.386 135.43L278.611 135.77C278.655 135.78 278.701 135.78 278.745 135.77C278.859 135.781 278.973 135.751 279.063 135.688C279.154 135.625 279.214 135.534 279.231 135.432C279.248 135.331 279.221 135.227 279.156 135.143C279.09 135.059 278.991 135 278.879 134.98V135ZM274.969 137.1C274.843 137.182 274.694 137.232 274.539 137.245C274.384 137.257 274.228 137.231 274.088 137.17C273.843 136.965 273.655 136.71 273.541 136.426C273.426 136.143 273.389 135.839 273.431 135.54C273.419 134.804 273.591 134.076 273.934 133.408C274.277 132.74 274.783 132.149 275.414 131.68C275.583 131.589 275.774 131.537 275.971 131.53C276.085 131.527 276.198 131.555 276.294 131.61C276.54 131.815 276.728 132.07 276.842 132.354C276.956 132.637 276.994 132.941 276.951 133.24C276.962 133.974 276.789 134.701 276.446 135.367C276.103 136.033 275.598 136.622 274.969 137.09V137.1Z" fill="#FAFAFA"/>
<path id="Vector_62" d="M143.773 197.53L131.24 204C130.634 204.351 130.13 204.826 129.768 205.385C129.406 205.945 129.196 206.574 129.157 207.22V213.01C129.157 214.2 130.093 214.68 131.24 214.09L143.773 207.58C144.377 207.226 144.88 206.749 145.24 206.188C145.6 205.627 145.807 204.997 145.845 204.35V198.6C145.845 197.42 144.92 196.93 143.773 197.53Z" fill="#6AC8F7"/>
<path id="Vector_63" d="M361.727 84.56C360.307 85.3927 359.126 86.5136 358.278 87.8322C357.43 89.1508 356.94 90.6299 356.848 92.15C356.848 94.95 359.076 96.08 361.727 94.69C363.15 93.8569 364.334 92.7347 365.183 91.4143C366.033 90.0939 366.524 88.6125 366.617 87.09C366.617 84.29 364.423 83.16 361.727 84.56Z" fill="#6AC8F7"/>
<path id="Vector_64" d="M361.159 89C361.006 89.0023 360.856 88.9678 360.724 88.9C360.569 88.8014 360.445 88.6687 360.363 88.5147C360.281 88.3606 360.244 88.1903 360.256 88.02C360.277 87.6192 360.404 87.2285 360.627 86.8807C360.85 86.5328 361.162 86.2377 361.537 86.02C361.69 85.9119 361.875 85.8474 362.068 85.8349C362.262 85.8223 362.456 85.8623 362.624 85.9496C362.792 86.0369 362.927 86.1675 363.011 86.3245C363.095 86.4814 363.125 86.6576 363.097 86.83C363.073 87.2314 362.944 87.622 362.719 87.9696C362.494 88.3173 362.181 88.6122 361.805 88.83C361.608 88.934 361.386 88.9925 361.159 89Z" fill="white"/>
<path id="Vector_65" d="M363.654 89.31C363.383 89.1885 363.08 89.1354 362.778 89.1565C362.476 89.1777 362.185 89.2722 361.939 89.43L361.226 89.8C360.579 90.1682 360.039 90.6697 359.652 91.2628C359.264 91.8559 359.04 92.5235 358.998 93.21V93.67C359.434 93.8393 359.911 93.9043 360.384 93.8588C360.856 93.8132 361.307 93.6586 361.693 93.41C362.818 92.7825 363.745 91.9084 364.389 90.87V90.76C364.42 90.4816 364.368 90.201 364.239 89.9464C364.11 89.6918 363.908 89.4723 363.654 89.31Z" fill="white"/>
<path id="Vector_66" d="M344.449 98.12V96.57C344.449 94.81 343.257 94 341.786 94.76C340.972 95.2824 340.307 95.969 339.842 96.7644C339.378 97.5599 339.128 98.442 339.113 99.34V100.73C339.077 101.685 338.766 102.615 338.21 103.43C338.072 103.643 337.996 103.884 337.987 104.13C337.987 104.58 338.288 104.78 338.656 104.59L344.905 101.36C345.109 101.226 345.275 101.052 345.391 100.85C345.507 100.649 345.569 100.426 345.574 100.2C345.581 100.113 345.567 100.026 345.532 99.9448C345.497 99.8636 345.443 99.7902 345.373 99.73C345.059 99.5738 344.803 99.3375 344.639 99.0509C344.474 98.7643 344.408 98.4404 344.449 98.12Z" fill="#6AC8F7"/>
<path id="Vector_67" d="M343.112 102.8C343.104 103.231 342.984 103.654 342.761 104.036C342.539 104.418 342.22 104.748 341.831 105C341.118 105.36 340.539 105 340.539 104.13L343.112 102.8Z" fill="#6AC8F7"/>
<path id="Vector_68" d="M321.411 105.48C321.752 105.299 322.132 105.183 322.525 105.14C322.834 105.108 323.146 105.164 323.416 105.3C323.678 105.444 323.885 105.657 324.007 105.91C324.151 106.258 324.208 106.63 324.174 107C324.178 107.337 324.137 107.672 324.051 108C323.971 108.293 323.867 108.581 323.739 108.86C323.618 109.123 323.48 109.38 323.327 109.63L322.882 110.35C322.748 110.58 322.614 110.82 322.503 111.05C322.396 111.271 322.318 111.503 322.269 111.74C322.258 111.853 322.228 111.965 322.18 112.07C322.142 112.15 322.08 112.219 322.002 112.27L320.743 112.92C320.665 112.92 320.598 112.92 320.553 112.92C320.521 112.889 320.497 112.853 320.482 112.813C320.466 112.774 320.46 112.732 320.464 112.69C320.462 112.382 320.511 112.075 320.609 111.78C320.699 111.49 320.81 111.206 320.943 110.93C321.088 110.66 321.233 110.39 321.4 110.14C321.567 109.89 321.701 109.64 321.846 109.42C321.99 109.2 322.091 108.97 322.191 108.76C322.275 108.572 322.32 108.372 322.325 108.17C322.325 107.89 322.247 107.71 322.102 107.64C321.957 107.57 321.712 107.64 321.4 107.76C321.133 107.886 320.906 108.072 320.743 108.3C320.62 108.48 320.519 108.671 320.442 108.87L320.286 109.37C320.251 109.506 320.159 109.624 320.03 109.7L318.771 110.35C318.748 110.365 318.721 110.373 318.693 110.373C318.665 110.373 318.638 110.365 318.615 110.35C318.59 110.322 318.571 110.29 318.559 110.256C318.548 110.222 318.544 110.186 318.548 110.15C318.564 109.761 318.631 109.375 318.749 109C318.89 108.556 319.077 108.124 319.306 107.71C319.549 107.274 319.848 106.864 320.197 106.49C320.53 106.09 320.942 105.748 321.411 105.48ZM322.302 114.72C322.302 114.827 322.275 114.933 322.224 115.03C322.182 115.116 322.112 115.189 322.024 115.24L320.732 115.91C320.719 115.921 320.704 115.93 320.688 115.936C320.672 115.942 320.655 115.945 320.637 115.945C320.619 115.945 320.602 115.942 320.586 115.936C320.569 115.93 320.555 115.921 320.542 115.91C320.51 115.879 320.486 115.843 320.471 115.803C320.455 115.764 320.449 115.722 320.453 115.68V114.25C320.456 114.142 320.487 114.036 320.542 113.94C320.577 113.85 320.644 113.773 320.732 113.72L322.024 113.05C322.052 113.029 322.087 113.017 322.124 113.017C322.161 113.017 322.196 113.029 322.224 113.05C322.254 113.08 322.276 113.115 322.29 113.152C322.303 113.19 322.308 113.23 322.302 113.27V114.72Z" fill="#6AC8F7"/>
</g>
<path id="Vector_69" d="M299.978 143.12V163C299.978 164.49 301.092 165.09 302.574 164.35L331.471 149.35C332.221 148.911 332.847 148.321 333.297 147.627C333.748 146.932 334.011 146.152 334.066 145.35V125.5C334.066 124.02 332.952 123.41 331.471 124.16L302.507 139.16C301.774 139.601 301.165 140.188 300.727 140.875C300.288 141.562 300.032 142.33 299.978 143.12Z" fill="#6AC8F7"/>
<path id="Vector_70" opacity="0.5" d="M299.978 143.12V163C299.978 164.49 301.092 165.09 302.574 164.35L331.471 149.35C332.221 148.911 332.847 148.321 333.297 147.627C333.748 146.932 334.011 146.152 334.066 145.35V125.5C334.066 124.02 332.952 123.41 331.471 124.16L302.507 139.16C301.774 139.601 301.165 140.188 300.727 140.875C300.288 141.562 300.032 142.33 299.978 143.12Z" fill="white"/>
<path id="Vector_71" d="M312.332 151.46V142.77C312.34 142.337 312.531 141.923 312.866 141.611C313.201 141.299 313.655 141.113 314.137 141.09L322.971 140.74C323.962 140.74 324.219 141.21 323.561 141.87L313.535 151.87C312.878 152.53 312.332 152.35 312.332 151.46Z" fill="#FAFAFA"/>
<path id="Vector_72" d="M342.377 119.9L365.771 107.75C366.417 107.42 366.94 107.66 366.94 108.28C366.911 108.631 366.79 108.97 366.587 109.271C366.383 109.572 366.104 109.825 365.771 110.01L342.377 122.16C341.731 122.49 341.263 122.25 341.263 121.63C341.285 121.284 341.397 120.947 341.591 120.646C341.784 120.346 342.053 120.09 342.377 119.9Z" fill="#4A4A68"/>
<path id="Vector_73" d="M342.377 124.41L365.771 112.27C366.417 111.94 366.94 112.17 366.94 112.8C366.911 113.151 366.79 113.49 366.587 113.791C366.383 114.092 366.104 114.345 365.771 114.53L342.377 126.67C341.731 127.01 341.263 126.77 341.263 126.15C341.285 125.802 341.397 125.464 341.59 125.162C341.784 124.86 342.053 124.602 342.377 124.41Z" fill="#4A4A68"/>
<path id="Vector_74" d="M342.377 128.8L365.771 116.65C366.417 116.32 366.94 116.56 366.94 117.18C366.911 117.531 366.79 117.87 366.587 118.171C366.383 118.472 366.104 118.725 365.771 118.91L342.377 131.05C341.731 131.39 341.263 131.15 341.263 130.53C341.284 130.183 341.396 129.846 341.589 129.546C341.783 129.245 342.053 128.99 342.377 128.8Z" fill="#4A4A68"/>
<path id="Vector_75" d="M341.998 135.07L358.084 126.73C358.519 126.5 358.875 126.67 358.875 127.09C358.855 127.33 358.773 127.562 358.636 127.769C358.499 127.975 358.31 128.15 358.084 128.28L341.998 136.62C341.564 136.84 341.207 136.68 341.207 136.25C341.227 136.012 341.309 135.781 341.446 135.576C341.584 135.371 341.773 135.198 341.998 135.07Z" fill="#6AC8F7"/>
<path id="Vector_76" d="M341.998 138.17L358.084 129.83C358.519 129.6 358.875 129.77 358.875 130.19C358.855 130.43 358.773 130.662 358.636 130.869C358.499 131.075 358.31 131.25 358.084 131.38L341.998 139.72C341.564 139.94 341.207 139.78 341.207 139.35C341.227 139.112 341.309 138.881 341.446 138.676C341.584 138.471 341.773 138.298 341.998 138.17Z" fill="#6AC8F7"/>
<path id="Vector_77" d="M341.998 141.17L358.084 132.84C358.519 132.61 358.875 132.77 358.875 133.2C358.855 133.44 358.773 133.672 358.636 133.879C358.499 134.085 358.31 134.26 358.084 134.39L341.998 142.72C341.564 142.95 341.207 142.79 341.207 142.36C341.227 142.12 341.309 141.888 341.446 141.681C341.583 141.475 341.772 141.3 341.998 141.17Z" fill="#6AC8F7"/>
<path id="Vector_78" d="M299.978 178.47V198.33C299.978 199.82 301.092 200.42 302.574 199.68L331.471 184.68C332.221 184.241 332.847 183.651 333.297 182.957C333.748 182.262 334.011 181.482 334.066 180.68V160.83C334.066 159.34 332.952 158.74 331.471 159.48L302.507 174.48C301.77 174.924 301.157 175.515 300.719 176.208C300.28 176.9 300.026 177.675 299.978 178.47Z" fill="#6AC8F7"/>
<path id="Vector_79" opacity="0.5" d="M299.978 178.47V198.33C299.978 199.82 301.092 200.42 302.574 199.68L331.471 184.68C332.221 184.241 332.847 183.651 333.297 182.957C333.748 182.262 334.011 181.482 334.066 180.68V160.83C334.066 159.34 332.952 158.74 331.471 159.48L302.507 174.48C301.77 174.924 301.157 175.515 300.719 176.208C300.28 176.9 300.026 177.675 299.978 178.47Z" fill="white"/>
<path id="Vector_80" d="M312.332 186.8V178.12C312.337 177.686 312.527 177.27 312.863 176.958C313.198 176.646 313.654 176.46 314.137 176.44L322.971 176.09C323.962 176.09 324.219 176.56 323.561 177.22L313.535 187.22C312.878 187.88 312.332 187.7 312.332 186.8Z" fill="#FAFAFA"/>
<path id="Vector_81" d="M342.377 155.24L365.771 143.1C366.417 142.77 366.94 143 366.94 143.63C366.911 143.981 366.79 144.32 366.587 144.621C366.383 144.922 366.104 145.175 365.771 145.36L342.377 157.5C341.731 157.84 341.263 157.6 341.263 156.98C341.285 156.632 341.397 156.294 341.59 155.992C341.784 155.69 342.053 155.432 342.377 155.24Z" fill="#4A4A68"/>
<path id="Vector_82" d="M342.377 159.76L365.771 147.62C366.417 147.29 366.94 147.52 366.94 148.15C366.909 148.5 366.788 148.839 366.584 149.14C366.381 149.44 366.103 149.694 365.771 149.88L342.377 162.02C341.731 162.35 341.263 162.12 341.263 161.49C341.285 161.144 341.397 160.807 341.591 160.506C341.784 160.206 342.053 159.95 342.377 159.76Z" fill="#4A4A68"/>
<path id="Vector_83" d="M342.377 164.14L365.771 152C366.417 151.67 366.94 151.9 366.94 152.53C366.911 152.881 366.79 153.22 366.587 153.521C366.383 153.822 366.104 154.075 365.771 154.26L342.377 166.4C341.731 166.73 341.263 166.5 341.263 165.87C341.287 165.524 341.4 165.188 341.593 164.887C341.786 164.587 342.055 164.331 342.377 164.14Z" fill="#4A4A68"/>
<path id="Vector_84" d="M341.998 170.41L358.084 162.08C358.519 161.85 358.875 162.01 358.875 162.44C358.855 162.68 358.773 162.912 358.636 163.119C358.499 163.325 358.31 163.5 358.084 163.63L341.998 172C341.564 172.23 341.207 172.07 341.207 171.64C341.22 171.393 341.299 171.153 341.436 170.939C341.574 170.725 341.766 170.544 341.998 170.41Z" fill="#6AC8F7"/>
<path id="Vector_85" d="M341.998 173.51L358.084 165.18C358.519 164.95 358.875 165.11 358.875 165.54C358.855 165.78 358.773 166.012 358.636 166.219C358.499 166.425 358.31 166.6 358.084 166.73L341.998 175.06C341.564 175.29 341.207 175.13 341.207 174.7C341.227 174.46 341.309 174.228 341.446 174.021C341.583 173.815 341.772 173.64 341.998 173.51Z" fill="#6AC8F7"/>
<path id="Vector_86" d="M341.998 176.52L358.084 168.19C358.519 167.96 358.875 168.12 358.875 168.55C358.855 168.79 358.773 169.022 358.636 169.229C358.499 169.435 358.31 169.61 358.084 169.74L341.998 178.07C341.564 178.3 341.207 178.14 341.207 177.71C341.227 177.47 341.309 177.238 341.446 177.031C341.583 176.825 341.772 176.65 341.998 176.52Z" fill="#6AC8F7"/>
<path id="Vector_87" d="M299.978 213.79V233.65C299.978 235.14 301.092 235.74 302.574 235L331.471 220C332.221 219.561 332.847 218.971 333.297 218.277C333.748 217.582 334.011 216.802 334.066 216V196.15C334.066 194.67 332.952 194.06 331.471 194.81L302.507 209.81C301.772 210.253 301.161 210.843 300.722 211.534C300.283 212.224 300.029 212.996 299.978 213.79Z" fill="#6AC8F7"/>
<path id="Vector_88" opacity="0.5" d="M299.978 213.79V233.65C299.978 235.14 301.092 235.74 302.574 235L331.471 220C332.221 219.561 332.847 218.971 333.297 218.277C333.748 217.582 334.011 216.802 334.066 216V196.15C334.066 194.67 332.952 194.06 331.471 194.81L302.507 209.81C301.772 210.253 301.161 210.843 300.722 211.534C300.283 212.224 300.029 212.996 299.978 213.79Z" fill="white"/>
<path id="Vector_89" d="M312.332 222.13V213.44C312.34 213.007 312.531 212.593 312.866 212.281C313.201 211.969 313.655 211.783 314.137 211.76L322.971 211.41C323.962 211.41 324.219 211.88 323.561 212.54L313.535 222.54C312.878 223.2 312.332 223 312.332 222.13Z" fill="#FAFAFA"/>
<path id="Vector_90" d="M342.377 190.57L365.771 178.42C366.417 178.09 366.94 178.33 366.94 178.95C366.911 179.301 366.79 179.64 366.587 179.941C366.383 180.242 366.104 180.495 365.771 180.68L342.377 192.83C341.731 193.16 341.263 192.92 341.263 192.3C341.284 191.953 341.396 191.616 341.589 191.316C341.783 191.015 342.053 190.76 342.377 190.57Z" fill="#4A4A68"/>
<path id="Vector_91" d="M342.377 195.08L365.771 182.94C366.417 182.61 366.94 182.84 366.94 183.47C366.911 183.821 366.79 184.16 366.587 184.461C366.383 184.762 366.104 185.015 365.771 185.2L342.377 197.34C341.731 197.68 341.263 197.44 341.263 196.82C341.285 196.472 341.397 196.134 341.59 195.832C341.784 195.53 342.053 195.272 342.377 195.08Z" fill="#4A4A68"/>
<path id="Vector_92" d="M342.377 199.47L365.771 187.32C366.417 186.99 366.94 187.23 366.94 187.85C366.911 188.201 366.79 188.54 366.587 188.841C366.383 189.142 366.104 189.395 365.771 189.58L342.377 201.72C341.731 202.06 341.263 201.82 341.263 201.2C341.284 200.853 341.396 200.516 341.589 200.216C341.783 199.915 342.053 199.66 342.377 199.47Z" fill="#4A4A68"/>
<path id="Vector_93" d="M341.998 205.74L358.084 197.4C358.519 197.17 358.875 197.34 358.875 197.76C358.855 198 358.773 198.232 358.636 198.439C358.499 198.645 358.31 198.82 358.084 198.95L341.998 207.29C341.564 207.51 341.207 207.35 341.207 206.92C341.227 206.682 341.309 206.451 341.446 206.246C341.584 206.041 341.773 205.868 341.998 205.74Z" fill="#6AC8F7"/>
<path id="Vector_94" d="M341.998 208.84L358.084 200.5C358.519 200.27 358.875 200.44 358.875 200.86C358.855 201.1 358.773 201.332 358.636 201.539C358.499 201.745 358.31 201.92 358.084 202.05L341.998 210.39C341.564 210.61 341.207 210.45 341.207 210.02C341.227 209.781 341.309 209.551 341.446 209.346C341.584 209.141 341.773 208.967 341.998 208.84Z" fill="#6AC8F7"/>
<path id="Vector_95" d="M341.998 211.84L358.084 203.51C358.519 203.28 358.875 203.44 358.875 203.87C358.855 204.11 358.773 204.342 358.636 204.549C358.499 204.755 358.31 204.93 358.084 205.06L341.998 213.39C341.564 213.62 341.207 213.46 341.207 213.03C341.227 212.79 341.309 212.558 341.446 212.351C341.583 212.145 341.772 211.97 341.998 211.84Z" fill="#6AC8F7"/>
<path id="Vector_96" d="M299.978 249.14V269C299.978 270.48 301.092 271.08 302.574 270.34L331.471 255.34C332.222 254.902 332.848 254.312 333.299 253.617C333.749 252.922 334.012 252.143 334.066 251.34V231.49C334.066 230.01 332.952 229.41 331.471 230.15L302.507 245.15C301.77 245.594 301.157 246.185 300.719 246.878C300.28 247.57 300.026 248.345 299.978 249.14Z" fill="#6AC8F7"/>
<path id="Vector_97" opacity="0.5" d="M299.978 249.14V269C299.978 270.48 301.092 271.08 302.574 270.34L331.471 255.34C332.222 254.902 332.848 254.312 333.299 253.617C333.749 252.922 334.012 252.143 334.066 251.34V231.49C334.066 230.01 332.952 229.41 331.471 230.15L302.507 245.15C301.77 245.594 301.157 246.185 300.719 246.878C300.28 247.57 300.026 248.345 299.978 249.14Z" fill="white"/>
<path id="Vector_98" d="M312.332 257.48V248.8C312.337 248.365 312.527 247.948 312.862 247.634C313.197 247.32 313.653 247.133 314.137 247.11L322.971 246.77C323.962 246.77 324.219 247.23 323.561 247.9L313.535 257.9C312.878 258.56 312.332 258.37 312.332 257.48Z" fill="#FAFAFA"/>
<path id="Vector_99" d="M342.377 225.92L365.771 213.78C366.417 213.44 366.94 213.68 366.94 214.3C366.912 214.651 366.791 214.991 366.588 215.292C366.385 215.592 366.104 215.845 365.771 216.03L342.377 228.18C341.731 228.51 341.263 228.28 341.263 227.65C341.285 227.304 341.397 226.967 341.591 226.666C341.784 226.366 342.053 226.11 342.377 225.92Z" fill="#4A4A68"/>
<path id="Vector_100" d="M342.377 230.44L365.771 218.29C366.417 217.96 366.94 218.2 366.94 218.82C366.911 219.171 366.79 219.51 366.587 219.811C366.383 220.112 366.104 220.365 365.771 220.55L342.377 232.7C341.731 233.03 341.263 232.79 341.263 232.17C341.285 231.824 341.397 231.487 341.591 231.186C341.784 230.886 342.053 230.63 342.377 230.44Z" fill="#4A4A68"/>
<path id="Vector_101" d="M342.377 234.82L365.771 222.67C366.417 222.34 366.94 222.58 366.94 223.2C366.912 223.551 366.791 223.891 366.588 224.192C366.385 224.492 366.104 224.745 365.771 224.93L342.377 237.08C341.731 237.41 341.263 237.17 341.263 236.55C341.285 236.204 341.397 235.867 341.591 235.566C341.784 235.266 342.053 235.01 342.377 234.82Z" fill="#4A4A68"/>
<path id="Vector_102" d="M341.998 241.09L358.084 232.75C358.519 232.53 358.875 232.69 358.875 233.12C358.855 233.358 358.773 233.589 358.636 233.794C358.498 233.999 358.31 234.172 358.084 234.3L341.998 242.64C341.564 242.87 341.207 242.7 341.207 242.28C341.227 242.04 341.309 241.808 341.446 241.601C341.583 241.395 341.772 241.22 341.998 241.09Z" fill="#6AC8F7"/>
<path id="Vector_103" d="M341.998 244.19L358.084 235.85C358.519 235.63 358.875 235.79 358.875 236.22C358.855 236.459 358.773 236.689 358.636 236.894C358.498 237.099 358.31 237.273 358.084 237.4L341.998 245.74C341.564 245.97 341.207 245.8 341.207 245.38C341.227 245.14 341.309 244.908 341.446 244.701C341.583 244.495 341.772 244.32 341.998 244.19Z" fill="#6AC8F7"/>
<path id="Vector_104" d="M341.998 247.19L358.084 238.86C358.519 238.63 358.875 238.8 358.875 239.22C358.855 239.46 358.773 239.692 358.636 239.899C358.499 240.105 358.31 240.28 358.084 240.41L341.998 248.74C341.564 248.97 341.207 248.81 341.207 248.38C341.227 248.14 341.309 247.908 341.446 247.701C341.583 247.495 341.772 247.32 341.998 247.19Z" fill="#6AC8F7"/>
<path id="Vector_105" d="M120.078 344.74L207.438 299.46C208.864 298.72 210.034 299.25 210.022 300.64C209.958 301.423 209.69 302.181 209.239 302.853C208.788 303.525 208.167 304.093 207.427 304.51L120.078 349.79C118.652 350.53 117.482 350 117.482 348.61C117.546 347.827 117.815 347.069 118.266 346.397C118.717 345.725 119.337 345.157 120.078 344.74Z" fill="#4A4A68"/>
<path id="Vector_106" d="M118.942 353.88L167.958 328.51C168.771 328.09 169.417 328.38 169.417 329.17C169.379 329.609 169.228 330.034 168.974 330.411C168.721 330.787 168.373 331.106 167.958 331.34L118.997 356.71C118.195 357.13 117.538 356.83 117.538 356.05C117.57 355.616 117.713 355.194 117.956 354.817C118.2 354.441 118.537 354.12 118.942 353.88Z" fill="#6AC8F7"/>
<path id="Vector_107" d="M138.013 352.87L200.587 320.45C202.013 319.7 203.182 320.23 203.182 321.63C203.118 322.413 202.85 323.171 202.399 323.843C201.948 324.515 201.327 325.083 200.587 325.5L138.013 357.92C136.576 358.66 135.418 358.14 135.418 356.74C135.482 355.957 135.75 355.199 136.201 354.527C136.652 353.855 137.273 353.287 138.013 352.87Z" fill="#4A4A68"/>
<path id="Vector_108" d="M136.866 362L161.051 349.47C161.864 349.05 162.51 349.35 162.51 350.13C162.475 350.569 162.325 350.995 162.071 351.372C161.817 351.75 161.468 352.067 161.051 352.3L136.866 364.83C136.064 365.24 135.418 364.95 135.418 364.17C135.452 363.732 135.6 363.306 135.852 362.929C136.104 362.552 136.451 362.234 136.866 362Z" fill="#6AC8F7"/>
<path id="Vector_109" d="M124.244 358.63C122.26 359.792 120.608 361.357 119.424 363.198C118.239 365.04 117.555 367.107 117.427 369.23C117.427 373.13 120.479 374.72 124.244 372.76C126.23 371.6 127.882 370.035 129.067 368.193C130.252 366.351 130.935 364.284 131.062 362.16C131.062 358.26 128.01 356.68 124.244 358.63Z" fill="#6AC8F7"/>
<path id="Vector_110" d="M123.453 364.85C123.238 364.857 123.026 364.809 122.841 364.71C122.619 364.579 122.44 364.396 122.324 364.182C122.209 363.967 122.16 363.728 122.184 363.49C122.214 362.929 122.394 362.383 122.708 361.898C123.022 361.412 123.461 361.002 123.988 360.7C124.205 360.562 124.46 360.48 124.725 360.462C124.99 360.445 125.255 360.492 125.492 360.6C125.714 360.731 125.893 360.914 126.008 361.129C126.124 361.343 126.173 361.582 126.149 361.82C126.119 362.38 125.941 362.925 125.629 363.41C125.317 363.895 124.881 364.307 124.356 364.61C124.083 364.759 123.772 364.841 123.453 364.85Z" fill="white"/>
<path id="Vector_111" d="M126.996 365.26C126.615 365.09 126.19 365.017 125.767 365.047C125.343 365.077 124.936 365.209 124.59 365.43L123.609 365.94C122.71 366.457 121.961 367.159 121.426 367.989C120.891 368.819 120.585 369.752 120.535 370.71V371.34C121.143 371.579 121.81 371.671 122.471 371.608C123.131 371.545 123.761 371.329 124.3 370.98C125.869 370.106 127.165 368.888 128.065 367.44V367.29C128.103 366.897 128.024 366.502 127.836 366.145C127.648 365.789 127.358 365.483 126.996 365.26Z" fill="white"/>
<path id="Vector_112" d="M241.849 301.82L270.746 286.82C272.183 286.08 273.353 286.68 273.353 288.17V292.88C273.297 293.683 273.032 294.463 272.579 295.158C272.127 295.853 271.499 296.442 270.746 296.88L241.849 311.88C240.412 312.62 239.254 312.02 239.254 310.53V305.82C239.309 305.018 239.572 304.238 240.023 303.543C240.473 302.849 241.099 302.259 241.849 301.82Z" fill="#6AC8F7"/>
<path id="Vector_113" opacity="0.7" d="M241.849 301.82L270.746 286.82C272.183 286.08 273.353 286.68 273.353 288.17V292.88C273.297 293.683 273.032 294.463 272.579 295.158C272.127 295.853 271.499 296.442 270.746 296.88L241.849 311.88C240.412 312.62 239.254 312.02 239.254 310.53V305.82C239.309 305.018 239.572 304.238 240.023 303.543C240.473 302.849 241.099 302.259 241.849 301.82Z" fill="white"/>
<path id="Vector_114" d="M283.914 284.78V283.23C283.914 281.47 282.722 280.65 281.24 281.42C280.427 281.943 279.762 282.63 279.298 283.425C278.833 284.22 278.583 285.102 278.567 286V287.39C278.536 288.344 278.229 289.275 277.676 290.09C277.542 290.308 277.47 290.551 277.464 290.8C277.464 291.25 277.765 291.45 278.132 291.26L284.371 288.02C284.577 287.89 284.747 287.718 284.865 287.518C284.983 287.318 285.046 287.096 285.05 286.87C285.059 286.783 285.046 286.696 285.011 286.614C284.976 286.533 284.921 286.459 284.85 286.4C284.534 286.242 284.278 286.004 284.112 285.716C283.945 285.428 283.877 285.103 283.914 284.78Z" fill="#4A4A68"/>
<path id="Vector_115" d="M282.521 289.45C282.517 289.882 282.398 290.306 282.176 290.688C281.953 291.071 281.632 291.4 281.24 291.65C280.539 292.02 279.959 291.65 279.959 290.78L282.521 289.45Z" fill="#4A4A68"/>
<path id="Vector_116" d="M231.5 292.37C231.443 292.731 231.236 293.06 230.921 293.29C230.983 293.43 231.014 293.579 231.01 293.73C230.985 293.948 230.903 294.157 230.772 294.341C230.64 294.525 230.462 294.679 230.253 294.79L226.855 296.56V292.56C226.855 292.49 227.791 290.65 227.869 290.37C227.913 289.898 227.913 289.422 227.869 288.95C227.953 288.808 228.087 288.696 228.251 288.631C228.414 288.565 228.597 288.551 228.771 288.59C228.864 288.631 228.936 288.703 228.971 288.79C229.07 288.991 229.141 289.203 229.183 289.42C229.227 289.801 229.2 290.186 229.105 290.56L231.166 289.49C231.223 289.452 231.289 289.428 231.359 289.419C231.43 289.41 231.501 289.418 231.567 289.44C231.637 289.485 231.693 289.546 231.73 289.616C231.767 289.686 231.784 289.763 231.779 289.84C231.764 290.132 231.647 290.411 231.445 290.64C231.445 290.64 231.857 290.53 231.857 291.02C231.845 291.194 231.795 291.364 231.709 291.521C231.623 291.677 231.503 291.816 231.355 291.93C231.355 291.93 231.5 292 231.5 292.37Z" fill="#6AC8F7"/>
<path id="Vector_117" d="M226.365 296.3V297.15C226.361 297.21 226.342 297.268 226.309 297.32C226.276 297.372 226.23 297.416 226.175 297.45L225.061 298.02C224.999 298.035 224.934 298.035 224.872 298.02V293.44L225.763 292.98L226.298 292.7C226.313 292.759 226.313 292.821 226.298 292.88L226.365 296.3Z" fill="#6AC8F7"/>
<path id="Vector_118" d="M255.607 276.76C255.609 276.699 255.593 276.639 255.561 276.586C255.529 276.532 255.482 276.487 255.425 276.455C255.367 276.422 255.302 276.404 255.234 276.402C255.166 276.399 255.099 276.412 255.039 276.44C255.095 276.268 255.125 276.089 255.128 275.91C255.128 275.57 254.816 275.4 254.371 275.63L250.973 277.39V281.39C251.345 281.744 251.687 282.122 251.998 282.52C252.042 282.996 252.042 283.474 251.998 283.95C251.998 284.1 252.544 283.88 252.9 283.37C252.98 283.242 253.047 283.108 253.101 282.97C253.192 282.692 253.259 282.408 253.301 282.12C253.354 281.763 253.331 281.4 253.234 281.05L255.284 279.99C255.455 279.904 255.594 279.775 255.685 279.62C255.812 279.436 255.885 279.226 255.897 279.01C255.897 278.64 255.674 278.56 255.563 278.55C255.688 278.448 255.788 278.325 255.859 278.188C255.93 278.05 255.969 277.901 255.975 277.75C255.975 277.47 255.786 277.26 255.474 277.36C255.568 277.172 255.614 276.967 255.607 276.76Z" fill="#6AC8F7"/>
<path id="Vector_119" d="M250.483 278.15V277.31C250.483 277.2 250.394 277.15 250.282 277.21L249.168 277.77C249.095 277.817 249.028 277.871 248.968 277.93V282.51L249.87 282.05L250.394 281.77C250.425 281.696 250.444 281.619 250.449 281.54L250.483 278.15Z" fill="#6AC8F7"/>
<path id="Vector_120" d="M281.842 263.9L278.099 262.9V264.68C276.618 265.246 275.341 266.17 274.412 267.35C272.351 270.11 273.843 271.69 274.534 271.8C274.534 271.8 273.42 271.13 274.646 269.15C275.479 268.055 276.694 267.239 278.099 266.83V268.83L281.842 263.9Z" fill="#6AC8F7"/>
<path id="Vector_121" d="M236.981 286.09L241.526 283.74C242.963 282.99 244.122 283.52 244.122 284.92C244.058 285.703 243.79 286.461 243.339 287.133C242.888 287.805 242.267 288.373 241.526 288.79L236.981 291.14C235.544 291.89 234.385 291.36 234.385 289.96C234.449 289.177 234.718 288.419 235.169 287.747C235.62 287.075 236.241 286.507 236.981 286.09Z" fill="#6AC8F7"/>
<path id="Vector_122" d="M261.333 273.47L265.878 271.11C267.315 270.37 268.474 270.9 268.474 272.29C268.41 273.073 268.142 273.831 267.691 274.503C267.24 275.175 266.619 275.743 265.878 276.16L261.333 278.52C259.896 279.26 258.738 278.74 258.738 277.34C258.802 276.557 259.07 275.799 259.521 275.127C259.972 274.455 260.593 273.887 261.333 273.47Z" fill="#6AC8F7"/>
</g>
</g>
<g id="freepik--Video--inject-94">
<path id="Vector_123" d="M124.601 223L287.612 138.52C289.05 137.77 290.208 138.38 290.208 139.86V244.13C290.154 244.933 289.891 245.712 289.44 246.407C288.99 247.102 288.363 247.692 287.612 248.13L124.601 332.65C123.175 333.4 122.005 332.79 122.005 331.31V227C122.062 226.198 122.326 225.419 122.776 224.725C123.227 224.03 123.852 223.44 124.601 223Z" fill="#4A4A68"/>
<g id="freepik--Bar--inject-94">
<path id="Vector_124" opacity="0.3" d="M143.439 316.09L263.082 254.34C263.851 253.94 264.486 254.23 264.486 254.98C264.449 255.402 264.303 255.811 264.06 256.174C263.816 256.537 263.481 256.844 263.082 257.07L143.439 318.82C142.659 319.22 142.035 318.93 142.035 318.18C142.069 317.757 142.214 317.347 142.458 316.984C142.701 316.621 143.038 316.314 143.439 316.09Z" fill="white"/>
<path id="Vector_125" d="M143.439 316.09L251.307 260.44C252.087 260.04 252.711 260.33 252.711 261.08C252.677 261.503 252.532 261.913 252.288 262.276C252.044 262.639 251.708 262.946 251.307 263.17L143.439 318.82C142.659 319.22 142.035 318.93 142.035 318.18C142.069 317.757 142.214 317.347 142.458 316.984C142.701 316.621 143.038 316.314 143.439 316.09Z" fill="white"/>
<path id="Vector_126" d="M128.801 323.83V326.51C128.798 326.576 128.777 326.641 128.74 326.698C128.703 326.756 128.651 326.804 128.589 326.84L128.01 327.14C127.989 327.154 127.964 327.162 127.938 327.163C127.912 327.164 127.886 327.159 127.864 327.147C127.842 327.135 127.823 327.118 127.812 327.097C127.8 327.076 127.795 327.053 127.798 327.03V324.35C127.804 324.284 127.825 324.221 127.862 324.163C127.899 324.106 127.949 324.057 128.01 324.02L128.589 323.72C128.712 323.66 128.801 323.71 128.801 323.83Z" fill="white"/>
<path id="Vector_127" d="M130.806 322.79V325.47C130.803 325.536 130.782 325.601 130.745 325.658C130.708 325.716 130.657 325.764 130.594 325.8L130.026 326.1C129.903 326.16 129.803 326.1 129.803 325.99V323.31C129.808 323.243 129.831 323.178 129.87 323.121C129.909 323.063 129.962 323.015 130.026 322.98L130.594 322.68C130.717 322.62 130.806 322.67 130.806 322.79Z" fill="white"/>
<path id="Vector_128" d="M138.782 318.74V321.42C138.777 321.486 138.755 321.549 138.718 321.607C138.681 321.664 138.631 321.713 138.57 321.75L138.314 321.89C138.192 321.95 138.103 321.89 138.103 321.78V319.1C138.105 319.034 138.126 318.969 138.163 318.912C138.2 318.854 138.252 318.806 138.314 318.77L138.57 318.63C138.591 318.616 138.616 318.608 138.642 318.607C138.668 318.606 138.694 318.611 138.716 318.623C138.739 318.635 138.757 318.652 138.768 318.673C138.78 318.693 138.785 318.717 138.782 318.74Z" fill="white"/>
<path id="Vector_129" d="M134.571 320.82V323.45C134.571 323.64 134.683 323.68 134.827 323.53L137.523 320.74C137.668 320.59 137.601 320.47 137.39 320.47H134.961C134.858 320.47 134.758 320.507 134.685 320.572C134.612 320.638 134.571 320.727 134.571 320.82Z" fill="white"/>
<path id="Vector_130" d="M278.5 246.83C278.408 246.83 278.32 246.797 278.256 246.739C278.191 246.681 278.155 246.602 278.155 246.52V245.64C278.155 245.587 278.17 245.536 278.199 245.49C278.229 245.444 278.271 245.406 278.322 245.38L279.915 244.56C279.952 244.539 279.994 244.525 280.038 244.519C280.082 244.513 280.127 244.515 280.17 244.526C280.213 244.536 280.253 244.554 280.287 244.579C280.322 244.604 280.351 244.635 280.371 244.67C280.413 244.739 280.423 244.821 280.401 244.897C280.378 244.973 280.324 245.038 280.249 245.08L278.834 245.81V246.52C278.834 246.6 278.799 246.678 278.737 246.736C278.675 246.794 278.59 246.827 278.5 246.83Z" fill="#FAFAFA"/>
<path id="Vector_131" d="M285.719 243.09C285.63 243.09 285.545 243.058 285.482 243.002C285.42 242.946 285.384 242.87 285.384 242.79V242.42L284.27 242.98C284.232 243 284.19 243.013 284.147 243.018C284.103 243.023 284.059 243.02 284.017 243.01C283.974 243 283.934 242.982 283.9 242.958C283.865 242.934 283.836 242.904 283.814 242.87C283.79 242.836 283.775 242.798 283.768 242.759C283.762 242.72 283.764 242.68 283.776 242.641C283.787 242.603 283.807 242.567 283.835 242.535C283.863 242.504 283.897 242.479 283.936 242.46L285.518 241.64C285.568 241.61 285.626 241.594 285.685 241.594C285.745 241.594 285.803 241.61 285.852 241.64C285.905 241.665 285.948 241.702 285.978 241.748C286.008 241.794 286.022 241.847 286.019 241.9V242.79C286.02 242.865 285.989 242.937 285.934 242.992C285.878 243.048 285.801 243.083 285.719 243.09Z" fill="#FAFAFA"/>
<path id="Vector_132" d="M278.5 250.86C278.445 250.871 278.388 250.871 278.333 250.86C278.281 250.834 278.237 250.797 278.206 250.751C278.174 250.705 278.157 250.653 278.155 250.6V249.71C278.169 249.639 278.211 249.574 278.273 249.527C278.335 249.481 278.413 249.455 278.494 249.455C278.575 249.455 278.653 249.481 278.716 249.527C278.778 249.574 278.82 249.639 278.834 249.71V250L279.948 249.44C280.026 249.403 280.116 249.393 280.201 249.414C280.286 249.434 280.359 249.483 280.405 249.55C280.447 249.621 280.458 249.704 280.435 249.781C280.412 249.859 280.358 249.927 280.282 249.97L278.7 250.79C278.641 250.827 278.572 250.851 278.5 250.86Z" fill="#FAFAFA"/>
<path id="Vector_133" d="M284.137 247.94C284.063 247.94 283.992 247.918 283.933 247.878C283.875 247.838 283.833 247.781 283.814 247.718C283.795 247.654 283.8 247.586 283.828 247.525C283.856 247.464 283.906 247.413 283.97 247.38L285.384 246.64V245.93C285.384 245.85 285.42 245.774 285.482 245.718C285.545 245.662 285.63 245.63 285.719 245.63C285.807 245.63 285.892 245.662 285.955 245.718C286.018 245.774 286.053 245.85 286.053 245.93V246.82C286.055 246.873 286.041 246.926 286.011 246.972C285.982 247.018 285.938 247.055 285.886 247.08L284.304 247.9C284.254 247.927 284.196 247.941 284.137 247.94Z" fill="#FAFAFA"/>
<path id="Vector_134" d="M274.868 250.08H274.813H274.167C274.152 250.081 274.138 250.08 274.125 250.076C274.111 250.072 274.099 250.066 274.088 250.057C274.078 250.049 274.069 250.039 274.064 250.027C274.058 250.015 274.055 250.003 274.055 249.99C274.061 249.9 274.061 249.81 274.055 249.72C274.055 249.62 274.055 249.52 274.055 249.43C274.053 249.368 274.077 249.307 274.122 249.26L274.835 248.48C274.85 248.455 274.857 248.428 274.857 248.4C274.857 248.372 274.85 248.345 274.835 248.32L274.501 247.64C274.501 247.64 274.434 247.64 274.4 247.64L273.632 248.27C273.606 248.286 273.575 248.295 273.543 248.295C273.511 248.295 273.48 248.286 273.454 248.27C273.358 248.196 273.249 248.138 273.131 248.1C273.104 248.091 273.082 248.074 273.068 248.052C273.054 248.031 273.048 248.005 273.053 247.98L273.286 246.98C273.286 246.98 273.286 246.93 273.286 246.91H273.22L272.462 246.98C272.429 246.984 272.398 246.996 272.371 247.013C272.344 247.031 272.322 247.053 272.306 247.08L271.894 248.08C271.862 248.148 271.802 248.202 271.727 248.23C271.567 248.297 271.414 248.377 271.27 248.47C271.203 248.47 271.136 248.47 271.103 248.47L270.724 247.95C270.724 247.95 270.635 247.95 270.579 247.95L269.755 248.73C269.709 248.777 269.685 248.838 269.688 248.9L269.922 249.6C269.942 249.652 269.942 249.708 269.922 249.76C269.789 249.96 269.655 250.15 269.543 250.36C269.502 250.418 269.439 250.46 269.365 250.48L268.663 250.63C268.627 250.637 268.593 250.651 268.564 250.672C268.535 250.693 268.512 250.719 268.496 250.75L268.14 251.82C268.136 251.832 268.136 251.845 268.139 251.857C268.142 251.869 268.148 251.88 268.156 251.89C268.165 251.9 268.176 251.907 268.189 251.913C268.201 251.918 268.215 251.92 268.229 251.92H268.875C268.905 251.92 268.933 251.931 268.954 251.949C268.975 251.968 268.986 251.993 268.986 252.02C268.964 252.203 268.964 252.387 268.986 252.57C268.987 252.632 268.963 252.692 268.92 252.74L268.196 253.53C268.181 253.555 268.173 253.582 268.173 253.61C268.173 253.638 268.181 253.665 268.196 253.69L268.541 254.37C268.541 254.37 268.597 254.37 268.63 254.37L269.399 253.74C269.422 253.723 269.452 253.714 269.482 253.714C269.513 253.714 269.542 253.723 269.566 253.74C269.664 253.813 269.773 253.873 269.889 253.92C269.917 253.927 269.94 253.943 269.955 253.966C269.969 253.988 269.974 254.015 269.967 254.04L269.733 255.04C269.733 255.04 269.733 255.09 269.733 255.11H269.8L270.557 255.04C270.592 255.038 270.626 255.028 270.656 255.01C270.685 254.993 270.709 254.968 270.724 254.94L271.125 253.94C271.164 253.879 271.222 253.83 271.292 253.8L271.526 253.68L271.76 253.56C271.76 253.56 271.894 253.51 271.916 253.56L272.306 254.09C272.325 254.1 272.346 254.105 272.367 254.105C272.389 254.105 272.41 254.1 272.429 254.09L273.253 253.31C273.277 253.29 273.296 253.265 273.308 253.237C273.319 253.209 273.323 253.179 273.32 253.15L273.086 252.45C273.066 252.395 273.066 252.335 273.086 252.28C273.227 252.091 273.354 251.894 273.465 251.69C273.506 251.632 273.569 251.589 273.643 251.57L274.356 251.42C274.423 251.42 274.501 251.35 274.512 251.3L274.868 250.22C274.889 250.22 274.909 250.213 274.924 250.199C274.938 250.186 274.946 250.169 274.946 250.15C274.946 250.131 274.938 250.114 274.924 250.1C274.909 250.087 274.889 250.08 274.868 250.08ZM271.092 252.7H270.813C270.661 252.699 270.512 252.657 270.385 252.581C270.258 252.505 270.159 252.396 270.1 252.27C270.045 252.159 270.011 252.041 270 251.92C269.995 251.853 269.995 251.787 270 251.72C270.042 251.001 270.37 250.32 270.925 249.8C271.091 249.64 271.283 249.502 271.493 249.39L271.682 249.3C271.85 249.232 272.033 249.197 272.217 249.2H272.306C272.438 249.216 272.562 249.263 272.666 249.337C272.77 249.411 272.85 249.509 272.897 249.62C273.015 250.058 273.003 250.516 272.86 250.948C272.717 251.381 272.449 251.771 272.083 252.08C271.827 252.369 271.483 252.585 271.092 252.7Z" fill="white"/>
</g>
<g id="freepik--Steps--inject-94">
<path id="Vector_135" d="M234.798 175.9C238.318 174.07 241.181 175.55 241.181 179.2C241.059 181.187 240.417 183.121 239.309 184.844C238.2 186.567 236.654 188.032 234.798 189.12C231.278 190.95 228.415 189.47 228.415 185.81C228.536 183.824 229.177 181.892 230.286 180.17C231.395 178.448 232.941 176.985 234.798 175.9Z" fill="#6AC8F7"/>
<path id="1" d="M235.575 177.529V184.787L234.216 185.501V179.699L234.178 179.719L232.707 181.533V180.172L234.298 178.199L235.575 177.529Z" fill="#4A4A68"/>
<path id="Vector_136" d="M249.09 171.35L280.048 155.35C280.906 154.91 281.586 155.22 281.586 156.05C281.55 156.512 281.392 156.961 281.125 157.357C280.858 157.754 280.489 158.087 280.048 158.33L249.09 174.33C248.244 174.77 247.553 174.46 247.553 173.63C247.596 173.169 247.758 172.724 248.024 172.328C248.291 171.933 248.656 171.598 249.09 171.35Z" fill="#6AC8F7"/>
<path id="Vector_137" d="M248.611 176.71L269.855 165.71C270.435 165.41 270.914 165.62 270.914 166.19C270.89 166.509 270.781 166.817 270.597 167.09C270.413 167.363 270.159 167.593 269.855 167.76L248.611 178.76C248.032 179.06 247.553 178.85 247.553 178.28C247.577 177.961 247.686 177.653 247.87 177.38C248.054 177.106 248.308 176.877 248.611 176.71Z" fill="#6AC8F7"/>
<path id="Vector_138" d="M234.798 195.75C238.318 193.93 241.181 195.41 241.181 199.06C241.059 201.047 240.417 202.981 239.309 204.704C238.2 206.427 236.654 207.892 234.798 208.98C231.278 210.8 228.415 209.32 228.415 205.67C228.537 203.683 229.178 201.749 230.287 200.026C231.396 198.303 232.941 196.838 234.798 195.75Z" fill="#6AC8F7"/>
<path id="2" d="M232.779 206.115V205.009L235.067 201.416C235.261 201.101 235.424 200.824 235.556 200.585C235.69 200.345 235.791 200.125 235.861 199.926C235.93 199.724 235.964 199.527 235.964 199.336C235.964 199.123 235.921 198.963 235.835 198.854C235.75 198.743 235.632 198.686 235.484 198.681C235.335 198.674 235.167 198.72 234.979 198.818C234.782 198.922 234.61 199.056 234.464 199.223C234.318 199.39 234.205 199.578 234.125 199.787C234.046 199.997 234.006 200.217 234.006 200.449L232.716 201.126C232.716 200.651 232.811 200.189 233.002 199.739C233.192 199.289 233.459 198.879 233.802 198.507C234.145 198.136 234.54 197.833 234.988 197.598C235.448 197.356 235.849 197.238 236.19 197.243C236.533 197.245 236.8 197.358 236.99 197.582C237.181 197.806 237.276 198.127 237.276 198.545C237.276 198.819 237.228 199.115 237.131 199.432C237.037 199.749 236.869 200.134 236.626 200.587C236.384 201.038 236.041 201.606 235.6 202.292L234.662 203.822V203.872L237.361 202.456V203.71L232.779 206.115Z" fill="#4A4A68"/>
<path id="Vector_139" d="M249.09 191.2L280.048 175.2C280.906 174.76 281.586 175.07 281.586 175.89C281.55 176.354 281.392 176.803 281.125 177.202C280.858 177.6 280.489 177.935 280.048 178.18L249.09 194.19C248.244 194.63 247.553 194.32 247.553 193.49C247.595 193.028 247.755 192.58 248.022 192.183C248.289 191.785 248.654 191.449 249.09 191.2Z" fill="#6AC8F7"/>
<path id="Vector_140" d="M248.611 196.57L269.855 185.57C270.435 185.26 270.914 185.48 270.914 186.04C270.89 186.359 270.781 186.667 270.597 186.94C270.413 187.214 270.159 187.443 269.855 187.61L248.611 198.61C248.032 198.91 247.553 198.69 247.553 198.13C247.579 197.813 247.688 197.506 247.872 197.235C248.056 196.964 248.31 196.736 248.611 196.57Z" fill="#6AC8F7"/>
<path id="Vector_141" d="M234.798 215.61C238.318 213.78 241.181 215.26 241.181 218.92C241.06 220.906 240.419 222.838 239.31 224.56C238.201 226.282 236.655 227.745 234.798 228.83C231.278 230.66 228.415 229.18 228.415 225.53C228.537 223.543 229.178 221.609 230.287 219.886C231.396 218.163 232.941 216.698 234.798 215.61Z" fill="#6AC8F7"/>
<path id="3" d="M235.154 224.827C234.686 225.073 234.268 225.201 233.902 225.212C233.538 225.218 233.251 225.116 233.039 224.906C232.83 224.692 232.722 224.375 232.716 223.956L234.084 223.238C234.093 223.41 234.144 223.539 234.238 223.625C234.334 223.707 234.462 223.742 234.621 223.732C234.78 223.722 234.959 223.665 235.158 223.56C235.365 223.452 235.548 223.314 235.707 223.148C235.866 222.982 235.99 222.802 236.08 222.608C236.17 222.415 236.215 222.222 236.215 222.031C236.215 221.837 236.167 221.691 236.071 221.593C235.977 221.491 235.841 221.444 235.663 221.452C235.487 221.459 235.278 221.527 235.035 221.654L234.436 221.969V220.842L235.035 220.527C235.24 220.419 235.421 220.284 235.578 220.122C235.737 219.958 235.861 219.782 235.948 219.594C236.036 219.404 236.08 219.213 236.08 219.022C236.08 218.84 236.041 218.701 235.964 218.604C235.889 218.504 235.782 218.452 235.644 218.446C235.508 218.44 235.349 218.484 235.167 218.58C234.983 218.676 234.814 218.802 234.662 218.958C234.509 219.111 234.387 219.281 234.295 219.466C234.202 219.652 234.153 219.838 234.147 220.026L232.845 220.709C232.851 220.288 232.957 219.864 233.162 219.437C233.367 219.01 233.643 218.616 233.99 218.254C234.34 217.889 234.734 217.591 235.173 217.361C235.617 217.128 236.005 217.015 236.338 217.022C236.67 217.03 236.929 217.14 237.113 217.353C237.299 217.562 237.391 217.859 237.389 218.243C237.391 218.648 237.279 219.046 237.053 219.436C236.829 219.825 236.537 220.151 236.177 220.413V220.47C236.65 220.29 237.01 220.287 237.257 220.46C237.506 220.629 237.629 220.94 237.627 221.392C237.629 221.805 237.524 222.228 237.31 222.661C237.099 223.093 236.807 223.499 236.435 223.879C236.062 224.259 235.636 224.575 235.154 224.827Z" fill="#4A4A68"/>
<path id="Vector_142" d="M249.09 211.06L280.048 195C280.906 194.56 281.586 194.88 281.586 195.7C281.549 196.164 281.391 196.613 281.124 197.011C280.857 197.409 280.488 197.745 280.048 197.99L249.09 214.05C248.244 214.49 247.553 214.17 247.553 213.35C247.595 212.888 247.755 212.44 248.022 212.043C248.289 211.645 248.654 211.309 249.09 211.06Z" fill="#6AC8F7"/>
<path id="Vector_143" d="M248.611 216.43L269.855 205.43C270.435 205.13 270.914 205.35 270.914 205.91C270.89 206.228 270.781 206.537 270.597 206.81C270.413 207.083 270.159 207.313 269.855 207.48L248.611 218.48C248.032 218.79 247.553 218.57 247.553 218.01C247.575 217.69 247.683 217.379 247.867 217.104C248.052 216.829 248.307 216.598 248.611 216.43Z" fill="#6AC8F7"/>
</g>
</g>
<g id="freepik--Character--inject-94">
<path id="Vector_144" d="M207.204 242.12C199.673 242.94 179.41 243.59 179.41 243.59C166.042 238.32 155.592 226.76 154.267 213.73L153.687 208.12C152.573 197.48 161.096 187.55 172.447 184.35C175.775 183.379 179.304 183.093 182.772 183.514C186.24 183.935 189.557 185.051 192.479 186.78C195.4 188.509 197.85 190.807 199.647 193.502C201.444 196.198 202.542 199.222 202.859 202.35C203.138 205.11 203.973 207.55 206.458 209.35C207.846 210.242 209.341 210.993 210.914 211.59C213.175 212.481 215.233 213.738 216.985 215.3C217.853 216.087 218.531 217.025 218.978 218.058C219.424 219.09 219.63 220.194 219.581 221.3C219.404 222.723 218.782 224.071 217.787 225.19C217.598 225.353 217.486 225.575 217.475 225.81C217.515 225.975 217.603 226.127 217.731 226.25C220.037 228.9 221.252 232.56 219.87 235.68C218.908 237.636 217.219 239.23 215.091 240.19C212.966 241.138 210.675 241.75 208.318 242L207.204 242.12Z" fill="#263238"/>
<path id="Vector_145" d="M272.373 223.26C271.98 222.776 271.528 222.333 271.025 221.94C270.145 221.21 268.931 220.54 267.806 220.94C267.145 221.233 266.601 221.701 266.246 222.28C265.533 223.22 264.686 224.09 264.018 225.06C263.103 226.476 262.048 227.815 260.865 229.06C260.364 229.6 259.64 230.34 258.782 230.11C258.629 230.071 258.49 229.995 258.381 229.89C258.288 229.778 258.227 229.648 258.203 229.51C258.098 228.843 258.139 228.163 258.325 227.51C258.505 226.853 258.505 226.167 258.325 225.51C258.224 225.188 258.008 224.904 257.71 224.702C257.413 224.5 257.05 224.39 256.677 224.39C256.469 224.401 256.273 224.483 256.131 224.62C256.033 224.716 255.958 224.828 255.908 224.95C254.451 227.54 253.39 230.295 252.755 233.14C252.611 234.399 252.357 235.646 251.998 236.87C251.051 239.51 247.609 240.87 245.191 242.4C239.928 245.512 234.492 248.382 228.905 251C226.164 248.84 208.853 235.28 204.074 231.7C197.189 226.56 189.881 228.86 188.89 228.93C187.898 229 186.584 234.93 194.683 243.53C194.683 243.53 219.937 262.71 224.761 265.2C225.953 265.81 227.568 267.08 229.517 267.01H229.584H229.829C230.091 266.991 230.349 266.944 230.598 266.87C232.993 266.18 236.413 263.52 237.85 262.52C245.092 257.289 252.03 251.728 258.637 245.86C260.52 244.22 262.659 242.86 264.698 241.37C267.376 239.547 269.644 237.283 271.382 234.7C272.707 232.884 273.514 230.803 273.732 228.64C273.979 226.76 273.499 224.861 272.373 223.26Z" fill="#FFA8A7"/>
<path id="Vector_146" d="M162.009 275.29C156.049 287.29 154.601 294.29 154.133 300.82C153.665 307.35 154.356 317.23 154.356 317.23L206.97 290C205.8 283.346 204.072 276.781 201.801 270.36L162.009 275.29Z" fill="#6AC8F7"/>
<path id="Vector_147" d="M201.879 255.52L201.567 267.9C202.258 270.33 203.361 274.3 204.597 277.9C203.817 280.09 198.058 285.98 185.826 289.63C172.904 293.49 158.166 289.51 156.528 286.63L161.652 274.98C161.652 274.98 157.196 259.53 157.13 259.34C157.063 259.15 161.909 252.87 162.232 245.34C162.555 237.81 160.238 234.58 159.502 233.86C159.837 233.73 167.378 231.86 167.378 231.86L182.417 229.16L189.491 228.75C195.384 231.461 200.158 235.792 203.116 241.11C204.483 243.362 205.094 245.922 204.874 248.479C204.655 251.037 203.615 253.482 201.879 255.52Z" fill="#FAFAFA"/>
<path id="Vector_148" d="M193.323 193.4C194.894 194.84 198.069 198.29 197.779 210.8C197.479 221.41 193.647 224.02 191.719 224.8C189.792 225.58 186.082 225.08 182.484 224.54V229.71C182.484 229.71 187.586 232.9 188.867 235.79C189.87 238.04 183.498 241.18 173.828 237.44C169.874 235.91 166.688 232.02 166.688 232.02L166.81 216.7C166.81 216.7 164.683 218.54 161.095 215.7C158.132 213.37 157.141 209.43 159.458 207.33C160.06 206.83 160.785 206.466 161.575 206.267C162.364 206.068 163.195 206.04 163.998 206.186C164.802 206.331 165.556 206.646 166.198 207.104C166.839 207.562 167.351 208.15 167.69 208.82C172.645 208.888 177.529 207.755 181.827 205.54C189.436 201.76 192.811 197.52 193.323 193.4Z" fill="#FFA8A7"/>
<path id="Vector_149" d="M184.367 208.89C184.369 209.15 184.285 209.406 184.127 209.624C183.969 209.842 183.743 210.014 183.477 210.118C183.211 210.222 182.916 210.253 182.631 210.208C182.345 210.164 182.08 210.044 181.869 209.866C181.658 209.687 181.51 209.457 181.443 209.203C181.377 208.95 181.394 208.685 181.494 208.44C181.594 208.196 181.772 207.983 182.005 207.828C182.239 207.673 182.518 207.584 182.807 207.57C183.006 207.565 183.204 207.595 183.391 207.658C183.577 207.722 183.747 207.817 183.892 207.94C184.037 208.062 184.153 208.209 184.235 208.372C184.316 208.536 184.361 208.711 184.367 208.89Z" fill="#263238"/>
<path id="Vector_150" d="M183.231 216.75L188.801 217.66C188.751 217.993 188.627 218.313 188.436 218.602C188.245 218.891 187.991 219.142 187.689 219.341C187.388 219.54 187.045 219.682 186.681 219.759C186.317 219.836 185.939 219.847 185.57 219.79C184.817 219.654 184.153 219.261 183.716 218.694C183.28 218.127 183.106 217.43 183.231 216.75Z" fill="#B16668"/>
<path id="Vector_151" d="M185.581 219.79C185.949 219.859 186.328 219.859 186.695 219.79C186.667 219.228 186.399 218.698 185.946 218.309C185.494 217.92 184.893 217.702 184.267 217.7C183.929 217.697 183.595 217.758 183.286 217.88C183.429 218.361 183.72 218.795 184.126 219.133C184.532 219.471 185.037 219.699 185.581 219.79Z" fill="#F28F8F"/>
<path id="Vector_152" d="M196.175 204.61L192.833 203.38C192.911 203.178 193.034 202.992 193.194 202.834C193.355 202.677 193.549 202.55 193.766 202.462C193.983 202.374 194.218 202.326 194.456 202.323C194.694 202.319 194.93 202.359 195.15 202.44C195.597 202.617 195.952 202.939 196.142 203.343C196.333 203.746 196.344 204.199 196.175 204.61Z" fill="#263238"/>
<path id="Vector_153" d="M195.395 207.91C195.395 208.17 195.31 208.424 195.15 208.641C194.991 208.858 194.764 209.028 194.497 209.131C194.231 209.233 193.937 209.263 193.652 209.217C193.367 209.171 193.103 209.051 192.893 208.872C192.683 208.693 192.537 208.463 192.471 208.21C192.405 207.957 192.424 207.692 192.524 207.448C192.624 207.204 192.802 206.992 193.035 206.837C193.268 206.683 193.547 206.594 193.836 206.58C194.239 206.572 194.629 206.707 194.921 206.956C195.213 207.206 195.384 207.548 195.395 207.91Z" fill="#263238"/>
<path id="Vector_154" d="M188.433 207.37L189.458 215.13L193.914 213.23L188.433 207.37Z" fill="#F28F8F"/>
<path id="Vector_155" d="M182.429 224.51C178.63 224.05 170.821 222.02 169.606 219.24C170.089 220.646 171.042 221.886 172.336 222.79C174.664 224.59 182.417 226.63 182.417 226.63L182.429 224.51Z" fill="#F28F8F"/>
<path id="Vector_156" d="M167.1 212.68C168.072 212.606 168.971 212.188 169.6 211.518C170.229 210.849 170.536 209.983 170.453 209.11C170.37 208.237 169.905 207.43 169.159 206.866C168.413 206.301 167.448 206.026 166.476 206.1L167.1 212.68Z" fill="#263238"/>
<path id="Vector_157" d="M129.224 281.74C130.862 290.55 134.449 298.74 145.21 315.15C146.44 317.155 147.936 319.019 149.666 320.7C151.482 322.464 153.686 323.87 156.138 324.83C157.57 325.369 159.162 325.464 160.661 325.1C163.58 324.47 166.064 322.44 166.287 321.19C166.588 319.51 163.234 317.81 161.92 316.59C160.806 315.59 158.578 313.9 157.831 312.98C157.085 312.06 156.238 311.32 157.174 311.35C157.742 311.35 158.288 311.54 158.834 311.6C159.301 311.64 159.771 311.64 160.238 311.6C160.706 311.63 161.176 311.568 161.615 311.417C162.054 311.267 162.451 311.033 162.778 310.73C162.916 310.578 163.002 310.392 163.024 310.197C163.045 310.001 163.002 309.804 162.9 309.63C162.685 309.391 162.399 309.211 162.076 309.11C161.046 308.76 160.045 308.346 159.079 307.87C158.118 307.375 157.192 306.827 156.305 306.23C154.946 305.23 153.097 304.15 152.261 302.76C150.171 299.398 148.583 295.804 147.538 292.07C146.781 289.47 145.31 284.48 144.553 279.75C144.798 279.15 148.195 273.54 150.39 270.28C153.543 265.59 156.55 261.57 159.458 257.39C165.596 250.67 165.028 237.86 159.592 233.87C150.033 236.07 147.282 239.76 144.129 245.23C141.055 250.55 132.789 265.39 130.059 272.72C128.956 275.619 128.669 278.717 129.224 281.74Z" fill="#FFA8A7"/>
</g>
<g id="freepik--Scissors--inject-94">
<g id="freepik--scissors--inject-94">
<path id="Vector_158" d="M407.724 406.84L499.852 388.52L500.041 390.76C500.041 390.76 498.069 393.76 476.547 399.48C455.024 405.2 401.797 415.31 401.797 415.31L399.569 412.66L407.724 406.84Z" fill="#263238"/>
<path id="Vector_159" d="M473.829 370.17C473.829 370.17 468.37 377.9 461.931 382.44C455.492 386.98 421.014 413.81 421.014 413.81L409.874 419.34L406.532 417.61L411.545 407.14C411.545 407.14 450.479 382.35 458.901 377.14C467.323 371.93 474.909 368.73 473.829 370.17Z" fill="#37474F"/>
<path id="Vector_160" d="M406.554 415.17L409.896 416.9L409.027 418.89L406.554 417.61V415.17Z" fill="#263238"/>
<path id="Vector_161" d="M473.918 367.48V369.96L471.144 373.61V369.77L473.918 367.48Z" fill="#37474F"/>
<path id="Vector_162" d="M419.978 446.54C424.267 440.54 419.265 434.89 419.755 429.75C420.245 424.61 421.003 413.81 421.003 413.81L409.863 419.34C409.863 419.34 406.164 427.82 404.627 431.39C403.09 434.96 396.45 438.73 392.373 441.81C388.296 444.89 384.876 452.25 396.261 455.12C407.646 457.99 415.7 452.51 419.978 446.54ZM399.926 451.12C395.537 449.98 394.222 446.75 396.985 443.9C399.748 441.05 405.54 439.66 409.93 440.8C414.319 441.94 415.622 445.18 412.859 448.03C410.097 450.88 404.382 452.26 399.926 451.12Z" fill="#6AC8F7"/>
<path id="Vector_163" opacity="0.2" d="M419.978 446.54C424.267 440.54 419.265 434.89 419.755 429.75C420.245 424.61 421.003 413.81 421.003 413.81L409.863 419.34C409.863 419.34 406.164 427.82 404.627 431.39C403.09 434.96 396.45 438.73 392.373 441.81C388.296 444.89 384.876 452.25 396.261 455.12C407.646 457.99 415.7 452.51 419.978 446.54ZM399.926 451.12C395.537 449.98 394.222 446.75 396.985 443.9C399.748 441.05 405.54 439.66 409.93 440.8C414.319 441.94 415.622 445.18 412.859 448.03C410.097 450.88 404.382 452.26 399.926 451.12Z" fill="black"/>
<path id="Vector_164" d="M420.435 410.07C419.807 410.537 419.058 410.853 418.257 410.989C417.457 411.126 416.631 411.078 415.856 410.85C414.174 410.42 413.494 409.35 414.341 408.48C414.969 408.013 415.718 407.697 416.518 407.561C417.319 407.424 418.145 407.472 418.92 407.7C420.602 408.13 421.281 409.2 420.435 410.07Z" fill="#263238"/>
<path id="Vector_165" d="M407.635 405.65C407.635 405.65 394.467 407.83 390.134 408.19C385.8 408.55 379.529 407.72 368.689 408.61C357.85 409.5 338.333 417.85 337.33 425.95C336.328 434.05 345.685 434.65 352.403 433.2C359.12 431.75 362.841 429.52 374.349 424.35C389.711 417.46 399.904 413.09 399.904 413.09L408.515 406.69L407.635 405.65ZM382.102 416.57C375.839 418.395 369.726 420.614 363.81 423.21C356.469 426.47 354.709 428.68 350.119 429.65C346.387 430.44 342.7 428.56 344.549 424.88C346.543 420.96 352.057 416.88 362.206 413.88C372.354 410.88 380.687 411.44 384.397 413.2C385.878 413.92 386.558 415.26 382.102 416.57Z" fill="#6AC8F7"/>
<path id="Vector_166" opacity="0.2" d="M407.635 405.65C407.635 405.65 394.467 407.83 390.134 408.19C385.8 408.55 379.529 407.72 368.689 408.61C357.85 409.5 338.333 417.85 337.33 425.95C336.328 434.05 345.685 434.65 352.403 433.2C359.12 431.75 362.841 429.52 374.349 424.35C389.711 417.46 399.904 413.09 399.904 413.09L408.515 406.69L407.635 405.65ZM382.102 416.57C375.839 418.395 369.726 420.614 363.81 423.21C356.469 426.47 354.709 428.68 350.119 429.65C346.387 430.44 342.7 428.56 344.549 424.88C346.543 420.96 352.057 416.88 362.206 413.88C372.354 410.88 380.687 411.44 384.397 413.2C385.878 413.92 386.558 415.26 382.102 416.57Z" fill="black"/>
<path id="Vector_167" d="M401.753 415.31V412.87L399.904 410.65V413.09L401.753 415.31Z" fill="#263238"/>
<path id="Vector_168" d="M407.724 404.4L500.041 388.32C500.041 388.32 498.069 391.32 476.547 397.05C455.024 402.78 401.797 412.87 401.797 412.87L399.569 410.22L407.724 404.4Z" fill="#37474F"/>
<path id="Vector_169" d="M473.829 367.73C473.829 367.73 468.37 375.47 461.931 380.01C455.492 384.55 421.014 411.38 421.014 411.38L409.874 416.9L406.532 415.17L411.545 404.7C411.545 404.7 450.479 379.91 458.901 374.7C467.323 369.49 474.909 366.29 473.829 367.73Z" fill="#4A4A68"/>
<path id="Vector_170" d="M419.978 444.1C424.267 438.1 419.265 432.45 419.755 427.31C420.245 422.17 421.003 411.38 421.003 411.38L409.863 416.9C409.863 416.9 406.164 425.38 404.627 428.96C403.09 432.54 396.45 436.29 392.373 439.37C388.296 442.45 384.876 449.81 396.261 452.69C407.646 455.57 415.7 450.07 419.978 444.1ZM399.926 448.69C395.537 447.55 394.222 444.31 396.985 441.46C399.748 438.61 405.54 437.23 409.93 438.37C414.319 439.51 415.622 442.74 412.859 445.59C410.097 448.44 404.382 449.83 399.926 448.69Z" fill="#6AC8F7"/>
<path id="Vector_171" d="M420.435 407.63C419.808 408.098 419.059 408.416 418.259 408.555C417.458 408.693 416.631 408.646 415.856 408.42C414.174 407.98 413.494 406.92 414.341 406.04C414.969 405.573 415.718 405.257 416.518 405.121C417.319 404.984 418.145 405.032 418.92 405.26C420.602 405.7 421.281 406.76 420.435 407.63Z" fill="#263238"/>
<path id="Vector_172" d="M407.635 403.21C407.635 403.21 394.467 405.4 390.134 405.76C385.8 406.12 379.529 405.29 368.689 406.17C357.85 407.05 338.333 415.41 337.33 423.51C336.328 431.61 345.685 432.22 352.403 430.76C359.12 429.3 362.841 427.08 374.349 421.92C389.711 415 399.926 410.65 399.926 410.65L408.537 404.26L407.635 403.21ZM382.102 414.13C375.837 415.955 369.724 418.177 363.81 420.78C356.469 424.03 354.709 426.24 350.119 427.21C346.387 428.01 342.7 426.12 344.549 422.44C346.543 418.53 352.057 414.44 362.206 411.49C372.354 408.54 380.687 409.04 384.397 410.8C385.878 411.48 386.558 412.82 382.102 414.13Z" fill="#6AC8F7"/>
</g>
</g>
<g id="freepik--Pencil--inject-94">
<g id="freepik--pencil--inject-94">
<path id="Vector_173" d="M326.057 378.86L352.937 374.13C353.108 374.102 353.283 374.123 353.44 374.188C353.597 374.254 353.727 374.362 353.813 374.497C353.898 374.632 353.935 374.788 353.918 374.942C353.901 375.097 353.831 375.243 353.717 375.36L335.481 393.89L326.057 378.86Z" fill="#FFA8A7"/>
<path id="Vector_174" d="M353.717 375.36C353.831 375.243 353.901 375.097 353.918 374.942C353.935 374.788 353.898 374.632 353.813 374.497C353.727 374.362 353.597 374.254 353.44 374.188C353.283 374.123 353.108 374.102 352.937 374.13L347.69 375.06C348.412 375.459 348.997 376.03 349.378 376.71C349.76 377.39 349.924 378.152 349.852 378.91V379.33L353.717 375.36Z" fill="#263238"/>
<path id="Vector_175" d="M234.319 446L236.547 444.87L239.209 443.51L335.514 393.94C336.397 391.284 336.131 388.427 334.768 385.94C332.863 382.11 329.198 379.09 326.101 378.94L229.84 428.48L224.738 431C228.125 429.5 237.694 444.39 234.319 446Z" fill="#6AC8F7"/>
<path id="Vector_176" d="M242.707 441.67L247.609 439.14C249.057 438.45 248.221 435.25 246.495 431.95C244.267 427.56 239.811 423.3 237.928 424.22L234.308 426.08L233.026 426.77C234.943 425.85 239.365 430.1 241.604 434.5C243.22 437.66 244.044 440.75 242.819 441.58C242.792 441.619 242.753 441.651 242.707 441.67Z" fill="#EBEBEB"/>
<path id="Vector_177" d="M243.966 441C247.308 439.4 237.694 424.49 234.319 426.09L229.406 428.62C232.748 427.01 242.418 441.92 239.042 443.52L243.966 441Z" fill="#6AC8F7"/>
<path id="Vector_178" d="M234.319 446L239.176 443.51C242.518 441.96 233.327 427.51 229.807 428.45L229.606 428.52L224.738 431C228.125 429.5 237.694 444.39 234.319 446Z" fill="#EBEBEB"/>
<path id="Vector_179" opacity="0.15" d="M353.84 374.55L352.937 374.13L333.431 383.71L231.645 436.12C231.456 435.85 231.3 435.83 231.177 436.02C234.04 440.02 236.201 445.08 234.319 445.96L236.547 444.83L239.209 443.47L335.514 393.9L353.751 375.37C353.857 375.258 353.923 375.119 353.939 374.973C353.955 374.826 353.92 374.678 353.84 374.55Z" fill="black"/>
<path id="Vector_180" d="M213.721 456.54L234.319 446C235.767 445.33 234.965 442.16 233.294 438.88C231.066 434.48 226.677 430.19 224.738 431.06L204.074 441.68C199.974 443.81 203.739 451.81 208.318 455.38C210 456.7 211.905 457.3 213.721 456.54Z" fill="#F28F8F"/>
<path id="Vector_181" opacity="0.1" d="M215.002 450.8C213.821 446.64 210.056 442.55 206.603 441.68C206.093 441.512 205.546 441.458 205.009 441.523C204.471 441.587 203.959 441.768 203.517 442.05C200.42 444.63 204.029 451.97 208.352 455.35C210.023 456.68 211.894 457.27 213.665 456.57C215.158 455.76 215.749 453.63 215.002 450.8Z" fill="black"/>
</g>
</g>
</g>
</svg>
