<svg width="513" height="449" viewBox="0 0 513 449" fill="none" xmlns="http://www.w3.org/2000/svg">
<path d="M14 64.4633C14 36.6191 36.6558 13.9633 64.5 13.9633H448.5C458.744 13.9633 467 22.2191 467 32.4633C467 38.0216 464.609 45.0951 460.365 50.7143C456.043 56.4358 451.593 58.4633 448.5 58.4633H110.5C100.425 58.4633 93.3016 64.1226 89.3513 70.7552C85.7123 76.8653 84.5 83.9728 84.5 89.9633C84.5 95.9476 85.7097 103.085 89.2441 109.238C93.0323 115.832 100.099 121.963 110.5 121.963H448.5C464.254 121.963 477.129 125.72 485.699 132.072C493.76 138.046 499 146.975 499 160.463V384.463C499 412.307 476.344 434.963 448.5 434.963H64.5C36.6558 434.963 14 412.307 14 384.463V64.4633ZM448.673 240.29C440.14 231.757 428.567 226.963 416.5 226.963C404.433 226.963 392.86 231.757 384.327 240.29C375.794 248.823 371 260.396 371 272.463C371 284.531 375.794 296.104 384.327 304.637C392.86 313.169 404.433 317.963 416.5 317.963C428.567 317.963 440.14 313.169 448.673 304.637C457.206 296.104 462 284.531 462 272.463C462 260.396 457.206 248.823 448.673 240.29Z" stroke="#0E0E2C" stroke-width="27"/>
</svg>
